<svg width="782" height="534" viewBox="0 0 782 534" fill="none" xmlns="http://www.w3.org/2000/svg">
<mask id="mask0_409_1416" style="mask-type:alpha" maskUnits="userSpaceOnUse" x="17" y="14" width="748" height="500">
<path d="M759 14H23C19.6863 14 17 16.6863 17 20V508C17 511.314 19.6863 514 23 514H759C762.314 514 765 511.314 765 508V20C765 16.6863 762.314 14 759 14Z" fill="white"/>
</mask>
<g mask="url(#mask0_409_1416)">
<path d="M759 14H23C19.6863 14 17 16.6863 17 20V508C17 511.314 19.6863 514 23 514H759C762.314 514 765 511.314 765 508V20C765 16.6863 762.314 14 759 14Z" fill="white"/>
<path opacity="0.5" d="M643.29 216.921L643.525 216.556L643.302 216.185L402.901 -182.099L402.669 -182.484L402.183 -182.492L77.8405 -187.534L77.3566 -187.541L77.1118 -187.166L-177.192 203.427L-177.43 203.793L-177.203 204.167L64.8239 603.215L65.0568 603.599L65.5412 603.607L205.597 605.784L207.026 605.806L206.339 604.675L-35.4732 206.74L146.163 -71.928L329.481 -69.078L501.56 214.351L335.595 470.738L334.878 471.845L336.301 471.867L477.177 474.057L477.663 474.065L477.907 473.686L643.29 216.921ZM300.852 -46.9994L301.571 -48.1073L300.146 -48.1295L160.089 -50.3068L159.605 -50.3144L159.36 -49.9382L-7.66055 206.802L-7.89908 207.169L-7.67197 207.543L234.367 605.852L234.6 606.235L235.084 606.243L559.426 611.285L559.911 611.293L560.155 610.915L813.651 219.57L813.889 219.205L813.661 218.832L572.43 -178.726L572.198 -179.11L571.714 -179.118L430.838 -181.308L429.412 -181.33L430.097 -180.199L671.102 216.986L490.271 496.405L307.775 493.568L134.899 208.649L300.852 -46.9994ZM532.647 -375.762L532.879 -375.376L533.364 -375.369L701.635 -372.753L1063.07 222.898L683.499 808.869L-64.4084 797.242L-426.747 199.827L-45.9096 -385.113L532.429 -376.122L532.647 -375.762Z" stroke="url(#paint0_linear_409_1416)" stroke-opacity="0.5" stroke-width="1.5"/>
<path d="M380 255.047C401.539 255.047 419 237.586 419 216.047C419 194.508 401.539 177.047 380 177.047C358.461 177.047 341 194.508 341 216.047C341 237.586 358.461 255.047 380 255.047Z" fill="#FFA776" fill-opacity="0.4"/>
<path d="M387.108 220.795L394.429 213.34L400.428 219.231L393.107 226.686L387.108 220.795Z" fill="#F9FAFC"/>
<path d="M383.536 217.502L390.857 210.047L392.913 212.066L385.592 219.521L383.536 217.502Z" fill="#F9FAFC"/>
<path d="M394.623 228.085L401.944 220.63L404 222.649L396.679 230.104L394.623 228.085Z" fill="#F9FAFC"/>
<path d="M386.542 224.914L389.108 227.421L381.565 235.14L379 232.632L386.542 224.914Z" fill="#F9FAFC"/>
<path d="M364 231.747C364 222.885 371.184 215.7 380.047 215.7" stroke="#F9FAFC" stroke-width="5"/>
<path d="M380.047 208.149C384.217 208.149 387.598 204.769 387.598 200.598C387.598 196.428 384.217 193.047 380.047 193.047C375.876 193.047 372.496 196.428 372.496 200.598C372.496 204.769 375.876 208.149 380.047 208.149Z" fill="#F9FAFC"/>
<path d="M259 255.047C280.539 255.047 298 237.586 298 216.047C298 194.508 280.539 177.047 259 177.047C237.461 177.047 220 194.508 220 216.047C220 237.586 237.461 255.047 259 255.047Z" fill="#FFA776"/>
<path d="M266.108 220.795L273.429 213.34L279.428 219.231L272.107 226.686L266.108 220.795Z" fill="#F9FAFC"/>
<path d="M262.536 217.502L269.857 210.047L271.913 212.066L264.592 219.521L262.536 217.502Z" fill="#F9FAFC"/>
<path d="M273.623 228.085L280.944 220.63L283 222.649L275.679 230.104L273.623 228.085Z" fill="#F9FAFC"/>
<path d="M265.542 224.914L268.108 227.421L260.565 235.14L257.999 232.632L265.542 224.914Z" fill="#F9FAFC"/>
<path d="M243 231.747C243 222.885 250.184 215.7 259.047 215.7" stroke="#F9FAFC" stroke-width="5"/>
<path d="M259.047 208.149C263.217 208.149 266.598 204.769 266.598 200.598C266.598 196.428 263.217 193.047 259.047 193.047C254.876 193.047 251.496 196.428 251.496 200.598C251.496 204.769 254.876 208.149 259.047 208.149Z" fill="#F9FAFC"/>
<path d="M501 255.047C522.539 255.047 540 237.586 540 216.047C540 194.508 522.539 177.047 501 177.047C479.461 177.047 462 194.508 462 216.047C462 237.586 479.461 255.047 501 255.047Z" fill="#FFA776"/>
<path d="M507.108 220.795L514.429 213.34L520.428 219.231L513.107 226.686L507.108 220.795Z" fill="#F9FAFC"/>
<path d="M503.536 217.502L510.857 210.047L512.913 212.066L505.592 219.521L503.536 217.502Z" fill="#F9FAFC"/>
<path d="M514.623 228.085L521.944 220.63L524 222.649L516.679 230.104L514.623 228.085Z" fill="#F9FAFC"/>
<path d="M506.542 224.914L509.108 227.421L501.565 235.14L498.999 232.632L506.542 224.914Z" fill="#F9FAFC"/>
<path d="M484 231.747C484 222.885 491.184 215.7 500.047 215.7" stroke="#F9FAFC" stroke-width="5"/>
<path d="M500.047 208.149C504.217 208.149 507.598 204.769 507.598 200.598C507.598 196.428 504.217 193.047 500.047 193.047C495.876 193.047 492.496 196.428 492.496 200.598C492.496 204.769 495.876 208.149 500.047 208.149Z" fill="#F9FAFC"/>
</g>
<circle cx="533.5" cy="184.5" r="21.5" fill="white"/>
<circle cx="292.5" cy="184.5" r="21.5" fill="white"/>
<path d="M552.001 183.985C552.004 188.118 550.585 192.127 547.981 195.338C545.378 198.548 541.749 200.765 537.704 201.615C533.659 202.465 529.445 201.898 525.769 200.007C522.093 198.117 519.18 195.019 517.519 191.234C515.857 187.45 515.549 183.208 516.646 179.223C517.743 175.238 520.178 171.752 523.542 169.35C526.906 166.949 530.994 165.778 535.12 166.035C539.245 166.292 543.156 167.961 546.196 170.761C548.024 172.445 549.484 174.489 550.483 176.766C551.482 179.041 551.999 181.5 552.001 183.985Z" fill="#25252C"/>
<path d="M552 184.67C551.869 188.199 550.701 191.611 548.644 194.482C546.586 197.353 543.73 199.556 540.429 200.816C537.129 202.076 533.531 202.337 530.083 201.568C526.635 200.798 523.489 199.031 521.038 196.488C518.587 193.945 516.939 190.736 516.298 187.263C515.658 183.79 516.054 180.205 517.436 176.955C518.819 173.705 521.128 170.934 524.074 168.986C527.021 167.038 530.476 166 534.009 166C538.842 166.181 543.416 168.227 546.771 171.708C550.125 175.19 552 179.835 552 184.67Z" fill="url(#paint1_linear_409_1416)"/>
<path d="M546.855 183.977C546.867 187.602 545.484 191.083 543.008 193.659C540.533 196.233 537.168 197.692 533.651 197.714C530.134 197.736 526.752 196.321 524.246 193.777C521.741 191.234 520.316 187.77 520.284 184.146V183.977C520.284 180.346 521.684 176.863 524.176 174.295C526.667 171.728 530.047 170.285 533.57 170.285H533.734C537.229 170.328 540.568 171.79 543.024 174.353C545.481 176.916 546.858 180.373 546.856 183.976L546.855 183.977Z" fill="#1F2026"/>
<path d="M543 173.171L523.834 193C523.494 192.651 522.476 191.258 522.136 190.56L540.571 171.318C541.442 171.846 542.256 172.467 543 173.171Z" fill="#222329"/>
<path d="M542.8 174.212L524.151 193.178C521.706 190.712 520.313 187.371 520.273 183.874L520.273 183.709C520.268 180.157 521.655 176.748 524.128 174.233C526.601 171.718 529.958 170.303 533.46 170.298L533.623 170.298C537.069 170.335 540.364 171.74 542.8 174.212Z" fill="#363741"/>
<path d="M542.182 174.794L523.733 193.409C522.554 192.918 522.721 190.969 521.727 190.137L540.301 171.318C541.085 172.373 541.719 173.544 542.182 174.794Z" fill="#191B1C" fill-opacity="0.3"/>
<path d="M547.993 183.985C547.993 185.818 547.632 187.634 546.93 189.328C546.229 191.022 545.2 192.562 543.904 193.858C542.607 195.155 541.068 196.184 539.374 196.885C537.68 197.587 535.864 197.948 534.03 197.948C533.766 197.948 533.502 197.941 533.241 197.926C536.803 197.725 540.153 196.169 542.603 193.576C545.054 190.984 546.419 187.552 546.419 183.985C546.419 180.418 545.054 176.986 542.603 174.393C540.153 171.801 536.803 170.244 533.241 170.043C533.502 170.029 533.766 170.021 534.03 170.021C537.734 170.021 541.285 171.493 543.904 174.111C546.522 176.73 547.993 180.281 547.993 183.985Z" fill="black"/>
<path d="M524.471 181.7L526.191 186.278C526.68 186.362 526.982 186.477 526.982 186.603V186.605C526.994 186.66 526.993 186.721 526.979 186.787L526.982 186.787L526.972 186.814C526.959 186.863 526.938 186.916 526.91 186.971C526.455 188.047 525.447 188.806 524.207 188.806C522.985 188.806 521.941 188.069 521.47 187.018C521.43 186.942 521.402 186.872 521.385 186.808C521.383 186.801 521.38 186.794 521.378 186.787L521.38 186.787C521.368 186.728 521.365 186.674 521.373 186.625L521.378 186.603L521.378 186.594C521.393 186.466 521.715 186.351 522.226 186.268L523.942 181.7C524.024 181.478 524.388 181.478 524.471 181.7V181.7ZM533.544 181.699L535.264 186.276C535.73 186.356 536.028 186.463 536.06 186.581L536.057 186.575L536.064 186.59C536.088 186.647 536.091 186.712 536.072 186.787L536.072 186.787C536.062 186.825 536.047 186.866 536.026 186.909C535.582 188.018 534.543 188.806 533.279 188.806C532.029 188.806 530.966 188.034 530.511 186.945C530.484 186.891 530.463 186.84 530.452 186.792L530.451 186.787C530.451 186.787 530.451 186.787 530.45 186.787L530.451 186.787L530.448 186.774C530.442 186.731 530.445 186.677 530.457 186.611L530.46 186.593L530.461 186.59L530.462 186.584C530.491 186.461 530.806 186.351 531.298 186.27L533.015 181.699C533.097 181.478 533.461 181.478 533.544 181.699V181.699ZM530.462 186.584L530.461 186.59H530.461L530.462 186.584ZM524.207 182.605L522.859 186.191C523.253 186.156 523.702 186.136 524.18 186.136L524.234 186.136C524.714 186.138 525.164 186.159 525.556 186.196L524.207 182.605ZM533.279 182.605L531.932 186.192C532.327 186.156 532.78 186.136 533.262 186.136L533.315 186.136C533.792 186.137 534.239 186.159 534.628 186.195L533.279 182.605ZM528.783 176.39C528.783 176.39 529.454 178.491 529.454 178.863C529.454 179.119 529.306 179.336 529.094 179.45C529.268 179.506 529.421 179.605 529.54 179.737C529.807 179.505 530.199 179.29 530.763 179.29C531.407 179.29 531.961 179.571 532.45 179.819C532.606 179.898 532.757 179.974 532.896 180.033C533 179.923 533.146 179.852 533.309 179.852C533.625 179.852 533.88 180.109 533.88 180.426C533.88 180.743 533.625 181 533.309 181C533.053 181 532.844 180.828 532.771 180.595C532.584 180.523 532.392 180.426 532.195 180.326C531.763 180.107 531.272 179.858 530.763 179.858C530.274 179.858 529.968 180.086 529.794 180.279C529.801 180.327 529.808 180.376 529.808 180.426C529.808 180.995 529.349 181.457 528.783 181.457C528.216 181.457 527.757 180.995 527.757 180.426C527.757 180.376 527.765 180.327 527.772 180.278C527.597 180.085 527.291 179.858 526.803 179.858C526.293 179.858 525.803 180.108 525.37 180.327C525.173 180.427 524.981 180.523 524.794 180.595C524.722 180.829 524.513 181.001 524.257 181.001C523.941 181.001 523.685 180.743 523.685 180.426C523.685 180.109 523.941 179.852 524.257 179.852C524.42 179.852 524.565 179.923 524.669 180.033C524.809 179.975 524.959 179.899 525.115 179.819C525.604 179.571 526.158 179.29 526.803 179.29C527.366 179.29 527.759 179.505 528.025 179.737C528.145 179.605 528.297 179.505 528.471 179.45C528.26 179.336 528.112 179.12 528.112 178.863C528.112 178.491 528.783 176.39 528.783 176.39V176.39Z" fill="url(#paint2_linear_409_1416)"/>
<path d="M536.802 175.69C536.802 175.69 536.106 175.749 535.645 175.998C535.645 175.998 537.479 175.988 538.333 176.704C538.333 176.704 536.257 176.067 533.837 177.648C533.837 177.648 537.686 176.912 539.51 178.474C539.51 178.474 538.921 177.386 537.683 177.152C537.683 177.152 539.092 177.096 539.575 177.33C539.575 177.33 539.158 176.434 538.685 176.22V175.582C538.685 175.452 537.98 174.795 536.802 174.684V175.69Z" fill="url(#paint3_linear_409_1416)"/>
<path d="M536.489 178.546C536.489 178.546 536.786 178.804 536.912 179.043C536.912 179.043 536.64 179.311 536.381 179.443C536.381 179.443 537.167 179.69 537.373 179.982C536.955 179.85 536.239 179.9 536.067 180.255C536.545 180.203 536.838 180.327 536.9 180.509C536.9 180.509 536.786 180.673 536.438 180.746C536.067 180.823 535.972 180.977 535.972 181.192C535.972 181.407 536.254 181.603 536.765 181.587C537.276 181.571 538.669 181.361 538.774 178.73C538.669 178.483 537.396 177.978 536.486 177.983L536.489 178.546Z" fill="white"/>
<path d="M538.947 181.457C539.572 180.486 539.914 179.639 539.973 178.918C540.899 179.945 540.843 181.147 540.686 182.067C540.58 181.771 540.443 181.466 540.275 181.153C540.386 182.572 539.965 183.34 539.013 183.457C538.902 182.802 538.88 182.135 538.947 181.457V181.457Z" fill="white"/>
<path d="M527.659 172.647C527.485 172.914 527.23 173.656 526.894 174.872C526.093 175.787 525.311 177.065 524.547 178.704C524.176 178.829 523.783 179.001 523.367 179.222C524.455 177.175 525.517 175.644 526.555 174.629C526.781 173.878 527.149 173.217 527.659 172.647V172.647Z" fill="white"/>
<path d="M529.724 174.745L527.189 175.938C527.911 175.951 528.485 175.819 528.91 175.545C529.335 175.271 529.606 175.004 529.724 174.745Z" fill="white"/>
<path d="M528.789 174.309C528.774 173.787 528.706 173.494 528.585 173.429C528.449 173.369 528.37 173.239 528.449 173.002C528.498 172.851 528.483 172.683 528.405 172.498L529.093 172.04L529.867 172.526C529.894 172.698 529.838 172.857 529.698 173.002C529.867 173.184 529.867 173.419 529.671 173.691C529.677 173.758 529.681 173.824 529.683 173.889C529.686 173.987 529.682 174.127 529.671 174.309H528.789Z" fill="white"/>
<path d="M538.337 182.347C538.215 184.553 538.686 185.806 539.748 186.108C541.341 186.559 544.174 186.619 543.993 190.041C544.137 190.494 544.268 190.924 544.388 191.332C543.921 191.826 543.414 192.282 542.873 192.695C542.343 191.417 541.539 190.613 540.608 190.041C536.939 187.76 536.182 185.195 538.337 182.347Z" fill="white"/>
<path d="M528.981 189.367C530.902 194.18 533.977 191.096 536.352 192.224C537.439 192.739 538.031 193.685 538.13 195.063C537.204 195.278 536.239 195.392 535.247 195.392C533.325 195.392 531.502 194.964 529.869 194.2C529.863 192.751 529.567 191.14 528.981 189.367V189.367Z" fill="white"/>
<path d="M532.625 176.351C533.123 176.213 533.531 175.903 533.847 175.42C533.827 175.708 533.755 175.955 533.63 176.163C535.071 175.904 536.188 175.033 536.983 173.55C535.517 172.754 534.006 173.297 533.195 174.287C532.655 174.947 532.465 175.635 532.625 176.351V176.351Z" fill="white"/>
<path d="M311.001 183.985C311.004 188.118 309.585 192.127 306.981 195.338C304.378 198.548 300.749 200.765 296.704 201.615C292.659 202.465 288.445 201.898 284.769 200.007C281.093 198.117 278.18 195.019 276.519 191.234C274.857 187.45 274.549 183.208 275.646 179.223C276.743 175.238 279.178 171.752 282.542 169.35C285.906 166.949 289.994 165.778 294.12 166.035C298.245 166.292 302.156 167.961 305.196 170.761C307.024 172.445 308.484 174.489 309.483 176.766C310.482 179.041 310.999 181.5 311.001 183.985Z" fill="#25252C"/>
<path d="M311 184.67C310.869 188.199 309.701 191.611 307.644 194.482C305.586 197.353 302.73 199.556 299.429 200.816C296.129 202.076 292.531 202.337 289.083 201.568C285.635 200.798 282.489 199.031 280.038 196.488C277.587 193.945 275.939 190.736 275.298 187.263C274.658 183.79 275.054 180.205 276.436 176.955C277.819 173.705 280.128 170.934 283.074 168.986C286.021 167.038 289.476 166 293.009 166C297.842 166.181 302.416 168.227 305.771 171.708C309.125 175.19 311 179.835 311 184.67Z" fill="url(#paint4_linear_409_1416)"/>
<path d="M305.855 183.977C305.867 187.602 304.484 191.083 302.008 193.659C299.533 196.233 296.168 197.692 292.651 197.714C289.134 197.736 285.752 196.321 283.246 193.777C280.741 191.234 279.316 187.77 279.284 184.146V183.977C279.284 180.346 280.684 176.863 283.176 174.295C285.667 171.728 289.047 170.285 292.57 170.285H292.734C296.229 170.328 299.568 171.79 302.024 174.353C304.481 176.916 305.858 180.373 305.856 183.976L305.855 183.977Z" fill="#1F2026"/>
<path d="M302 173.171L282.834 193C282.494 192.651 281.476 191.258 281.136 190.56L299.571 171.318C300.442 171.846 301.256 172.467 302 173.171Z" fill="#222329"/>
<path d="M301.8 174.212L283.151 193.178C280.706 190.712 279.313 187.371 279.273 183.874L279.273 183.709C279.268 180.157 280.655 176.748 283.128 174.233C285.601 171.718 288.958 170.303 292.46 170.298L292.623 170.298C296.069 170.335 299.364 171.74 301.8 174.212Z" fill="#363741"/>
<path d="M301.182 174.794L282.733 193.409C281.554 192.918 281.721 190.969 280.727 190.137L299.301 171.318C300.085 172.373 300.719 173.544 301.182 174.794Z" fill="#191B1C" fill-opacity="0.3"/>
<path d="M306.993 183.985C306.993 185.818 306.632 187.634 305.93 189.328C305.229 191.022 304.2 192.562 302.904 193.858C301.607 195.155 300.068 196.184 298.374 196.885C296.68 197.587 294.864 197.948 293.03 197.948C292.766 197.948 292.502 197.941 292.241 197.926C295.803 197.725 299.153 196.169 301.603 193.576C304.054 190.984 305.419 187.552 305.419 183.985C305.419 180.418 304.054 176.986 301.603 174.393C299.153 171.801 295.803 170.244 292.241 170.043C292.502 170.029 292.766 170.021 293.03 170.021C296.734 170.021 300.285 171.493 302.904 174.111C305.522 176.73 306.993 180.281 306.993 183.985Z" fill="black"/>
<path d="M283.471 181.7L285.191 186.278C285.68 186.362 285.982 186.477 285.982 186.603V186.605C285.994 186.66 285.993 186.721 285.979 186.787L285.982 186.787L285.972 186.814C285.959 186.863 285.938 186.916 285.91 186.971C285.455 188.047 284.447 188.806 283.207 188.806C281.985 188.806 280.941 188.069 280.47 187.018C280.43 186.942 280.402 186.872 280.385 186.808C280.383 186.801 280.38 186.794 280.378 186.787L280.38 186.787C280.368 186.728 280.365 186.674 280.373 186.625L280.378 186.603L280.378 186.594C280.393 186.466 280.715 186.351 281.226 186.268L282.942 181.7C283.024 181.478 283.388 181.478 283.471 181.7V181.7ZM292.544 181.699L294.264 186.276C294.73 186.356 295.028 186.463 295.06 186.581L295.057 186.575L295.064 186.59C295.088 186.647 295.091 186.712 295.072 186.787L295.072 186.787C295.062 186.825 295.047 186.866 295.026 186.909C294.582 188.018 293.543 188.806 292.279 188.806C291.029 188.806 289.966 188.034 289.511 186.945C289.484 186.891 289.463 186.84 289.452 186.792L289.451 186.787C289.451 186.787 289.451 186.787 289.45 186.787L289.451 186.787L289.448 186.774C289.442 186.731 289.445 186.677 289.457 186.611L289.46 186.593L289.461 186.59L289.462 186.584C289.491 186.461 289.806 186.351 290.298 186.27L292.015 181.699C292.097 181.478 292.461 181.478 292.544 181.699V181.699ZM289.462 186.584L289.461 186.59H289.461L289.462 186.584ZM283.207 182.605L281.859 186.191C282.253 186.156 282.702 186.136 283.18 186.136L283.234 186.136C283.714 186.138 284.164 186.159 284.556 186.196L283.207 182.605ZM292.279 182.605L290.932 186.192C291.327 186.156 291.78 186.136 292.262 186.136L292.315 186.136C292.792 186.137 293.239 186.159 293.628 186.195L292.279 182.605ZM287.783 176.39C287.783 176.39 288.454 178.491 288.454 178.863C288.454 179.119 288.306 179.336 288.094 179.45C288.268 179.506 288.421 179.605 288.54 179.737C288.807 179.505 289.199 179.29 289.763 179.29C290.407 179.29 290.961 179.571 291.45 179.819C291.606 179.898 291.757 179.974 291.896 180.033C292 179.923 292.146 179.852 292.309 179.852C292.625 179.852 292.88 180.109 292.88 180.426C292.88 180.743 292.625 181 292.309 181C292.053 181 291.844 180.828 291.771 180.595C291.584 180.523 291.392 180.426 291.195 180.326C290.763 180.107 290.272 179.858 289.763 179.858C289.274 179.858 288.968 180.086 288.794 180.279C288.801 180.327 288.808 180.376 288.808 180.426C288.808 180.995 288.349 181.457 287.783 181.457C287.216 181.457 286.757 180.995 286.757 180.426C286.757 180.376 286.765 180.327 286.772 180.278C286.597 180.085 286.291 179.858 285.803 179.858C285.293 179.858 284.803 180.108 284.37 180.327C284.173 180.427 283.981 180.523 283.794 180.595C283.722 180.829 283.513 181.001 283.257 181.001C282.941 181.001 282.685 180.743 282.685 180.426C282.685 180.109 282.941 179.852 283.257 179.852C283.42 179.852 283.565 179.923 283.669 180.033C283.809 179.975 283.959 179.899 284.115 179.819C284.604 179.571 285.158 179.29 285.803 179.29C286.366 179.29 286.759 179.505 287.025 179.737C287.145 179.605 287.297 179.505 287.471 179.45C287.26 179.336 287.112 179.12 287.112 178.863C287.112 178.491 287.783 176.39 287.783 176.39V176.39Z" fill="url(#paint5_linear_409_1416)"/>
<path d="M295.802 175.69C295.802 175.69 295.106 175.749 294.645 175.998C294.645 175.998 296.479 175.988 297.333 176.704C297.333 176.704 295.257 176.067 292.837 177.648C292.837 177.648 296.686 176.912 298.51 178.474C298.51 178.474 297.921 177.386 296.683 177.152C296.683 177.152 298.092 177.096 298.575 177.33C298.575 177.33 298.158 176.434 297.685 176.22V175.582C297.685 175.452 296.98 174.795 295.802 174.684V175.69Z" fill="url(#paint6_linear_409_1416)"/>
<path d="M295.489 178.546C295.489 178.546 295.786 178.804 295.912 179.043C295.912 179.043 295.64 179.311 295.381 179.443C295.381 179.443 296.167 179.69 296.373 179.982C295.955 179.85 295.239 179.9 295.067 180.255C295.545 180.203 295.838 180.327 295.9 180.509C295.9 180.509 295.786 180.673 295.438 180.746C295.067 180.823 294.972 180.977 294.972 181.192C294.972 181.407 295.254 181.603 295.765 181.587C296.276 181.571 297.669 181.361 297.774 178.73C297.669 178.483 296.396 177.978 295.486 177.983L295.489 178.546Z" fill="white"/>
<path d="M297.947 181.457C298.572 180.486 298.914 179.639 298.973 178.918C299.899 179.945 299.843 181.147 299.686 182.067C299.58 181.771 299.443 181.466 299.275 181.153C299.386 182.572 298.965 183.34 298.013 183.457C297.902 182.802 297.88 182.135 297.947 181.457V181.457Z" fill="white"/>
<path d="M286.659 172.647C286.485 172.914 286.23 173.656 285.894 174.872C285.093 175.787 284.311 177.065 283.547 178.704C283.176 178.829 282.783 179.001 282.367 179.222C283.455 177.175 284.517 175.644 285.555 174.629C285.781 173.878 286.149 173.217 286.659 172.647V172.647Z" fill="white"/>
<path d="M288.724 174.745L286.189 175.938C286.911 175.951 287.485 175.819 287.91 175.545C288.335 175.271 288.606 175.004 288.724 174.745Z" fill="white"/>
<path d="M287.789 174.309C287.774 173.787 287.706 173.494 287.585 173.429C287.449 173.369 287.37 173.239 287.449 173.002C287.498 172.851 287.483 172.683 287.405 172.498L288.093 172.04L288.867 172.526C288.894 172.698 288.838 172.857 288.698 173.002C288.867 173.184 288.867 173.419 288.671 173.691C288.677 173.758 288.681 173.824 288.683 173.889C288.686 173.987 288.682 174.127 288.671 174.309H287.789Z" fill="white"/>
<path d="M297.337 182.347C297.215 184.553 297.686 185.806 298.748 186.108C300.341 186.559 303.174 186.619 302.993 190.041C303.137 190.494 303.268 190.924 303.388 191.332C302.921 191.826 302.414 192.282 301.873 192.695C301.343 191.417 300.539 190.613 299.608 190.041C295.939 187.76 295.182 185.195 297.337 182.347Z" fill="white"/>
<path d="M287.981 189.367C289.902 194.18 292.977 191.096 295.352 192.224C296.439 192.739 297.031 193.685 297.13 195.063C296.204 195.278 295.239 195.392 294.247 195.392C292.325 195.392 290.502 194.964 288.869 194.2C288.863 192.751 288.567 191.14 287.981 189.367V189.367Z" fill="white"/>
<path d="M291.625 176.351C292.123 176.213 292.531 175.903 292.847 175.42C292.827 175.708 292.755 175.955 292.63 176.163C294.071 175.904 295.188 175.033 295.983 173.55C294.517 172.754 293.006 173.297 292.195 174.287C291.655 174.947 291.465 175.635 291.625 176.351V176.351Z" fill="white"/>
<defs>
<linearGradient id="paint0_linear_409_1416" x1="88.741" y1="208.301" x2="740.399" y2="218.432" gradientUnits="userSpaceOnUse">
<stop stop-color="#FFA776"/>
<stop offset="1" stop-color="#FFA776" stop-opacity="0"/>
</linearGradient>
<linearGradient id="paint1_linear_409_1416" x1="523.568" y1="169.068" x2="540.341" y2="202" gradientUnits="userSpaceOnUse">
<stop stop-color="#474B5B"/>
<stop offset="1" stop-color="#252731"/>
</linearGradient>
<linearGradient id="paint2_linear_409_1416" x1="521.369" y1="187.018" x2="535.009" y2="176.012" gradientUnits="userSpaceOnUse">
<stop stop-color="#FFC58F"/>
<stop offset="1" stop-color="#FF7C7C"/>
</linearGradient>
<linearGradient id="paint3_linear_409_1416" x1="533.837" y1="177.928" x2="538.095" y2="173.54" gradientUnits="userSpaceOnUse">
<stop stop-color="#FFC58F"/>
<stop offset="1" stop-color="#FF7C7C"/>
</linearGradient>
<linearGradient id="paint4_linear_409_1416" x1="282.568" y1="169.068" x2="299.341" y2="202" gradientUnits="userSpaceOnUse">
<stop stop-color="#474B5B"/>
<stop offset="1" stop-color="#252731"/>
</linearGradient>
<linearGradient id="paint5_linear_409_1416" x1="280.369" y1="187.018" x2="294.009" y2="176.012" gradientUnits="userSpaceOnUse">
<stop stop-color="#FFC58F"/>
<stop offset="1" stop-color="#FF7C7C"/>
</linearGradient>
<linearGradient id="paint6_linear_409_1416" x1="292.837" y1="177.928" x2="297.095" y2="173.54" gradientUnits="userSpaceOnUse">
<stop stop-color="#FFC58F"/>
<stop offset="1" stop-color="#FF7C7C"/>
</linearGradient>
</defs>
</svg>
