<svg width="782" height="534" viewBox="0 0 782 534" fill="none" xmlns="http://www.w3.org/2000/svg">
<mask id="mask0_409_1497" style="mask-type:alpha" maskUnits="userSpaceOnUse" x="17" y="14" width="748" height="500">
<path d="M759 14H23C19.6863 14 17 16.6863 17 20V508C17 511.314 19.6863 514 23 514H759C762.314 514 765 511.314 765 508V20C765 16.6863 762.314 14 759 14Z" fill="white"/>
</mask>
<g mask="url(#mask0_409_1497)">
<path d="M759 14H23C19.6863 14 17 16.6863 17 20V508C17 511.314 19.6863 514 23 514H759C762.314 514 765 511.314 765 508V20C765 16.6863 762.314 14 759 14Z" fill="white"/>
<path opacity="0.2" d="M391.5 436.716C514.779 436.716 614.716 336.779 614.716 213.5C614.716 90.2214 514.779 -9.71582 391.5 -9.71582C268.221 -9.71582 168.284 90.2214 168.284 213.5C168.284 336.779 268.221 436.716 391.5 436.716Z" stroke="#FFA776" stroke-width="1.5"/>
<path opacity="0.15" d="M391.5 468.545C532.358 468.545 646.545 354.358 646.545 213.5C646.545 72.6426 532.358 -41.5449 391.5 -41.5449C250.643 -41.5449 136.455 72.6426 136.455 213.5C136.455 354.358 250.643 468.545 391.5 468.545Z" stroke="#FFA776" stroke-width="1.5"/>
<path opacity="0.1" d="M391.5 499.598C549.507 499.598 677.598 371.508 677.598 213.5C677.598 55.4928 549.507 -72.5977 391.5 -72.5977C233.492 -72.5977 105.402 55.4928 105.402 213.5C105.402 371.508 233.492 499.598 391.5 499.598Z" stroke="#FFA776" stroke-width="1.5"/>
<path opacity="0.05" d="M391.5 531.25C566.988 531.25 709.25 388.988 709.25 213.5C709.25 38.0115 566.988 -104.25 391.5 -104.25C216.012 -104.25 73.75 38.0115 73.75 213.5C73.75 388.988 216.012 531.25 391.5 531.25Z" stroke="#FFA776" stroke-width="1.5"/>
<path d="M746 391H36C33.7909 391 32 392.791 32 395V496C32 498.209 33.7909 500 36 500H746C748.209 500 750 498.209 750 496V395C750 392.791 748.209 391 746 391Z" fill="url(#paint0_linear_409_1497)"/>
<path opacity="0.7" d="M394.5 136L389.737 132.25H399.263L394.5 136Z" fill="#FFA776"/>
<path opacity="0.8" d="M394.5 144L389.737 140.25H399.263L394.5 144Z" fill="#FFA776"/>
<path d="M394.5 152L389.737 148.25H399.263L394.5 152Z" fill="#FFA776"/>
<path d="M394.5 160L389.737 156.25H399.263L394.5 160Z" fill="#FFA776"/>
<path opacity="0.7" d="M335.46 285.105L336.798 291.018L329.399 285.017L335.46 285.105Z" fill="#FFA776"/>
<path opacity="0.8" d="M340.5 278.891L341.837 284.804L334.438 278.804L340.5 278.891Z" fill="#FFA776"/>
<path d="M345.539 272.678L346.876 278.591L339.477 272.59L345.539 272.678Z" fill="#FFA776"/>
<path d="M350.578 266.464L351.915 272.377L344.516 266.377L350.578 266.464Z" fill="#FFA776"/>
<path opacity="0.7" d="M451.389 285.105L450.052 291.018L457.451 285.017L451.389 285.105Z" fill="#FFA776"/>
<path opacity="0.8" d="M446.35 278.891L445.013 284.804L452.412 278.804L446.35 278.891Z" fill="#FFA776"/>
<path d="M441.311 272.678L439.973 278.591L447.372 272.59L441.311 272.678Z" fill="#FFA776"/>
<path d="M436.272 266.464L434.934 272.377L442.333 266.377L436.272 266.464Z" fill="#FFA776"/>
<path d="M393.773 269.545C421.262 269.545 443.546 247.261 443.546 219.773C443.546 192.284 421.262 170 393.773 170C366.284 170 344 192.284 344 219.773C344 247.261 366.284 269.545 393.773 269.545Z" fill="#8987FF"/>
<path d="M416.094 197V234.953L406.66 237.004L404.609 246.438H380V197H416.094Z" fill="#BFBEFF"/>
<path opacity="0.6" d="M416.094 197V234.953L406.66 237.004L404.609 246.438H380V197H416.094Z" fill="#A6A5FF"/>
<path d="M404.609 234.953V246.438L416.094 234.953H404.609Z" fill="#EEEEFF"/>
<path d="M410.5 202H385.5C384.672 202 384 202.672 384 203.5C384 204.328 384.672 205 385.5 205H410.5C411.328 205 412 204.328 412 203.5C412 202.672 411.328 202 410.5 202Z" fill="#8987FF" fill-opacity="0.6"/>
<path d="M410.5 209H385.5C384.672 209 384 209.672 384 210.5C384 211.328 384.672 212 385.5 212H410.5C411.328 212 412 211.328 412 210.5C412 209.672 411.328 209 410.5 209Z" fill="#8987FF" fill-opacity="0.4"/>
<path opacity="0.3" d="M410.5 216H385.5C384.672 216 384 216.672 384 217.5C384 218.328 384.672 219 385.5 219H410.5C411.328 219 412 218.328 412 217.5C412 216.672 411.328 216 410.5 216Z" fill="#8987FF"/>
<path opacity="0.2" d="M410.5 223H385.5C384.672 223 384 223.672 384 224.5C384 225.328 384.672 226 385.5 226H410.5C411.328 226 412 225.328 412 224.5C412 223.672 411.328 223 410.5 223Z" fill="#8987FF"/>
<path d="M410.094 204V241.953L400.66 244.004L398.609 253.438H374V204H410.094Z" fill="#C8C7FF"/>
<path d="M398.609 241.953V253.438L410.094 241.953H398.609Z" fill="#EEEEFF"/>
<path d="M404.5 209H379.5C378.672 209 378 209.672 378 210.5C378 211.328 378.672 212 379.5 212H404.5C405.328 212 406 211.328 406 210.5C406 209.672 405.328 209 404.5 209Z" fill="#8987FF" fill-opacity="0.6"/>
<path d="M404.5 216H379.5C378.672 216 378 216.672 378 217.5C378 218.328 378.672 219 379.5 219H404.5C405.328 219 406 218.328 406 217.5C406 216.672 405.328 216 404.5 216Z" fill="#8987FF" fill-opacity="0.4"/>
<path opacity="0.3" d="M404.5 223H379.5C378.672 223 378 223.672 378 224.5C378 225.328 378.672 226 379.5 226H404.5C405.328 226 406 225.328 406 224.5C406 223.672 405.328 223 404.5 223Z" fill="#8987FF"/>
<path opacity="0.2" d="M404.5 230H379.5C378.672 230 378 230.672 378 231.5C378 232.328 378.672 233 379.5 233H404.5C405.328 233 406 232.328 406 231.5C406 230.672 405.328 230 404.5 230Z" fill="#8987FF"/>
<path d="M394 124C415.539 124 433 106.539 433 85C433 63.4609 415.539 46 394 46C372.461 46 355 63.4609 355 85C355 106.539 372.461 124 394 124Z" fill="#FFA776"/>
<path d="M401.108 89.748L408.429 82.2929L414.428 88.1838L407.107 95.639L401.108 89.748Z" fill="#F9FAFC"/>
<path d="M397.536 86.4551L404.857 79L406.913 81.019L399.592 88.4742L397.536 86.4551Z" fill="#F9FAFC"/>
<path d="M408.623 97.0381L415.944 89.5829L418 91.602L410.679 99.0572L408.623 97.0381Z" fill="#F9FAFC"/>
<path d="M400.542 93.8672L403.108 96.3745L395.565 104.093L392.999 101.585L400.542 93.8672Z" fill="#F9FAFC"/>
<path d="M378 100.7C378 91.8386 385.184 84.6543 394.047 84.6543" stroke="#F9FAFC" stroke-width="5"/>
<path d="M394.047 77.1026C398.217 77.1026 401.598 73.7218 401.598 69.5513C401.598 65.3808 398.217 62 394.047 62C389.876 62 386.496 65.3808 386.496 69.5513C386.496 73.7218 389.876 77.1026 394.047 77.1026Z" fill="#F9FAFC"/>
<path d="M298 365C319.539 365 337 347.539 337 326C337 304.461 319.539 287 298 287C276.461 287 259 304.461 259 326C259 347.539 276.461 365 298 365Z" fill="#FFA776"/>
<path d="M305.108 330.748L312.429 323.293L318.428 329.184L311.107 336.639L305.108 330.748Z" fill="#F9FAFC"/>
<path d="M301.536 327.455L308.857 320L310.913 322.019L303.592 329.474L301.536 327.455Z" fill="#F9FAFC"/>
<path d="M312.623 338.038L319.944 330.583L322 332.602L314.679 340.057L312.623 338.038Z" fill="#F9FAFC"/>
<path d="M304.542 334.868L307.108 337.375L299.565 345.094L296.999 342.586L304.542 334.868Z" fill="#F9FAFC"/>
<path d="M282 341.7C282 332.838 289.184 325.654 298.047 325.654" stroke="#F9FAFC" stroke-width="5"/>
<path d="M298.047 318.103C302.217 318.103 305.598 314.722 305.598 310.551C305.598 306.381 302.217 303 298.047 303C293.876 303 290.496 306.381 290.496 310.551C290.496 314.722 293.876 318.103 298.047 318.103Z" fill="#F9FAFC"/>
<path d="M485 364C506.539 364 524 346.539 524 325C524 303.461 506.539 286 485 286C463.461 286 446 303.461 446 325C446 346.539 463.461 364 485 364Z" fill="#FFA776"/>
<path d="M491.108 329.748L498.429 322.293L504.428 328.184L497.107 335.639L491.108 329.748Z" fill="#F9FAFC"/>
<path d="M487.536 326.455L494.857 319L496.913 321.019L489.592 328.474L487.536 326.455Z" fill="#F9FAFC"/>
<path d="M498.623 337.038L505.944 329.583L508 331.602L500.679 339.057L498.623 337.038Z" fill="#F9FAFC"/>
<path d="M490.542 333.868L493.108 336.375L485.565 344.094L482.999 341.586L490.542 333.868Z" fill="#F9FAFC"/>
<path d="M468 340.7C468 331.838 475.184 324.654 484.047 324.654" stroke="#F9FAFC" stroke-width="5"/>
<path d="M484.047 317.103C488.217 317.103 491.598 313.722 491.598 309.551C491.598 305.381 488.217 302 484.047 302C479.876 302 476.496 305.381 476.496 309.551C476.496 313.722 479.876 317.103 484.047 317.103Z" fill="#F9FAFC"/>
</g>
<defs>
<linearGradient id="paint0_linear_409_1497" x1="750" y1="408.937" x2="687.559" y2="649.81" gradientUnits="userSpaceOnUse">
<stop stop-color="#FFF8F0"/>
<stop offset="1" stop-color="#FFF3F1"/>
</linearGradient>
</defs>
</svg>
