<svg width="705" height="276" viewBox="0 0 705 276" fill="none" xmlns="http://www.w3.org/2000/svg">
<path d="M28 195V180.455H33.4545C34.572 180.455 35.5095 180.663 36.267 181.08C37.0294 181.496 37.6046 182.069 37.9929 182.798C38.3859 183.523 38.5824 184.347 38.5824 185.27C38.5824 186.203 38.3859 187.031 37.9929 187.756C37.5999 188.48 37.0199 189.051 36.2528 189.468C35.4858 189.879 34.5412 190.085 33.419 190.085H29.804V187.919H33.0639C33.7173 187.919 34.2524 187.806 34.669 187.578C35.0857 187.351 35.3935 187.039 35.5923 186.641C35.7959 186.243 35.8977 185.786 35.8977 185.27C35.8977 184.754 35.7959 184.299 35.5923 183.906C35.3935 183.513 35.0833 183.208 34.6619 182.99C34.2453 182.768 33.7079 182.656 33.0497 182.656H30.6349V195H28Z" fill="white"/>
<path d="M40.8711 195V180.455H46.3256C47.4431 180.455 48.3806 180.649 49.1381 181.037C49.9005 181.425 50.4757 181.97 50.864 182.671C51.257 183.367 51.4535 184.179 51.4535 185.107C51.4535 186.039 51.2546 186.849 50.8569 187.536C50.4639 188.218 49.8839 188.745 49.1168 189.119C48.3498 189.489 47.4076 189.673 46.2901 189.673H42.4052V187.486H45.935C46.5884 187.486 47.1235 187.396 47.5401 187.216C47.9568 187.031 48.2646 186.764 48.4634 186.414C48.667 186.058 48.7688 185.623 48.7688 185.107C48.7688 184.591 48.667 184.15 48.4634 183.786C48.2598 183.416 47.9497 183.137 47.533 182.948C47.1164 182.753 46.579 182.656 45.9208 182.656H43.506V195H40.8711ZM48.3853 188.409L51.9862 195H49.0458L45.5089 188.409H48.3853Z" fill="white"/>
<path d="M66.8761 187.727C66.8761 189.295 66.5825 190.637 65.9954 191.754C65.413 192.867 64.6175 193.719 63.609 194.311C62.6052 194.903 61.4665 195.199 60.1928 195.199C58.9192 195.199 57.7781 194.903 56.7695 194.311C55.7657 193.715 54.9703 192.86 54.3832 191.747C53.8008 190.63 53.5096 189.29 53.5096 187.727C53.5096 186.16 53.8008 184.82 54.3832 183.708C54.9703 182.59 55.7657 181.736 56.7695 181.144C57.7781 180.552 58.9192 180.256 60.1928 180.256C61.4665 180.256 62.6052 180.552 63.609 181.144C64.6175 181.736 65.413 182.59 65.9954 183.708C66.5825 184.82 66.8761 186.16 66.8761 187.727ZM64.2269 187.727C64.2269 186.624 64.0541 185.694 63.7085 184.936C63.3675 184.174 62.8941 183.599 62.288 183.21C61.6819 182.817 60.9835 182.621 60.1928 182.621C59.4021 182.621 58.7037 182.817 58.0977 183.21C57.4916 183.599 57.0157 184.174 56.6701 184.936C56.3292 185.694 56.1587 186.624 56.1587 187.727C56.1587 188.831 56.3292 189.763 56.6701 190.526C57.0157 191.283 57.4916 191.859 58.0977 192.252C58.7037 192.64 59.4021 192.834 60.1928 192.834C60.9835 192.834 61.6819 192.64 62.288 192.252C62.8941 191.859 63.3675 191.283 63.7085 190.526C64.0541 189.763 64.2269 188.831 64.2269 187.727Z" fill="white"/>
<path d="M70.532 180.455L74.3175 191.904H74.4666L78.245 180.455H81.1428L76.0149 195H72.7621L67.6413 180.455H70.532Z" fill="white"/>
<path d="M83.2273 195H80.4148L85.5355 180.455H88.7884L93.9162 195H91.1037L87.2188 183.438H87.1051L83.2273 195ZM83.3196 189.297H90.9901V191.414H83.3196V189.297Z" fill="white"/>
<path d="M95.832 195V180.455H101.4C102.451 180.455 103.325 180.62 104.021 180.952C104.722 181.279 105.245 181.726 105.591 182.294C105.941 182.862 106.116 183.506 106.116 184.226C106.116 184.818 106.002 185.325 105.775 185.746C105.548 186.163 105.243 186.501 104.859 186.762C104.475 187.022 104.047 187.209 103.574 187.323V187.465C104.09 187.493 104.584 187.652 105.058 187.941C105.536 188.225 105.927 188.627 106.23 189.148C106.533 189.669 106.684 190.298 106.684 191.037C106.684 191.79 106.502 192.467 106.137 193.068C105.773 193.665 105.224 194.136 104.49 194.482C103.756 194.827 102.833 195 101.72 195H95.832ZM98.467 192.798H101.301C102.257 192.798 102.946 192.616 103.368 192.252C103.794 191.882 104.007 191.409 104.007 190.831C104.007 190.4 103.9 190.012 103.687 189.666C103.474 189.316 103.171 189.041 102.778 188.843C102.385 188.639 101.916 188.537 101.372 188.537H98.467V192.798ZM98.467 186.641H101.074C101.528 186.641 101.938 186.558 102.302 186.392C102.667 186.222 102.953 185.983 103.162 185.675C103.375 185.362 103.481 184.993 103.481 184.567C103.481 184.003 103.282 183.539 102.885 183.175C102.492 182.81 101.907 182.628 101.13 182.628H98.467V186.641Z" fill="white"/>
<path d="M108.977 195V180.455H111.612V192.791H118.018V195H108.977Z" fill="white"/>
<path d="M117.846 180.455H120.821L124.38 186.889H124.522L128.08 180.455H131.056L125.765 189.574V195H123.137V189.574L117.846 180.455Z" fill="white"/>
<path d="M137.883 195V180.455H147.201V182.664H140.518V186.612H146.562V188.821H140.518V195H137.883Z" fill="white"/>
<path d="M149.653 195H146.841L151.961 180.455H155.214L160.342 195H157.529L153.645 183.438H153.531L149.653 195ZM149.745 189.297H157.416V191.414H149.745V189.297Z" fill="white"/>
<path d="M164.893 180.455V195H162.258V180.455H164.893Z" fill="white"/>
<path d="M167.746 195V180.455H173.201C174.318 180.455 175.256 180.649 176.013 181.037C176.775 181.425 177.351 181.97 177.739 182.671C178.132 183.367 178.328 184.179 178.328 185.107C178.328 186.039 178.13 186.849 177.732 187.536C177.339 188.218 176.759 188.745 175.992 189.119C175.225 189.489 174.283 189.673 173.165 189.673H169.28V187.486H172.81C173.463 187.486 173.998 187.396 174.415 187.216C174.832 187.031 175.14 186.764 175.338 186.414C175.542 186.058 175.644 185.623 175.644 185.107C175.644 184.591 175.542 184.15 175.338 183.786C175.135 183.416 174.825 183.137 174.408 182.948C173.991 182.753 173.454 182.656 172.796 182.656H170.381V195H167.746ZM175.26 188.409L178.861 195H175.921L172.384 188.409H175.26Z" fill="white"/>
<path d="M483.361 182.664V180.455H494.966V182.664H490.47V195H487.857V182.664H483.361Z" fill="url(#paint0_linear_408_1334)"/>
<path d="M497.203 195V180.455H502.658C503.775 180.455 504.713 180.649 505.47 181.037C506.233 181.425 506.808 181.97 507.196 182.671C507.589 183.367 507.786 184.179 507.786 185.107C507.786 186.039 507.587 186.849 507.189 187.536C506.796 188.218 506.216 188.745 505.449 189.119C504.682 189.489 503.74 189.673 502.622 189.673H498.737V187.486H502.267C502.921 187.486 503.456 187.396 503.872 187.216C504.289 187.031 504.597 186.764 504.795 186.414C504.999 186.058 505.101 185.623 505.101 185.107C505.101 184.591 504.999 184.15 504.795 183.786C504.592 183.416 504.282 183.137 503.865 182.948C503.448 182.753 502.911 182.656 502.253 182.656H499.838V195H497.203ZM504.717 188.409L508.318 195H505.378L501.841 188.409H504.717Z" fill="url(#paint1_linear_408_1334)"/>
<path d="M519.38 180.455H522.015V189.958C522.015 190.999 521.769 191.915 521.276 192.706C520.789 193.497 520.102 194.115 519.217 194.56C518.331 195 517.297 195.22 516.113 195.22C514.925 195.22 513.888 195 513.002 194.56C512.117 194.115 511.43 193.497 510.943 192.706C510.455 191.915 510.211 190.999 510.211 189.958V180.455H512.846V189.737C512.846 190.343 512.979 190.883 513.244 191.357C513.514 191.83 513.892 192.202 514.38 192.472C514.868 192.737 515.445 192.869 516.113 192.869C516.781 192.869 517.358 192.737 517.846 192.472C518.338 192.202 518.717 191.83 518.982 191.357C519.247 190.883 519.38 190.343 519.38 189.737V180.455Z" fill="url(#paint2_linear_408_1334)"/>
<path d="M532.784 184.453C532.717 183.833 532.438 183.35 531.946 183.004C531.458 182.659 530.824 182.486 530.042 182.486C529.493 182.486 529.022 182.569 528.629 182.735C528.236 182.9 527.935 183.125 527.727 183.409C527.519 183.693 527.412 184.018 527.407 184.382C527.407 184.685 527.476 184.948 527.613 185.171C527.755 185.393 527.947 185.583 528.189 185.739C528.43 185.89 528.698 186.018 528.991 186.122C529.285 186.227 529.581 186.314 529.879 186.385L531.243 186.726C531.792 186.854 532.32 187.027 532.826 187.244C533.338 187.462 533.795 187.737 534.197 188.068C534.604 188.4 534.926 188.8 535.163 189.269C535.4 189.737 535.518 190.287 535.518 190.916C535.518 191.769 535.3 192.519 534.865 193.168C534.429 193.812 533.799 194.316 532.976 194.681C532.156 195.04 531.164 195.22 530 195.22C528.868 195.22 527.886 195.045 527.052 194.695C526.224 194.344 525.575 193.833 525.106 193.161C524.642 192.488 524.391 191.669 524.353 190.703H526.946C526.984 191.21 527.14 191.631 527.414 191.968C527.689 192.304 528.047 192.555 528.487 192.72C528.932 192.886 529.429 192.969 529.978 192.969C530.551 192.969 531.053 192.884 531.484 192.713C531.92 192.538 532.261 192.297 532.507 191.989C532.753 191.676 532.878 191.312 532.883 190.895C532.878 190.516 532.767 190.204 532.549 189.958C532.332 189.707 532.026 189.498 531.633 189.333C531.245 189.162 530.79 189.011 530.27 188.878L528.615 188.452C527.417 188.144 526.47 187.678 525.774 187.053C525.083 186.423 524.737 185.587 524.737 184.546C524.737 183.689 524.969 182.938 525.433 182.294C525.902 181.65 526.539 181.151 527.343 180.796C528.148 180.436 529.06 180.256 530.078 180.256C531.11 180.256 532.014 180.436 532.791 180.796C533.572 181.151 534.185 181.646 534.63 182.28C535.075 182.91 535.305 183.634 535.319 184.453H532.784Z" fill="url(#paint3_linear_408_1334)"/>
<path d="M537.228 182.664V180.455H548.833V182.664H544.337V195H541.724V182.664H537.228Z" fill="url(#paint4_linear_408_1334)"/>
<path d="M551.07 195V180.455H553.705V192.791H560.112V195H551.07Z" fill="url(#paint5_linear_408_1334)"/>
<path d="M562.398 195V180.455H571.859V182.664H565.033V186.612H571.369V188.821H565.033V192.791H571.916V195H562.398Z" fill="url(#paint6_linear_408_1334)"/>
<path d="M582.452 184.453C582.385 183.833 582.106 183.35 581.614 183.004C581.126 182.659 580.492 182.486 579.71 182.486C579.161 182.486 578.69 182.569 578.297 182.735C577.904 182.9 577.603 183.125 577.395 183.409C577.187 183.693 577.08 184.018 577.075 184.382C577.075 184.685 577.144 184.948 577.281 185.171C577.423 185.393 577.615 185.583 577.857 185.739C578.098 185.89 578.366 186.018 578.659 186.122C578.953 186.227 579.249 186.314 579.547 186.385L580.911 186.726C581.46 186.854 581.988 187.027 582.494 187.244C583.006 187.462 583.463 187.737 583.865 188.068C584.272 188.4 584.594 188.8 584.831 189.269C585.068 189.737 585.186 190.287 585.186 190.916C585.186 191.769 584.968 192.519 584.533 193.168C584.097 193.812 583.467 194.316 582.644 194.681C581.824 195.04 580.832 195.22 579.668 195.22C578.536 195.22 577.554 195.045 576.72 194.695C575.892 194.344 575.243 193.833 574.774 193.161C574.31 192.488 574.059 191.669 574.021 190.703H576.614C576.652 191.21 576.808 191.631 577.082 191.968C577.357 192.304 577.715 192.555 578.155 192.72C578.6 192.886 579.097 192.969 579.646 192.969C580.219 192.969 580.721 192.884 581.152 192.713C581.588 192.538 581.929 192.297 582.175 191.989C582.421 191.676 582.546 191.312 582.551 190.895C582.546 190.516 582.435 190.204 582.217 189.958C582 189.707 581.694 189.498 581.301 189.333C580.913 189.162 580.458 189.011 579.938 188.878L578.283 188.452C577.085 188.144 576.138 187.678 575.442 187.053C574.751 186.423 574.405 185.587 574.405 184.546C574.405 183.689 574.637 182.938 575.101 182.294C575.57 181.65 576.206 181.151 577.011 180.796C577.816 180.436 578.728 180.256 579.746 180.256C580.778 180.256 581.682 180.436 582.459 180.796C583.24 181.151 583.853 181.646 584.298 182.28C584.743 182.91 584.973 183.634 584.987 184.453H582.452Z" fill="url(#paint7_linear_408_1334)"/>
<path d="M595.44 184.453C595.374 183.833 595.094 183.35 594.602 183.004C594.114 182.659 593.48 182.486 592.699 182.486C592.149 182.486 591.678 182.569 591.285 182.735C590.892 182.9 590.592 183.125 590.383 183.409C590.175 183.693 590.068 184.018 590.064 184.382C590.064 184.685 590.132 184.948 590.27 185.171C590.412 185.393 590.603 185.583 590.845 185.739C591.086 185.89 591.354 186.018 591.647 186.122C591.941 186.227 592.237 186.314 592.535 186.385L593.899 186.726C594.448 186.854 594.976 187.027 595.483 187.244C595.994 187.462 596.451 187.737 596.853 188.068C597.261 188.4 597.583 188.8 597.819 189.269C598.056 189.737 598.174 190.287 598.174 190.916C598.174 191.769 597.957 192.519 597.521 193.168C597.085 193.812 596.456 194.316 595.632 194.681C594.813 195.04 593.821 195.22 592.656 195.22C591.524 195.22 590.542 195.045 589.708 194.695C588.88 194.344 588.231 193.833 587.762 193.161C587.298 192.488 587.048 191.669 587.01 190.703H589.602C589.64 191.21 589.796 191.631 590.071 191.968C590.345 192.304 590.703 192.555 591.143 192.72C591.588 192.886 592.085 192.969 592.635 192.969C593.208 192.969 593.709 192.884 594.14 192.713C594.576 192.538 594.917 192.297 595.163 191.989C595.409 191.676 595.535 191.312 595.539 190.895C595.535 190.516 595.423 190.204 595.206 189.958C594.988 189.707 594.682 189.498 594.289 189.333C593.901 189.162 593.447 189.011 592.926 188.878L591.271 188.452C590.073 188.144 589.126 187.678 588.43 187.053C587.739 186.423 587.393 185.587 587.393 184.546C587.393 183.689 587.625 182.938 588.089 182.294C588.558 181.65 589.195 181.151 590 180.796C590.805 180.436 591.716 180.256 592.734 180.256C593.766 180.256 594.671 180.436 595.447 180.796C596.228 181.151 596.842 181.646 597.287 182.28C597.732 182.91 597.961 183.634 597.976 184.453H595.44Z" fill="url(#paint8_linear_408_1334)"/>
<path d="M618.482 187.727C618.482 189.295 618.188 190.637 617.601 191.754C617.019 192.867 616.223 193.719 615.215 194.311C614.211 194.903 613.072 195.199 611.798 195.199C610.525 195.199 609.384 194.903 608.375 194.311C607.371 193.715 606.576 192.86 605.989 191.747C605.406 190.63 605.115 189.29 605.115 187.727C605.115 186.16 605.406 184.82 605.989 183.708C606.576 182.59 607.371 181.736 608.375 181.144C609.384 180.552 610.525 180.256 611.798 180.256C613.072 180.256 614.211 180.552 615.215 181.144C616.223 181.736 617.019 182.59 617.601 183.708C618.188 184.82 618.482 186.16 618.482 187.727ZM615.832 187.727C615.832 186.624 615.66 185.694 615.314 184.936C614.973 184.174 614.5 183.599 613.894 183.21C613.287 182.817 612.589 182.621 611.798 182.621C611.008 182.621 610.309 182.817 609.703 183.21C609.097 183.599 608.621 184.174 608.276 184.936C607.935 185.694 607.764 186.624 607.764 187.727C607.764 188.831 607.935 189.763 608.276 190.526C608.621 191.283 609.097 191.859 609.703 192.252C610.309 192.64 611.008 192.834 611.798 192.834C612.589 192.834 613.287 192.64 613.894 192.252C614.5 191.859 614.973 191.283 615.314 190.526C615.66 189.763 615.832 188.831 615.832 187.727Z" fill="url(#paint9_linear_408_1334)"/>
<path d="M620.973 195V180.455H626.427C627.545 180.455 628.482 180.649 629.24 181.037C630.002 181.425 630.577 181.97 630.966 182.671C631.359 183.367 631.555 184.179 631.555 185.107C631.555 186.039 631.356 186.849 630.958 187.536C630.566 188.218 629.985 188.745 629.218 189.119C628.451 189.489 627.509 189.673 626.392 189.673H622.507V187.486H626.037C626.69 187.486 627.225 187.396 627.642 187.216C628.058 187.031 628.366 186.764 628.565 186.414C628.769 186.058 628.87 185.623 628.87 185.107C628.87 184.591 628.769 184.15 628.565 183.786C628.361 183.416 628.051 183.137 627.635 182.948C627.218 182.753 626.681 182.656 626.022 182.656H623.608V195H620.973ZM628.487 188.409L632.088 195H629.147L625.61 188.409H628.487Z" fill="url(#paint10_linear_408_1334)"/>
<path d="M635.848 195H633.036L638.157 180.455H641.409L646.537 195H643.725L639.84 183.438H639.726L635.848 195ZM635.941 189.297H643.611V191.414H635.941V189.297Z" fill="url(#paint11_linear_408_1334)"/>
<path d="M660.22 185.362H657.564C657.488 184.927 657.348 184.541 657.145 184.205C656.941 183.864 656.688 183.575 656.385 183.338C656.082 183.102 655.736 182.924 655.348 182.806C654.964 182.682 654.55 182.621 654.105 182.621C653.314 182.621 652.613 182.82 652.003 183.218C651.392 183.61 650.914 184.188 650.568 184.95C650.222 185.708 650.049 186.634 650.049 187.727C650.049 188.84 650.222 189.778 650.568 190.54C650.918 191.298 651.396 191.87 652.003 192.259C652.613 192.642 653.312 192.834 654.098 192.834C654.533 192.834 654.941 192.777 655.319 192.664C655.703 192.545 656.046 192.372 656.349 192.145C656.657 191.918 656.915 191.638 657.123 191.307C657.336 190.976 657.483 190.597 657.564 190.171L660.22 190.185C660.12 190.876 659.905 191.525 659.574 192.131C659.247 192.737 658.818 193.272 658.288 193.736C657.758 194.195 657.137 194.555 656.427 194.816C655.717 195.071 654.929 195.199 654.062 195.199C652.784 195.199 651.643 194.903 650.639 194.311C649.635 193.719 648.844 192.865 648.267 191.747C647.689 190.63 647.4 189.29 647.4 187.727C647.4 186.16 647.691 184.82 648.274 183.708C648.856 182.59 649.649 181.736 650.653 181.144C651.657 180.552 652.793 180.256 654.062 180.256C654.872 180.256 655.625 180.369 656.321 180.597C657.017 180.824 657.637 181.158 658.182 181.598C658.726 182.034 659.173 182.569 659.524 183.203C659.879 183.833 660.111 184.553 660.22 185.362Z" fill="url(#paint12_linear_408_1334)"/>
<path d="M662.633 195V180.455H665.268V192.791H671.674V195H662.633Z" fill="url(#paint13_linear_408_1334)"/>
<path d="M673.961 195V180.455H683.421V182.664H676.596V186.612H682.931V188.821H676.596V192.791H683.478V195H673.961Z" fill="url(#paint14_linear_408_1334)"/>
<path d="M306.753 75.1011C306.753 75.1011 312.465 93.0224 312.465 96.1964C312.465 98.3824 311.203 100.228 309.406 101.198C310.885 101.678 312.185 102.521 313.201 103.65C315.47 101.673 318.812 99.8364 323.609 99.8364C329.095 99.8364 333.81 102.235 337.971 104.353C339.296 105.026 340.582 105.671 341.771 106.175C342.658 105.235 343.895 104.634 345.282 104.634C347.97 104.634 350.147 106.824 350.147 109.528C350.147 112.233 347.97 114.423 345.282 114.423C343.101 114.423 341.323 112.955 340.707 110.963C339.113 110.352 337.48 109.528 335.799 108.675C332.12 106.805 327.944 104.682 323.609 104.682C319.443 104.682 316.843 106.626 315.359 108.268C315.417 108.685 315.484 109.097 315.484 109.528C315.484 114.379 311.574 118.315 306.753 118.315C301.931 118.315 298.021 114.379 298.021 109.528C298.021 109.097 298.088 108.68 298.146 108.264C296.658 106.616 294.057 104.682 289.896 104.682C285.561 104.682 281.385 106.81 277.701 108.68C276.025 109.533 274.392 110.357 272.798 110.968C272.182 112.96 270.404 114.428 268.223 114.428C265.535 114.428 263.358 112.233 263.358 109.528C263.358 106.824 265.535 104.634 268.223 104.634C269.61 104.634 270.848 105.239 271.734 106.175C272.923 105.676 274.204 105.031 275.529 104.353C279.69 102.235 284.41 99.8364 289.896 99.8364C294.693 99.8364 298.035 101.673 300.304 103.65C301.32 102.521 302.62 101.673 304.099 101.198C302.302 100.228 301.04 98.3874 301.04 96.1964C301.04 93.0224 306.753 75.1011 306.753 75.1011Z" fill="url(#paint15_linear_408_1334)"/>
<path d="M375.021 69.1315C375.021 69.1315 369.095 69.6408 365.17 71.7621C365.17 71.7621 380.784 71.6778 388.051 77.7826C388.051 77.7826 370.378 72.3526 349.78 85.8371C349.78 85.8371 382.541 79.5604 398.072 92.8764C398.072 92.8764 393.06 83.6001 382.519 81.6036C382.519 81.6036 394.512 81.1256 398.619 83.1221C398.619 83.1221 395.072 75.4801 391.051 73.6586V68.211C391.051 67.1079 385.045 61.4979 375.021 60.5513V69.1315Z" fill="url(#paint16_linear_408_1334)"/>
<path d="M372.356 93.4912C372.356 93.4912 374.883 95.6952 375.953 97.7322C375.953 97.7322 373.643 100.015 371.435 101.139C371.435 101.139 378.124 103.246 379.885 105.737C376.319 104.616 370.229 105.036 368.762 108.065C372.834 107.626 375.327 108.677 375.851 110.237C375.851 110.237 374.883 111.632 371.919 112.252C368.762 112.912 367.956 114.225 367.956 116.057C367.956 117.89 370.353 119.566 374.707 119.43C379.054 119.291 390.912 117.497 391.808 95.0642C390.912 92.9542 380.08 88.6469 372.328 88.6942L372.356 93.4912Z" fill="white"/>
<path d="M395.537 118.317C400.86 110.034 403.773 102.816 404.275 96.6641C412.155 105.421 411.681 115.674 410.342 123.521C409.439 120.996 408.274 118.399 406.848 115.729C407.79 127.827 404.209 134.377 396.103 135.379C395.155 129.791 394.966 124.103 395.537 118.317Z" fill="white"/>
<path d="M297.18 43.1807C295.701 45.4559 293.532 51.7822 290.675 62.1593C284.254 69.5068 277.974 79.5908 271.833 92.4114C268.801 93.3539 265.584 94.6849 262.183 96.4039C270.905 80.3671 279.439 68.2613 287.783 60.0849C289.711 53.6769 292.843 48.0421 297.18 43.1807V43.1807Z" fill="white"/>
<path d="M314.762 61.0713L293.182 71.2528C299.331 71.3563 304.215 70.2383 307.833 67.8988C311.451 65.5594 313.761 63.2835 314.762 61.0713Z" fill="white"/>
<path d="M306.8 57.3573C306.678 52.9076 306.099 50.4065 305.062 49.8543C303.911 49.3396 303.24 48.2312 303.91 46.2071C304.323 44.9207 304.198 43.4885 303.536 41.9106L309.391 38L315.978 42.1528C316.209 43.6182 315.73 44.9696 314.542 46.2071C315.978 47.761 315.978 49.7665 314.314 52.0829C314.361 52.6567 314.393 53.2194 314.411 53.7708C314.438 54.6065 314.406 55.802 314.314 57.3573H306.8Z" fill="white"/>
<path d="M388.084 125.911C387.051 144.723 391.056 155.413 400.099 157.982C413.663 161.836 431.805 162.961 436.738 191.527C437.964 195.391 437.368 198.941 438.382 202.422C434.405 206.633 430.092 210.521 425.486 214.043C420.978 203.143 415.342 196.411 407.418 191.527C376.189 172.074 369.744 150.202 388.084 125.911Z" fill="white"/>
<path d="M309.464 185.778C332.566 217.327 351.993 200.526 372.215 210.142C381.461 214.539 386.504 222.611 387.346 234.357C379.462 236.193 371.249 237.162 362.809 237.162C346.443 237.162 330.926 233.519 317.021 226.997C316.97 214.639 314.451 200.899 309.464 185.778V185.778Z" fill="white"/>
<path d="M396.776 62.9473C403.372 73.4353 406.448 81.1931 406.005 86.2208C405.837 88.0376 405.038 90.0645 403.609 92.3017C408.628 91.8537 411.138 88.7672 411.138 83.0422C411.138 77.3172 406.351 70.6189 396.776 62.9473V62.9473Z" fill="white"/>
<path d="M339.459 74.767C343.701 73.5951 347.169 70.9488 349.861 66.8282C349.69 69.2815 349.075 71.3932 348.017 73.1634C360.277 70.9582 369.792 63.5295 376.562 50.8774C364.079 44.0901 351.211 48.7202 344.314 57.1639C339.716 62.793 338.098 68.6607 339.459 74.767Z" fill="white"/>
<path d="M272.979 117.25L287.62 156.295C291.784 157.012 294.347 157.99 294.347 159.069V159.089L294.34 159.068L294.364 159.162C294.452 159.614 294.438 160.105 294.322 160.637L294.347 160.638L294.268 160.859C294.154 161.286 293.977 161.737 293.737 162.213C289.856 171.386 281.279 177.857 270.725 177.857C260.333 177.857 251.46 171.584 247.443 162.636L247.679 163.054C247.203 162.238 246.88 161.494 246.709 160.823C246.688 160.763 246.666 160.701 246.644 160.638L246.665 160.637C246.565 160.176 246.54 159.751 246.59 159.361L246.644 159.069L246.655 158.947C246.847 157.875 249.57 156.91 253.86 156.213L268.471 117.25C269.174 115.36 272.271 115.36 272.979 117.25ZM350.213 117.245L364.852 156.281C368.817 156.957 371.35 157.869 371.633 158.879L371.593 158.797C371.825 159.242 371.892 159.756 371.795 160.338L371.734 160.633C371.65 160.963 371.521 161.308 371.344 161.672C367.564 171.133 358.718 177.852 347.959 177.852C337.314 177.852 328.262 171.269 324.392 161.972C324.163 161.52 323.982 161.087 323.889 160.68L323.88 160.637C323.88 160.637 323.879 160.635 323.878 160.633L323.879 160.632L323.849 160.447C323.811 160.118 323.832 159.721 323.91 159.256L323.969 158.943L323.964 158.97C323.966 158.952 323.97 158.934 323.974 158.916L323.979 158.895L323.982 158.896C324.247 157.852 326.915 156.912 331.085 156.227L345.705 117.245C346.408 115.355 349.505 115.355 350.213 117.245ZM270.725 124.97L259.255 155.553C262.604 155.253 266.431 155.083 270.495 155.083L271.225 155.085C275.209 155.105 278.948 155.288 282.209 155.596L270.725 124.97ZM347.959 124.97L336.486 155.56C339.854 155.256 343.711 155.083 347.808 155.083L348.537 155.085C352.489 155.105 356.2 155.285 359.443 155.589L347.959 124.97Z" fill="url(#paint17_linear_408_1334)"/>
<g clip-path="url(#clip0_408_1334)">
<path d="M270.565 172.827C282.163 172.827 291.565 163.425 291.565 151.827C291.565 140.229 282.163 130.827 270.565 130.827C258.967 130.827 249.565 140.229 249.565 151.827C249.565 163.425 258.967 172.827 270.565 172.827Z" fill="url(#paint18_linear_408_1334)"/>
<path fill-rule="evenodd" clip-rule="evenodd" d="M274.416 153.924C274.417 153.923 274.418 153.923 274.42 153.922C274.42 153.922 274.42 153.922 274.42 153.922C274.421 153.921 274.421 153.921 274.421 153.921C274.419 153.922 274.417 153.923 274.416 153.924Z" fill="#2B2C2A"/>
<path fill-rule="evenodd" clip-rule="evenodd" d="M274.423 153.92C274.423 153.92 274.423 153.92 274.423 153.92C274.427 153.917 274.429 153.916 274.43 153.916C274.43 153.916 274.43 153.916 274.43 153.916C274.427 153.917 274.425 153.919 274.423 153.92Z" fill="#2B2C2A"/>
</g>
<g clip-path="url(#clip1_408_1334)">
<path fill-rule="evenodd" clip-rule="evenodd" d="M347.565 172.827C359.163 172.827 368.565 163.425 368.565 151.827C368.565 140.229 359.163 130.827 347.565 130.827C335.967 130.827 326.565 140.229 326.565 151.827C326.565 163.425 335.967 172.827 347.565 172.827Z" fill="url(#paint19_linear_408_1334)"/>
</g>
<path fill-rule="evenodd" clip-rule="evenodd" d="M347.623 162.002C342.037 159.218 339.24 155.393 339.233 150.527C339.231 149.593 339.231 148.062 339.233 145.933L347.623 142.899V162.002Z" fill="white"/>
<path fill-rule="evenodd" clip-rule="evenodd" d="M347.62 156.135V152.348L354.518 145.416L355.935 145.933L355.936 147.778L347.62 156.135ZM347.62 159.511L355.918 151.173C355.675 155.733 352.909 159.343 347.62 162.002V159.511ZM347.62 148.972V142.899L352.053 144.517L347.62 148.971V148.972Z" fill="url(#paint20_linear_408_1334)"/>
<path d="M261.485 145.811C261.521 145.847 261.584 145.88 261.588 145.921C261.632 146.311 261.875 146.573 262.17 146.782C264.879 148.707 267.588 150.631 270.307 152.541C270.963 153.003 271.484 152.976 272.132 152.518C273.612 151.473 275.092 150.425 276.569 149.375C277.407 148.78 278.018 148.006 278.337 147.025C278.448 146.683 278.492 146.319 278.538 146.095C278.538 146.949 278.601 147.94 278.522 148.918C278.425 150.125 277.82 151.12 276.853 151.836C275.243 153.029 273.601 154.181 271.959 155.329C271.424 155.703 270.859 155.605 270.335 155.263C269.799 154.913 269.266 154.556 268.745 154.184C266.582 152.645 264.425 151.098 262.264 149.555C261.894 149.291 261.601 148.979 261.536 148.507C261.537 147.739 261.54 146.972 261.538 146.205C261.538 146.147 261.504 146.088 261.485 146.03C261.485 145.957 261.485 145.884 261.485 145.811Z" fill="#2B2C2A"/>
<path d="M261.486 152.013C261.52 152.036 261.581 152.056 261.584 152.082C261.631 152.517 261.922 152.78 262.245 153.016C263.486 153.923 264.721 154.839 265.976 155.728C267.366 156.711 268.774 157.669 270.176 158.634C270.979 159.187 271.425 159.189 272.227 158.626C273.65 157.626 275.065 156.614 276.487 155.613C277.334 155.017 277.977 154.26 278.31 153.272C278.434 152.906 278.484 152.515 278.617 152.134C278.58 153.196 278.612 154.267 278.489 155.319C278.356 156.447 277.738 157.367 276.829 158.037C275.232 159.216 273.604 160.355 271.979 161.497C271.409 161.897 270.829 161.778 270.286 161.415C269.578 160.942 268.872 160.465 268.179 159.971C266.182 158.547 264.192 157.114 262.199 155.684C261.842 155.429 261.588 155.108 261.532 154.658C261.535 153.88 261.538 153.103 261.537 152.326C261.537 152.276 261.504 152.227 261.485 152.178C261.486 152.123 261.486 152.068 261.486 152.013Z" fill="#2B2C2A"/>
<path d="M265.485 145.601C265.532 145.549 265.556 145.508 265.591 145.483C266.453 144.879 267.299 144.251 268.183 143.682C269.098 143.092 270.108 142.745 271.213 142.747C272.243 142.749 273.177 143.076 274.024 143.642C274.434 143.916 274.83 144.218 275.194 144.55C275.781 145.086 275.842 146.041 275.374 146.683C275.27 146.826 275.161 146.835 275.024 146.744C274.834 146.617 274.645 146.487 274.451 146.365C272.496 145.134 270.541 145.148 268.586 146.367C268.276 146.561 267.968 146.76 267.652 146.943C267.588 146.98 267.467 146.995 267.413 146.959C266.803 146.554 266.2 146.137 265.597 145.722C265.561 145.697 265.536 145.657 265.485 145.601Z" fill="#2B2C2A"/>
<path opacity="0.2" d="M261.485 145.811C261.521 145.847 261.584 145.88 261.588 145.921C261.632 146.311 261.875 146.573 262.17 146.782C264.879 148.707 267.588 150.631 270.307 152.541C270.963 153.003 271.484 152.976 272.132 152.518C273.612 151.473 275.092 150.425 276.569 149.375C277.407 148.78 278.018 148.006 278.337 147.025C278.448 146.683 278.492 146.319 278.538 146.095C278.538 146.949 278.601 147.94 278.522 148.918C278.425 150.125 277.82 151.12 276.853 151.836C275.243 153.029 273.601 154.181 271.959 155.329C271.424 155.703 270.859 155.605 270.335 155.263C269.799 154.913 269.266 154.556 268.745 154.184C266.582 152.645 264.425 151.098 262.264 149.555C261.894 149.291 261.601 148.979 261.536 148.507C261.537 147.739 261.54 146.972 261.538 146.205C261.538 146.147 261.504 146.088 261.485 146.03C261.485 145.957 261.485 145.884 261.485 145.811Z" fill="white"/>
<path opacity="0.2" d="M261.486 152.013C261.52 152.036 261.581 152.056 261.584 152.082C261.631 152.517 261.922 152.78 262.245 153.016C263.486 153.923 264.721 154.839 265.976 155.728C267.366 156.711 268.774 157.669 270.176 158.634C270.979 159.187 271.425 159.189 272.227 158.626C273.65 157.626 275.065 156.614 276.487 155.613C277.334 155.017 277.977 154.26 278.31 153.272C278.434 152.906 278.484 152.515 278.617 152.134C278.58 153.196 278.612 154.267 278.489 155.319C278.356 156.447 277.738 157.367 276.829 158.037C275.232 159.216 273.604 160.355 271.979 161.497C271.409 161.897 270.829 161.778 270.286 161.415C269.578 160.942 268.872 160.465 268.179 159.971C266.182 158.547 264.192 157.114 262.199 155.684C261.842 155.429 261.588 155.108 261.532 154.658C261.535 153.88 261.538 153.103 261.537 152.326C261.537 152.276 261.504 152.227 261.485 152.178C261.486 152.123 261.486 152.068 261.486 152.013Z" fill="white"/>
<path opacity="0.5" d="M265.485 145.601C265.532 145.549 265.556 145.508 265.591 145.483C266.453 144.879 267.299 144.251 268.183 143.682C269.098 143.092 270.108 142.745 271.213 142.747C272.243 142.749 273.177 143.076 274.024 143.642C274.434 143.916 274.83 144.218 275.194 144.55C275.781 145.086 275.842 146.041 275.374 146.683C275.27 146.826 275.161 146.835 275.024 146.744C274.834 146.617 274.645 146.487 274.451 146.365C272.496 145.134 270.541 145.148 268.586 146.367C268.276 146.561 267.968 146.76 267.652 146.943C267.588 146.98 267.467 146.995 267.413 146.959C266.803 146.554 266.2 146.137 265.597 145.722C265.561 145.697 265.536 145.657 265.485 145.601Z" fill="white"/>
<path opacity="0.2" d="M261.485 145.811C261.521 145.847 261.584 145.88 261.588 145.921C261.632 146.311 261.875 146.573 262.17 146.782C264.879 148.707 267.588 150.631 270.307 152.541C270.963 153.003 271.484 152.976 272.132 152.518C273.612 151.473 275.092 150.425 276.569 149.375C277.407 148.78 278.018 148.006 278.337 147.025C278.448 146.683 278.492 146.319 278.538 146.095C278.538 146.949 278.601 147.94 278.522 148.918C278.425 150.125 277.82 151.12 276.853 151.836C275.243 153.029 273.601 154.181 271.959 155.329C271.424 155.703 270.859 155.605 270.335 155.263C269.799 154.913 269.266 154.556 268.745 154.184C266.582 152.645 264.425 151.098 262.264 149.555C261.894 149.291 261.601 148.979 261.536 148.507C261.537 147.739 261.54 146.972 261.538 146.205C261.538 146.147 261.504 146.088 261.485 146.03C261.485 145.957 261.485 145.884 261.485 145.811Z" fill="white"/>
<path opacity="0.2" d="M261.486 152.013C261.52 152.036 261.581 152.056 261.584 152.082C261.631 152.517 261.922 152.78 262.245 153.016C263.486 153.923 264.721 154.839 265.976 155.728C267.366 156.711 268.774 157.669 270.176 158.634C270.979 159.187 271.425 159.189 272.227 158.626C273.65 157.626 275.065 156.614 276.487 155.613C277.334 155.017 277.977 154.26 278.31 153.272C278.434 152.906 278.484 152.515 278.617 152.134C278.58 153.196 278.612 154.267 278.489 155.319C278.356 156.447 277.738 157.367 276.829 158.037C275.232 159.216 273.604 160.355 271.979 161.497C271.409 161.897 270.829 161.778 270.286 161.415C269.578 160.942 268.872 160.465 268.179 159.971C266.182 158.547 264.192 157.114 262.199 155.684C261.842 155.429 261.588 155.108 261.532 154.658C261.535 153.88 261.538 153.103 261.537 152.326C261.537 152.276 261.504 152.227 261.485 152.178C261.486 152.123 261.486 152.068 261.486 152.013Z" fill="white"/>
<path opacity="0.5" d="M265.485 145.601C265.532 145.549 265.556 145.508 265.591 145.483C266.453 144.879 267.299 144.251 268.183 143.682C269.098 143.092 270.108 142.745 271.213 142.747C272.243 142.749 273.177 143.076 274.024 143.642C274.434 143.916 274.83 144.218 275.194 144.55C275.781 145.086 275.842 146.041 275.374 146.683C275.27 146.826 275.161 146.835 275.024 146.744C274.834 146.617 274.645 146.487 274.451 146.365C272.496 145.134 270.541 145.148 268.586 146.367C268.276 146.561 267.968 146.76 267.652 146.943C267.588 146.98 267.467 146.995 267.413 146.959C266.803 146.554 266.2 146.137 265.597 145.722C265.561 145.697 265.536 145.657 265.485 145.601Z" fill="white"/>
<path d="M261.485 145.811C261.521 145.847 261.584 145.88 261.588 145.921C261.632 146.311 261.875 146.573 262.17 146.782C264.879 148.707 267.588 150.631 270.307 152.541C270.963 153.003 271.484 152.976 272.132 152.518C273.612 151.473 275.092 150.425 276.569 149.375C277.407 148.78 278.018 148.006 278.337 147.025C278.448 146.683 278.492 146.319 278.538 146.095C278.538 146.949 278.601 147.94 278.522 148.918C278.425 150.125 277.82 151.12 276.853 151.836C275.243 153.029 273.601 154.181 271.959 155.329C271.424 155.703 270.859 155.605 270.335 155.263C269.799 154.913 269.266 154.556 268.745 154.184C266.582 152.645 264.425 151.098 262.264 149.555C261.894 149.291 261.601 148.979 261.536 148.507C261.537 147.739 261.54 146.972 261.538 146.205C261.538 146.147 261.504 146.088 261.485 146.03C261.485 145.957 261.485 145.884 261.485 145.811Z" fill="url(#paint21_linear_408_1334)"/>
<path d="M261.486 152.013C261.52 152.036 261.581 152.056 261.584 152.082C261.631 152.517 261.922 152.78 262.245 153.016C263.486 153.923 264.721 154.839 265.976 155.728C267.366 156.711 268.774 157.669 270.176 158.634C270.979 159.187 271.425 159.189 272.227 158.626C273.65 157.626 275.065 156.614 276.487 155.613C277.334 155.017 277.977 154.26 278.31 153.272C278.434 152.906 278.484 152.515 278.617 152.134C278.58 153.196 278.612 154.267 278.489 155.319C278.356 156.447 277.738 157.367 276.829 158.037C275.232 159.216 273.604 160.355 271.979 161.497C271.409 161.897 270.829 161.778 270.286 161.415C269.578 160.942 268.872 160.465 268.179 159.971C266.182 158.547 264.192 157.114 262.199 155.684C261.842 155.429 261.588 155.108 261.532 154.658C261.535 153.88 261.538 153.103 261.537 152.326C261.537 152.276 261.504 152.227 261.485 152.178C261.486 152.123 261.486 152.068 261.486 152.013Z" fill="url(#paint22_linear_408_1334)"/>
<path d="M265.485 145.601C265.532 145.549 265.556 145.508 265.591 145.483C266.453 144.879 267.299 144.251 268.183 143.682C269.098 143.092 270.108 142.745 271.213 142.747C272.243 142.749 273.177 143.076 274.024 143.642C274.434 143.916 274.83 144.218 275.194 144.55C275.781 145.086 275.842 146.041 275.374 146.683C275.27 146.826 275.161 146.835 275.024 146.744C274.834 146.617 274.645 146.487 274.451 146.365C272.496 145.134 270.541 145.148 268.586 146.367C268.276 146.561 267.968 146.76 267.652 146.943C267.588 146.98 267.467 146.995 267.413 146.959C266.803 146.554 266.2 146.137 265.597 145.722C265.561 145.697 265.536 145.657 265.485 145.601Z" fill="url(#paint23_linear_408_1334)"/>
<path d="M261.485 145.811C261.521 145.847 261.584 145.88 261.588 145.921C261.632 146.311 261.875 146.573 262.17 146.782C264.879 148.707 267.588 150.631 270.307 152.541C270.963 153.003 271.484 152.976 272.132 152.518C273.612 151.473 275.092 150.425 276.569 149.375C277.407 148.78 278.018 148.006 278.337 147.025C278.448 146.683 278.492 146.319 278.538 146.095C278.538 146.949 278.601 147.94 278.522 148.918C278.425 150.125 277.82 151.12 276.853 151.836C275.243 153.029 273.601 154.181 271.959 155.329C271.424 155.703 270.859 155.605 270.335 155.263C269.799 154.913 269.266 154.556 268.745 154.184C266.582 152.645 264.425 151.098 262.264 149.555C261.894 149.291 261.601 148.979 261.536 148.507C261.537 147.739 261.54 146.972 261.538 146.205C261.538 146.147 261.504 146.088 261.485 146.03C261.485 145.957 261.485 145.884 261.485 145.811Z" fill="url(#paint24_linear_408_1334)"/>
<path d="M261.486 152.013C261.52 152.036 261.581 152.056 261.584 152.082C261.631 152.517 261.922 152.78 262.245 153.016C263.486 153.923 264.721 154.839 265.976 155.728C267.366 156.711 268.774 157.669 270.176 158.634C270.979 159.187 271.425 159.189 272.227 158.626C273.65 157.626 275.065 156.614 276.487 155.613C277.334 155.017 277.977 154.26 278.31 153.272C278.434 152.906 278.484 152.515 278.617 152.134C278.58 153.196 278.612 154.267 278.489 155.319C278.356 156.447 277.738 157.367 276.829 158.037C275.232 159.216 273.604 160.355 271.979 161.497C271.409 161.897 270.829 161.778 270.286 161.415C269.578 160.942 268.872 160.465 268.179 159.971C266.182 158.547 264.192 157.114 262.199 155.684C261.842 155.429 261.588 155.108 261.532 154.658C261.535 153.88 261.538 153.103 261.537 152.326C261.537 152.276 261.504 152.227 261.485 152.178C261.486 152.123 261.486 152.068 261.486 152.013Z" fill="url(#paint25_linear_408_1334)"/>
<path d="M265.485 145.601C265.532 145.549 265.556 145.508 265.591 145.483C266.453 144.879 267.299 144.251 268.183 143.682C269.098 143.092 270.108 142.745 271.213 142.747C272.243 142.749 273.177 143.076 274.024 143.642C274.434 143.916 274.83 144.218 275.194 144.55C275.781 145.086 275.842 146.041 275.374 146.683C275.27 146.826 275.161 146.835 275.024 146.744C274.834 146.617 274.645 146.487 274.451 146.365C272.496 145.134 270.541 145.148 268.586 146.367C268.276 146.561 267.968 146.76 267.652 146.943C267.588 146.98 267.467 146.995 267.413 146.959C266.803 146.554 266.2 146.137 265.597 145.722C265.561 145.697 265.536 145.657 265.485 145.601Z" fill="url(#paint26_linear_408_1334)"/>
<path d="M283.063 155.025L288.602 155.746C292.865 156.486 295.49 157.496 295.49 158.609V158.623C295.599 159.111 295.59 159.646 295.464 160.228L295.49 160.229L295.406 160.466C295.291 160.901 295.112 161.36 294.87 161.845C290.898 171.317 282.113 178 271.303 178C260.651 178 251.557 171.512 247.451 162.261C247.099 161.595 246.853 160.979 246.711 160.413C246.689 160.353 246.667 160.291 246.646 160.229L246.667 160.228C246.556 159.709 246.536 159.234 246.607 158.803L246.646 158.609L246.65 158.53C246.776 157.405 249.581 156.391 254.036 155.661C256.462 154.805 283.063 155.025 283.063 155.025Z" fill="url(#paint27_linear_408_1334)"/>
<path d="M360.063 155.025L365.602 155.746C369.865 156.486 372.49 157.496 372.49 158.609V158.623C372.599 159.111 372.59 159.646 372.464 160.228L372.49 160.229L372.406 160.466C372.291 160.901 372.112 161.36 371.87 161.845C367.898 171.317 359.113 178 348.303 178C337.651 178 328.557 171.512 324.451 162.261C324.099 161.595 323.853 160.979 323.711 160.413C323.689 160.353 323.667 160.291 323.646 160.229L323.667 160.228C323.556 159.709 323.536 159.234 323.607 158.803L323.646 158.609L323.65 158.53C323.776 157.405 326.581 156.391 331.036 155.661C333.462 154.805 360.063 155.025 360.063 155.025Z" fill="url(#paint28_linear_408_1334)"/>
<defs>
<linearGradient id="paint0_linear_408_1334" x1="667.065" y1="176" x2="662.765" y2="204.072" gradientUnits="userSpaceOnUse">
<stop stop-color="#F0923B"/>
<stop offset="1" stop-color="#FE8A8A"/>
</linearGradient>
<linearGradient id="paint1_linear_408_1334" x1="667.065" y1="176" x2="662.765" y2="204.072" gradientUnits="userSpaceOnUse">
<stop stop-color="#F0923B"/>
<stop offset="1" stop-color="#FE8A8A"/>
</linearGradient>
<linearGradient id="paint2_linear_408_1334" x1="667.065" y1="176" x2="662.765" y2="204.072" gradientUnits="userSpaceOnUse">
<stop stop-color="#F0923B"/>
<stop offset="1" stop-color="#FE8A8A"/>
</linearGradient>
<linearGradient id="paint3_linear_408_1334" x1="667.065" y1="176" x2="662.765" y2="204.072" gradientUnits="userSpaceOnUse">
<stop stop-color="#F0923B"/>
<stop offset="1" stop-color="#FE8A8A"/>
</linearGradient>
<linearGradient id="paint4_linear_408_1334" x1="667.065" y1="176" x2="662.765" y2="204.072" gradientUnits="userSpaceOnUse">
<stop stop-color="#F0923B"/>
<stop offset="1" stop-color="#FE8A8A"/>
</linearGradient>
<linearGradient id="paint5_linear_408_1334" x1="667.065" y1="176" x2="662.765" y2="204.072" gradientUnits="userSpaceOnUse">
<stop stop-color="#F0923B"/>
<stop offset="1" stop-color="#FE8A8A"/>
</linearGradient>
<linearGradient id="paint6_linear_408_1334" x1="667.065" y1="176" x2="662.765" y2="204.072" gradientUnits="userSpaceOnUse">
<stop stop-color="#F0923B"/>
<stop offset="1" stop-color="#FE8A8A"/>
</linearGradient>
<linearGradient id="paint7_linear_408_1334" x1="667.065" y1="176" x2="662.765" y2="204.072" gradientUnits="userSpaceOnUse">
<stop stop-color="#F0923B"/>
<stop offset="1" stop-color="#FE8A8A"/>
</linearGradient>
<linearGradient id="paint8_linear_408_1334" x1="667.065" y1="176" x2="662.765" y2="204.072" gradientUnits="userSpaceOnUse">
<stop stop-color="#F0923B"/>
<stop offset="1" stop-color="#FE8A8A"/>
</linearGradient>
<linearGradient id="paint9_linear_408_1334" x1="667.065" y1="176" x2="662.765" y2="204.072" gradientUnits="userSpaceOnUse">
<stop stop-color="#F0923B"/>
<stop offset="1" stop-color="#FE8A8A"/>
</linearGradient>
<linearGradient id="paint10_linear_408_1334" x1="667.065" y1="176" x2="662.765" y2="204.072" gradientUnits="userSpaceOnUse">
<stop stop-color="#F0923B"/>
<stop offset="1" stop-color="#FE8A8A"/>
</linearGradient>
<linearGradient id="paint11_linear_408_1334" x1="667.065" y1="176" x2="662.765" y2="204.072" gradientUnits="userSpaceOnUse">
<stop stop-color="#F0923B"/>
<stop offset="1" stop-color="#FE8A8A"/>
</linearGradient>
<linearGradient id="paint12_linear_408_1334" x1="667.065" y1="176" x2="662.765" y2="204.072" gradientUnits="userSpaceOnUse">
<stop stop-color="#F0923B"/>
<stop offset="1" stop-color="#FE8A8A"/>
</linearGradient>
<linearGradient id="paint13_linear_408_1334" x1="667.065" y1="176" x2="662.765" y2="204.072" gradientUnits="userSpaceOnUse">
<stop stop-color="#F0923B"/>
<stop offset="1" stop-color="#FE8A8A"/>
</linearGradient>
<linearGradient id="paint14_linear_408_1334" x1="667.065" y1="176" x2="662.765" y2="204.072" gradientUnits="userSpaceOnUse">
<stop stop-color="#F0923B"/>
<stop offset="1" stop-color="#FE8A8A"/>
</linearGradient>
<linearGradient id="paint15_linear_408_1334" x1="243.637" y1="165.744" x2="359.922" y2="72.0886" gradientUnits="userSpaceOnUse">
<stop stop-color="#FFC58F"/>
<stop offset="1" stop-color="#FF7C7C"/>
</linearGradient>
<linearGradient id="paint16_linear_408_1334" x1="349.78" y1="83.7675" x2="392.685" y2="56.7115" gradientUnits="userSpaceOnUse">
<stop stop-color="#FFC58F"/>
<stop offset="1" stop-color="#FF7C7C"/>
</linearGradient>
<linearGradient id="paint17_linear_408_1334" x1="246.565" y1="162.604" x2="246.565" y2="88.9605" gradientUnits="userSpaceOnUse">
<stop offset="0.592841" stop-color="#FFDFDB" stop-opacity="0.54"/>
<stop offset="1" stop-color="#FF7C7C"/>
</linearGradient>
<linearGradient id="paint18_linear_408_1334" x1="314.534" y1="111.927" x2="247.902" y2="162.401" gradientUnits="userSpaceOnUse">
<stop stop-color="#F0923B"/>
<stop offset="1" stop-color="#FF8888"/>
</linearGradient>
<linearGradient id="paint19_linear_408_1334" x1="339.59" y1="189.832" x2="380.783" y2="157.29" gradientUnits="userSpaceOnUse">
<stop stop-color="#FFAC5F"/>
<stop offset="0.729167" stop-color="#FF937C"/>
<stop offset="1" stop-color="#FF8888"/>
</linearGradient>
<linearGradient id="paint20_linear_408_1334" x1="342.949" y1="152.713" x2="357.054" y2="158.69" gradientUnits="userSpaceOnUse">
<stop stop-color="white" stop-opacity="0.6"/>
<stop offset="1" stop-color="white" stop-opacity="0.215"/>
</linearGradient>
<linearGradient id="paint21_linear_408_1334" x1="276.935" y1="147.679" x2="269.778" y2="158.96" gradientUnits="userSpaceOnUse">
<stop stop-color="#333333"/>
<stop offset="1" stop-color="#333333"/>
</linearGradient>
<linearGradient id="paint22_linear_408_1334" x1="276.985" y1="153.877" x2="269.863" y2="165.167" gradientUnits="userSpaceOnUse">
<stop stop-color="#333333"/>
<stop offset="1" stop-color="#333333"/>
</linearGradient>
<linearGradient id="paint23_linear_408_1334" x1="274.713" y1="143.558" x2="272.105" y2="149.219" gradientUnits="userSpaceOnUse">
<stop stop-color="#333333"/>
<stop offset="1" stop-color="#333333"/>
</linearGradient>
<linearGradient id="paint24_linear_408_1334" x1="276.935" y1="147.679" x2="269.778" y2="158.96" gradientUnits="userSpaceOnUse">
<stop stop-color="#FFF0F0"/>
<stop offset="1" stop-color="#FEEFE2"/>
</linearGradient>
<linearGradient id="paint25_linear_408_1334" x1="276.985" y1="153.877" x2="269.863" y2="165.167" gradientUnits="userSpaceOnUse">
<stop stop-color="#FFF0F0"/>
<stop offset="1" stop-color="#FEEFE2"/>
</linearGradient>
<linearGradient id="paint26_linear_408_1334" x1="274.713" y1="143.558" x2="272.105" y2="149.219" gradientUnits="userSpaceOnUse">
<stop stop-color="#FFE8E8"/>
<stop offset="1" stop-color="#FFE7D2"/>
</linearGradient>
<linearGradient id="paint27_linear_408_1334" x1="351.628" y1="86.9662" x2="141.884" y2="218.356" gradientUnits="userSpaceOnUse">
<stop stop-color="#3D3D3D" stop-opacity="0.42"/>
<stop offset="1" stop-color="#272727"/>
</linearGradient>
<linearGradient id="paint28_linear_408_1334" x1="428.628" y1="86.9662" x2="218.884" y2="218.356" gradientUnits="userSpaceOnUse">
<stop stop-color="#3D3D3D" stop-opacity="0.42"/>
<stop offset="1" stop-color="#272727"/>
</linearGradient>
<clipPath id="clip0_408_1334">
<rect width="42" height="42" fill="white" transform="translate(249.565 130.827)"/>
</clipPath>
<clipPath id="clip1_408_1334">
<rect width="42" height="42" fill="white" transform="translate(326.565 130.827)"/>
</clipPath>
</defs>
</svg>
