<svg width="50" height="56" viewBox="0 0 50 56" fill="none" xmlns="http://www.w3.org/2000/svg">
<g clip-path="url(#clip0_406_1539)">
<path fill-rule="evenodd" clip-rule="evenodd" d="M25 53C38.8071 53 50 41.8071 50 28C50 14.1929 38.8071 3 25 3C11.1929 3 0 14.1929 0 28C0 41.8071 11.1929 53 25 53Z" fill="url(#paint0_linear_406_1539)"/>
</g>
<path fill-rule="evenodd" clip-rule="evenodd" d="M25.7193 41.7621C18.23 38.0305 14.4804 32.9027 14.4708 26.3787C14.4684 25.1263 14.4684 23.0734 14.4708 20.2195L25.7193 16.1523V41.7621Z" fill="white"/>
<path fill-rule="evenodd" clip-rule="evenodd" d="M24.4555 33.8968V28.8196L33.7027 19.5264L35.6029 20.2195L35.6046 22.6924L24.4555 33.8968ZM24.4555 38.4232L35.58 27.2446C35.2542 33.3582 31.5464 38.1975 24.4555 41.7621V38.4232ZM24.4555 24.2931V16.1523L30.3978 18.3212L24.4555 24.2922V24.2931Z" fill="url(#paint1_linear_406_1539)"/>
<defs>
<linearGradient id="paint0_linear_406_1539" x1="15.5051" y1="73.2444" x2="64.5443" y2="34.5031" gradientUnits="userSpaceOnUse">
<stop stop-color="#2E2823" stop-opacity="0.17"/>
<stop offset="1" stop-color="#391818"/>
</linearGradient>
<linearGradient id="paint1_linear_406_1539" x1="18.1931" y1="29.3085" x2="37.1035" y2="37.3228" gradientUnits="userSpaceOnUse">
<stop stop-color="white" stop-opacity="0.6"/>
<stop offset="1" stop-color="white" stop-opacity="0.215"/>
</linearGradient>
<clipPath id="clip0_406_1539">
<rect width="50" height="50" fill="white" transform="translate(0 3)"/>
</clipPath>
</defs>
</svg>
