<svg width="25" height="25" viewBox="0 0 25 25" fill="none" xmlns="http://www.w3.org/2000/svg">
<g clip-path="url(#clip0_405_1469)">
<path d="M13.0127 25.311C19.6401 25.311 25.0127 19.9371 25.0127 13.3081C25.0127 6.67906 19.6401 1.30518 13.0127 1.30518C6.38528 1.30518 1.0127 6.67906 1.0127 13.3081C1.0127 19.9371 6.38528 25.311 13.0127 25.311Z" fill="#121515"/>
<path d="M6.98954 21.9702L6.99906 22.0149C7.04345 22.2294 7.08048 22.4355 7.11012 22.6329C5.98233 21.885 4.99751 20.9308 4.20654 19.8228C4.39835 19.8032 4.57243 19.7749 4.72904 19.7382C5.3686 20.5925 6.13118 21.3457 6.98954 21.9702ZM13.0732 2C19.1315 2 24.0432 7.02158 24.0432 13.2167C24.0432 15.7019 23.2528 17.9983 21.915 19.8573L21.7109 19.327C22.8871 17.5926 23.5764 15.4869 23.5764 13.2167C23.5764 7.28727 18.8743 2.47986 13.0732 2.47986C11.7964 2.47986 10.5727 2.71276 9.4408 3.13925L8.92469 2.82979C10.2045 2.29485 11.6052 2 13.0732 2V2Z" fill="#333333" stroke="#333333"/>
<path d="M3.71395 12.2974L5.21835 16.4109C5.64618 16.4865 5.90954 16.5896 5.90954 16.7032V16.7046C5.92049 16.7545 5.91961 16.8091 5.90694 16.8685L5.90954 16.8686L5.90114 16.8927C5.88954 16.9371 5.87158 16.984 5.84735 17.0335C5.44874 18.0004 4.56723 18.6826 3.48236 18.6826C2.41344 18.6826 1.50091 18.0203 1.08887 17.076C1.05357 17.008 1.02884 16.9451 1.01458 16.8874C1.01243 16.8812 1.01023 16.8749 1.00805 16.8686L1.01024 16.8684C0.99906 16.8155 0.997036 16.767 1.00416 16.723L1.00805 16.7032L1.00849 16.6951C1.02112 16.5803 1.30265 16.4768 1.74967 16.4023L3.25077 12.2974C3.32302 12.0982 3.6412 12.0982 3.71395 12.2974V12.2974ZM11.6497 12.2968L13.1538 16.4095C13.5617 16.4808 13.8221 16.577 13.8508 16.6836L13.848 16.678L13.8542 16.6915C13.875 16.7424 13.8772 16.8012 13.8609 16.8679L13.861 16.868C13.8524 16.9029 13.839 16.9393 13.8207 16.9779C13.4323 17.9744 12.5235 18.6821 11.4181 18.6821C10.3247 18.6821 9.39492 17.9891 8.99707 17.0101C8.9734 16.9622 8.95452 16.9161 8.94492 16.873L8.944 16.8686C8.94396 16.8684 8.94388 16.8682 8.9438 16.868L8.94388 16.8679L8.94196 16.8569C8.93624 16.8179 8.93868 16.7691 8.94924 16.7106L8.9524 16.6943L8.95284 16.6915L8.95384 16.6862C8.9796 16.5757 9.25442 16.4762 9.68474 16.4037L11.1865 12.2968C11.2588 12.0977 11.577 12.0977 11.6497 12.2968V12.2968ZM8.954 16.6862L8.95284 16.6915H8.95296L8.954 16.6862ZM3.48236 13.1107L2.30403 16.3328C2.64811 16.3012 3.04126 16.2833 3.4588 16.2833L3.50591 16.2834C3.92575 16.2848 4.31979 16.3042 4.66253 16.3374L3.48236 13.1107ZM11.4181 13.1107L10.2394 16.3335C10.5855 16.3015 10.9817 16.2833 11.4026 16.2833L11.4497 16.2834C11.8662 16.2847 12.2572 16.3039 12.598 16.3366L11.4181 13.1107ZM7.48504 7.52588C7.48504 7.52588 8.07197 9.41402 8.07197 9.74844C8.07197 9.97871 7.94231 10.1732 7.75771 10.2753C7.90964 10.3259 8.04325 10.4147 8.14767 10.5337C8.38075 10.3254 8.72417 10.1319 9.21707 10.1319C9.78073 10.1319 10.2652 10.3846 10.6928 10.6077C10.8288 10.6787 10.9609 10.7466 11.0832 10.7997C11.1743 10.7007 11.3014 10.6374 11.4439 10.6374C11.7201 10.6374 11.9438 10.8681 11.9438 11.153C11.9438 11.4379 11.7201 11.6687 11.4439 11.6687C11.2198 11.6687 11.0372 11.514 10.9738 11.3042C10.81 11.2398 10.6423 11.153 10.4696 11.0632C10.0915 10.8661 9.66243 10.6424 9.21707 10.6424C8.78899 10.6424 8.52176 10.8472 8.36935 11.0203C8.37531 11.0642 8.38223 11.1076 8.38223 11.153C8.38223 11.6641 7.98039 12.0787 7.48504 12.0787C6.98969 12.0787 6.58785 11.6641 6.58785 11.153C6.58785 11.1076 6.59477 11.0637 6.60072 11.0198C6.44779 10.8462 6.18056 10.6424 5.753 10.6424C5.30765 10.6424 4.87861 10.8666 4.5 11.0637C4.32779 11.1535 4.16006 11.2403 3.99626 11.3047C3.93291 11.5145 3.7503 11.6692 3.52614 11.6692C3.25 11.6692 3.02631 11.4379 3.02631 11.153C3.02631 10.8681 3.25 10.6374 3.52614 10.6374C3.66864 10.6374 3.79581 10.7012 3.88688 10.7997C4.00913 10.7471 4.14075 10.6792 4.27684 10.6077C4.7044 10.3846 5.18935 10.1319 5.753 10.1319C6.24591 10.1319 6.58933 10.3254 6.8224 10.5337C6.92682 10.4147 7.06044 10.3254 7.21237 10.2753C7.0278 10.1732 6.89815 9.9792 6.89815 9.74844C6.89815 9.41402 7.48504 7.52588 7.48504 7.52588V7.52588Z" fill="url(#paint0_linear_405_1469)"/>
<path d="M14.4998 6.89667C14.4998 6.89667 13.8909 6.95032 13.4875 7.17382C13.4875 7.17382 15.0918 7.1649 15.8385 7.8081C15.8385 7.8081 14.0227 7.23602 11.9062 8.65667C11.9062 8.65667 15.2724 7.9954 16.8682 9.39826C16.8682 9.39826 16.3532 8.42098 15.2701 8.21067C15.2701 8.21067 16.5024 8.16031 16.9245 8.37065C16.9245 8.37065 16.5599 7.5655 16.1468 7.3736V6.79967C16.1468 6.68345 15.5297 6.09243 14.4998 5.99268V6.89667Z" fill="url(#paint1_linear_405_1469)"/>
<path d="M14.2256 9.46341C14.2256 9.46341 14.4852 9.69566 14.5951 9.91023C14.5951 9.91023 14.3578 10.1508 14.1309 10.2692C14.1309 10.2692 14.8182 10.4911 14.9991 10.7536C14.6327 10.6355 14.007 10.6798 13.8563 10.9989C14.2746 10.9526 14.5308 11.0634 14.5846 11.2277C14.5846 11.2277 14.4852 11.3747 14.1806 11.44C13.8563 11.5096 13.7734 11.6478 13.7734 11.8409C13.7734 12.034 14.0197 12.2106 14.4671 12.1963C14.9137 12.1816 16.1321 11.9926 16.2242 9.6291C16.1321 9.40684 15.0192 8.95304 14.2227 8.95805L14.2256 9.46341Z" fill="white"/>
<path d="M16.3749 12.0791C16.9218 11.2064 17.221 10.446 17.2726 9.79785C18.0823 10.7205 18.0336 11.8007 17.8961 12.6273C17.8033 12.3613 17.6836 12.0877 17.537 11.8064C17.6338 13.0811 17.2658 13.7711 16.433 13.8767C16.3356 13.2879 16.3162 12.6887 16.3749 12.0791V12.0791Z" fill="white"/>
<path d="M6.50148 4.16309C6.34947 4.40281 6.12671 5.0693 5.83313 6.1626C5.13234 6.98488 4.44775 8.13254 3.77939 9.6055C3.45545 9.71774 3.11167 9.87278 2.74805 10.0708C3.69913 8.23147 4.62847 6.85584 5.53598 5.94404C5.7341 5.26892 6.05592 4.67527 6.50148 4.16309V4.16309Z" fill="white"/>
<path d="M8.3082 6.04785L6.09082 7.12053C6.72266 7.13142 7.22445 7.01363 7.59618 6.76718C7.96791 6.52072 8.20526 6.28092 8.3082 6.04785Z" fill="white"/>
<path d="M7.49012 5.6566C7.47756 5.1878 7.41806 4.92429 7.31156 4.86612C7.19318 4.81189 7.12435 4.69513 7.19318 4.48187C7.23561 4.34633 7.22281 4.19543 7.15479 4.02921L7.75627 3.61719L8.43318 4.05472C8.45686 4.20911 8.40767 4.35151 8.28561 4.48187C8.43318 4.64558 8.43318 4.85687 8.26222 5.10091C8.26698 5.16138 8.2703 5.22066 8.27213 5.27876C8.27497 5.3668 8.27166 5.49276 8.26222 5.6566H7.49012Z" fill="white"/>
<path d="M15.8417 12.8794C15.7356 14.8613 16.1471 15.9875 17.0762 16.2582C18.4699 16.6642 20.9477 16.7182 20.7891 19.7924C20.915 20.1994 21.0301 20.5862 21.1344 20.9529C20.7259 21.3966 20.2828 21.8062 19.8095 22.1773C19.3461 21.029 18.6424 20.3069 17.8282 19.7924C14.6195 17.7428 13.9573 15.4385 15.8417 12.8794Z" fill="white"/>
<path d="M7.6582 19.186C9.33845 23.5111 12.0281 20.7399 14.1059 21.753C15.056 22.2162 15.5742 23.0667 15.6607 24.3042C14.8506 24.4976 14.0066 24.5997 13.1394 24.5997C11.4578 24.5997 9.86351 24.2158 8.43482 23.5287C8.42954 22.2266 8.17059 20.7792 7.6582 19.186V19.186Z" fill="white"/>
<path d="M10.8458 7.49107C11.2817 7.36761 11.6379 7.08882 11.9145 6.65466C11.8969 6.91315 11.8338 7.13562 11.725 7.32214C12.9848 7.08977 13.9624 6.30713 14.658 4.97415C13.3754 4.2591 12.0533 4.74688 11.3446 5.63649C10.8722 6.22953 10.7059 6.84775 10.8458 7.49107V7.49107Z" fill="white"/>
</g>
<defs>
<linearGradient id="paint0_linear_405_1469" x1="0.999999" y1="17.0756" x2="13.1824" y2="7.50672" gradientUnits="userSpaceOnUse">
<stop stop-color="#FFC58F"/>
<stop offset="1" stop-color="#FF7C7C"/>
</linearGradient>
<linearGradient id="paint1_linear_405_1469" x1="11.9062" y1="8.90773" x2="15.7338" y2="5.0679" gradientUnits="userSpaceOnUse">
<stop stop-color="#FFC58F"/>
<stop offset="1" stop-color="#FF7C7C"/>
</linearGradient>
<clipPath id="clip0_405_1469">
<rect width="25" height="25" fill="white"/>
</clipPath>
</defs>
</svg>
