<svg width="782" height="534" viewBox="0 0 782 534" fill="none" xmlns="http://www.w3.org/2000/svg">
<mask id="mask0_6772_437" style="mask-type:alpha" maskUnits="userSpaceOnUse" x="17" y="14" width="748" height="500">
<path d="M759 14H23C19.6863 14 17 16.6863 17 20V508C17 511.314 19.6863 514 23 514H759C762.314 514 765 511.314 765 508V20C765 16.6863 762.314 14 759 14Z" fill="white"/>
</mask>
<g mask="url(#mask0_6772_437)">
<path d="M759 14H23C19.6863 14 17 16.6863 17 20V508C17 511.314 19.6863 514 23 514H759C762.314 514 765 511.314 765 508V20C765 16.6863 762.314 14 759 14Z" fill="white"/>
<path opacity="0.2" d="M391.497 436.717C514.776 436.717 614.713 336.78 614.713 213.501C614.713 90.2224 514.776 -9.71484 391.497 -9.71484C268.218 -9.71484 168.281 90.2224 168.281 213.501C168.281 336.78 268.218 436.717 391.497 436.717Z" stroke="#FFA776" stroke-width="1.5"/>
<path opacity="0.15" d="M391.498 468.545C532.356 468.545 646.543 354.358 646.543 213.5C646.543 72.6426 532.356 -41.5449 391.498 -41.5449C250.641 -41.5449 136.453 72.6426 136.453 213.5C136.453 354.358 250.641 468.545 391.498 468.545Z" stroke="#FFA776" stroke-width="1.5"/>
<path opacity="0.1" d="M391.496 499.598C549.503 499.598 677.594 371.507 677.594 213.5C677.594 55.4927 549.503 -72.5977 391.496 -72.5977C233.488 -72.5977 105.398 55.4927 105.398 213.5C105.398 371.507 233.488 499.598 391.496 499.598Z" stroke="#FFA776" stroke-width="1.5"/>
<path opacity="0.05" d="M391.5 531.25C566.988 531.25 709.25 388.988 709.25 213.5C709.25 38.0115 566.988 -104.25 391.5 -104.25C216.012 -104.25 73.75 38.0115 73.75 213.5C73.75 388.988 216.012 531.25 391.5 531.25Z" stroke="#FFA776" stroke-width="1.5"/>
<path d="M746 391H36C33.7909 391 32 392.791 32 395V496C32 498.209 33.7909 500 36 500H746C748.209 500 750 498.209 750 496V395C750 392.791 748.209 391 746 391Z" fill="url(#paint0_linear_6772_437)"/>
<path d="M526 234C547.539 234 565 216.539 565 195C565 173.461 547.539 156 526 156C504.461 156 487 173.461 487 195C487 216.539 504.461 234 526 234Z" fill="#7FDFA6" fill-opacity="0.2"/>
<path d="M377 260C398.539 260 416 242.539 416 221C416 199.461 398.539 182 377 182C355.461 182 338 199.461 338 221C338 242.539 355.461 260 377 260Z" fill="#FFA776"/>
<path d="M384.109 225.748L391.43 218.293L397.429 224.184L390.108 231.639L384.109 225.748Z" fill="#F9FAFC"/>
<path d="M380.539 222.455L387.86 215L389.916 217.019L382.595 224.474L380.539 222.455Z" fill="#F9FAFC"/>
<path d="M391.625 233.037L398.946 225.582L401.002 227.601L393.681 235.056L391.625 233.037Z" fill="#F9FAFC"/>
<path d="M383.543 229.867L386.109 232.374L378.566 240.093L376 237.585L383.543 229.867Z" fill="#F9FAFC"/>
<path d="M361 236.7C361 227.838 368.184 220.654 377.047 220.654" stroke="#F9FAFC" stroke-width="5"/>
<path d="M377.043 213.103C381.213 213.103 384.594 209.722 384.594 205.551C384.594 201.381 381.213 198 377.043 198C372.872 198 369.492 201.381 369.492 205.551C369.492 209.722 372.872 213.103 377.043 213.103Z" fill="#F9FAFC"/>
<path d="M279 234C300.539 234 318 216.539 318 195C318 173.461 300.539 156 279 156C257.461 156 240 173.461 240 195C240 216.539 257.461 234 279 234Z" fill="#7FDFA6" fill-opacity="0.2"/>
<path d="M249 260C270.539 260 288 242.539 288 221C288 199.461 270.539 182 249 182C227.461 182 210 199.461 210 221C210 242.539 227.461 260 249 260Z" fill="#FFA776"/>
<path d="M279 211C287.837 211 295 203.837 295 195C295 186.163 287.837 179 279 179C270.163 179 263 186.163 263 195C263 203.837 270.163 211 279 211Z" fill="#7FDFA6"/>
<path d="M271 193H287V197H271V193Z" fill="white"/>
<path d="M281 194V203H277V194H281Z" fill="white"/>
<path d="M281 187V191H277V187H281Z" fill="white"/>
<path d="M256.109 225.748L263.43 218.293L269.429 224.184L262.108 231.639L256.109 225.748Z" fill="#F9FAFC"/>
<path d="M252.539 222.455L259.86 215L261.916 217.019L254.595 224.474L252.539 222.455Z" fill="#F9FAFC"/>
<path d="M263.625 233.037L270.946 225.582L273.002 227.601L265.681 235.056L263.625 233.037Z" fill="#F9FAFC"/>
<path d="M255.543 229.867L258.109 232.374L250.566 240.093L248 237.585L255.543 229.867Z" fill="#F9FAFC"/>
<path d="M233 236.7C233 227.838 240.184 220.654 249.047 220.654" stroke="#F9FAFC" stroke-width="5"/>
<path d="M249.043 213.103C253.213 213.103 256.594 209.722 256.594 205.551C256.594 201.381 253.213 198 249.043 198C244.872 198 241.492 201.381 241.492 205.551C241.492 209.722 244.872 213.103 249.043 213.103Z" fill="#F9FAFC"/>
<path d="M498 260C519.539 260 537 242.539 537 221C537 199.461 519.539 182 498 182C476.461 182 459 199.461 459 221C459 242.539 476.461 260 498 260Z" fill="#FFA776"/>
<path d="M504.109 225.748L511.43 218.293L517.429 224.184L510.108 231.639L504.109 225.748Z" fill="#F9FAFC"/>
<path d="M500.539 222.455L507.86 215L509.916 217.019L502.595 224.474L500.539 222.455Z" fill="#F9FAFC"/>
<path d="M511.625 233.037L518.946 225.582L521.002 227.601L513.681 235.056L511.625 233.037Z" fill="#F9FAFC"/>
<path d="M503.543 229.867L506.109 232.374L498.566 240.093L496 237.585L503.543 229.867Z" fill="#F9FAFC"/>
<path d="M481 236.7C481 227.838 488.184 220.654 497.047 220.654" stroke="#F9FAFC" stroke-width="5"/>
<path d="M497.043 213.103C501.213 213.103 504.594 209.722 504.594 205.551C504.594 201.381 501.213 198 497.043 198C492.872 198 489.492 201.381 489.492 205.551C489.492 209.722 492.872 213.103 497.043 213.103Z" fill="#F9FAFC"/>
<path d="M526 211C534.837 211 542 203.837 542 195C542 186.163 534.837 179 526 179C517.163 179 510 186.163 510 195C510 203.837 517.163 211 526 211Z" fill="#7FDFA6"/>
<path d="M518 193H534V197H518V193Z" fill="white"/>
<path d="M528 194V203H524V194H528Z" fill="white"/>
<path d="M528 187V191H524V187H528Z" fill="white"/>
<path d="M407 211C415.837 211 423 203.837 423 195C423 186.163 415.837 179 407 179C398.163 179 391 186.163 391 195C391 203.837 398.163 211 407 211Z" fill="#FF7C7C"/>
<path d="M399 193H415V197H399V193Z" fill="white"/>
<path d="M93.9744 440.001H92.3438L96.0078 429.819H97.7827L101.447 440.001H99.8161L96.9375 431.669H96.858L93.9744 440.001ZM94.2479 436.014H99.5376V437.306H94.2479V436.014Z" fill="black"/>
<path d="M105.884 432.365V433.558H101.713V432.365H105.884ZM102.831 430.535H104.318V437.759C104.318 438.047 104.361 438.264 104.447 438.41C104.533 438.552 104.644 438.65 104.78 438.703C104.919 438.753 105.07 438.778 105.233 438.778C105.352 438.778 105.456 438.77 105.546 438.753C105.635 438.736 105.705 438.723 105.755 438.713L106.023 439.941C105.937 439.974 105.814 440.008 105.655 440.041C105.496 440.077 105.297 440.097 105.059 440.1C104.667 440.107 104.303 440.037 103.965 439.892C103.627 439.746 103.353 439.52 103.145 439.215C102.936 438.91 102.831 438.528 102.831 438.067V430.535Z" fill="black"/>
<path d="M114.798 432.365V433.558H110.627V432.365H114.798ZM111.745 430.535H113.232V437.759C113.232 438.047 113.275 438.264 113.361 438.41C113.447 438.552 113.558 438.65 113.694 438.703C113.833 438.753 113.984 438.778 114.147 438.778C114.266 438.778 114.37 438.77 114.46 438.753C114.549 438.736 114.619 438.723 114.669 438.713L114.937 439.941C114.851 439.974 114.728 440.008 114.569 440.041C114.41 440.077 114.211 440.097 113.973 440.1C113.582 440.107 113.217 440.037 112.879 439.892C112.541 439.746 112.267 439.52 112.059 439.215C111.85 438.91 111.745 438.528 111.745 438.067V430.535Z" fill="black"/>
<path d="M118.093 435.467V440.001H116.606V429.819H118.073V433.607H118.167C118.346 433.196 118.62 432.87 118.988 432.628C119.356 432.386 119.836 432.265 120.43 432.265C120.953 432.265 121.411 432.373 121.802 432.588C122.196 432.804 122.501 433.125 122.716 433.553C122.935 433.977 123.045 434.507 123.045 435.144V440.001H121.558V435.323C121.558 434.762 121.414 434.328 121.126 434.02C120.837 433.709 120.436 433.553 119.922 433.553C119.571 433.553 119.256 433.627 118.978 433.776C118.703 433.926 118.486 434.144 118.327 434.433C118.171 434.718 118.093 435.062 118.093 435.467Z" fill="black"/>
<path d="M128.319 440.155C127.567 440.155 126.919 439.994 126.376 439.673C125.835 439.348 125.418 438.892 125.123 438.306C124.831 437.716 124.685 437.025 124.685 436.232C124.685 435.45 124.831 434.761 125.123 434.164C125.418 433.568 125.829 433.102 126.356 432.767C126.886 432.432 127.506 432.265 128.215 432.265C128.646 432.265 129.064 432.336 129.468 432.479C129.872 432.621 130.235 432.845 130.557 433.15C130.878 433.455 131.132 433.851 131.317 434.338C131.503 434.822 131.596 435.41 131.596 436.103V436.63H125.525V435.517H130.139C130.139 435.125 130.059 434.779 129.9 434.477C129.741 434.173 129.518 433.932 129.229 433.757C128.944 433.581 128.609 433.493 128.225 433.493C127.807 433.493 127.443 433.596 127.131 433.801C126.823 434.003 126.584 434.269 126.415 434.597C126.25 434.922 126.167 435.275 126.167 435.656V436.526C126.167 437.036 126.256 437.47 126.435 437.828C126.617 438.186 126.871 438.46 127.196 438.649C127.521 438.834 127.9 438.927 128.334 438.927C128.616 438.927 128.873 438.887 129.105 438.808C129.337 438.725 129.537 438.602 129.707 438.44C129.876 438.277 130.005 438.077 130.094 437.838L131.501 438.092C131.389 438.506 131.186 438.869 130.895 439.181C130.606 439.489 130.243 439.729 129.806 439.901C129.372 440.07 128.876 440.155 128.319 440.155Z" fill="black"/>
<path d="M140.241 440.155C139.489 440.155 138.841 439.994 138.297 439.673C137.757 439.348 137.34 438.892 137.045 438.306C136.753 437.716 136.607 437.025 136.607 436.232C136.607 435.45 136.753 434.761 137.045 434.164C137.34 433.568 137.751 433.102 138.278 432.767C138.808 432.432 139.428 432.265 140.137 432.265C140.568 432.265 140.985 432.336 141.39 432.479C141.794 432.621 142.157 432.845 142.479 433.15C142.8 433.455 143.054 433.851 143.239 434.338C143.425 434.822 143.518 435.41 143.518 436.103V436.63H137.447V435.517H142.061C142.061 435.125 141.981 434.779 141.822 434.477C141.663 434.173 141.439 433.932 141.151 433.757C140.866 433.581 140.531 433.493 140.147 433.493C139.729 433.493 139.365 433.596 139.053 433.801C138.745 434.003 138.506 434.269 138.337 434.597C138.171 434.922 138.089 435.275 138.089 435.656V436.526C138.089 437.036 138.178 437.47 138.357 437.828C138.539 438.186 138.793 438.46 139.118 438.649C139.443 438.834 139.822 438.927 140.256 438.927C140.538 438.927 140.795 438.887 141.027 438.808C141.259 438.725 141.459 438.602 141.628 438.44C141.797 438.277 141.927 438.077 142.016 437.838L143.423 438.092C143.31 438.506 143.108 438.869 142.817 439.181C142.528 439.489 142.165 439.729 141.728 439.901C141.294 440.07 140.798 440.155 140.241 440.155Z" fill="black"/>
<path d="M146.653 435.467V440.001H145.167V432.365H146.594V433.607H146.688C146.864 433.203 147.139 432.878 147.513 432.633C147.891 432.388 148.367 432.265 148.94 432.265C149.461 432.265 149.916 432.374 150.308 432.593C150.699 432.809 151.002 433.13 151.217 433.558C151.433 433.985 151.54 434.514 151.54 435.144V440.001H150.054V435.323C150.054 434.769 149.91 434.337 149.621 434.025C149.333 433.71 148.937 433.553 148.433 433.553C148.089 433.553 147.782 433.627 147.513 433.776C147.248 433.926 147.038 434.144 146.882 434.433C146.73 434.718 146.653 435.062 146.653 435.467Z" fill="black"/>
<path d="M156.393 440.15C155.776 440.15 155.226 439.993 154.742 439.678C154.262 439.36 153.884 438.907 153.609 438.32C153.337 437.731 153.201 437.023 153.201 436.198C153.201 435.372 153.339 434.666 153.614 434.08C153.892 433.493 154.273 433.044 154.757 432.732C155.241 432.421 155.79 432.265 156.403 432.265C156.877 432.265 157.258 432.345 157.546 432.504C157.838 432.66 158.063 432.842 158.222 433.051C158.385 433.259 158.511 433.443 158.6 433.602H158.69V429.819H160.176V440.001H158.724V438.813H158.6C158.511 438.975 158.381 439.161 158.212 439.369C158.047 439.578 157.818 439.761 157.526 439.916C157.235 440.072 156.857 440.15 156.393 440.15ZM156.721 438.882C157.148 438.882 157.51 438.77 157.805 438.544C158.103 438.316 158.328 437.999 158.481 437.595C158.637 437.19 158.714 436.72 158.714 436.183C158.714 435.652 158.638 435.188 158.486 434.791C158.333 434.393 158.11 434.083 157.815 433.861C157.52 433.639 157.155 433.528 156.721 433.528C156.273 433.528 155.901 433.644 155.602 433.876C155.304 434.108 155.079 434.424 154.926 434.825C154.777 435.227 154.702 435.679 154.702 436.183C154.702 436.693 154.779 437.152 154.931 437.56C155.084 437.968 155.309 438.291 155.607 438.529C155.909 438.765 156.28 438.882 156.721 438.882Z" fill="black"/>
<path d="M169.219 440.155C168.504 440.155 167.879 439.991 167.345 439.663C166.812 439.335 166.397 438.876 166.102 438.286C165.807 437.696 165.66 437.006 165.66 436.218C165.66 435.425 165.807 434.733 166.102 434.139C166.397 433.546 166.812 433.085 167.345 432.757C167.879 432.429 168.504 432.265 169.219 432.265C169.935 432.265 170.56 432.429 171.094 432.757C171.627 433.085 172.042 433.546 172.337 434.139C172.632 434.733 172.779 435.425 172.779 436.218C172.779 437.006 172.632 437.696 172.337 438.286C172.042 438.876 171.627 439.335 171.094 439.663C170.56 439.991 169.935 440.155 169.219 440.155ZM169.224 438.907C169.688 438.907 170.073 438.785 170.378 438.539C170.683 438.294 170.908 437.968 171.054 437.56C171.203 437.152 171.278 436.703 171.278 436.213C171.278 435.725 171.203 435.278 171.054 434.87C170.908 434.459 170.683 434.129 170.378 433.881C170.073 433.632 169.688 433.508 169.224 433.508C168.757 433.508 168.369 433.632 168.061 433.881C167.756 434.129 167.529 434.459 167.38 434.87C167.234 435.278 167.161 435.725 167.161 436.213C167.161 436.703 167.234 437.152 167.38 437.56C167.529 437.968 167.756 438.294 168.061 438.539C168.369 438.785 168.757 438.907 169.224 438.907Z" fill="black"/>
<path d="M178.073 432.365V433.558H173.757V432.365H178.073ZM174.941 440.001V431.48C174.941 431.002 175.045 430.606 175.254 430.291C175.463 429.973 175.739 429.736 176.084 429.58C176.429 429.421 176.803 429.342 177.208 429.342C177.506 429.342 177.761 429.367 177.973 429.416C178.185 429.463 178.343 429.506 178.445 429.546L178.097 430.749C178.028 430.729 177.938 430.706 177.829 430.679C177.72 430.649 177.587 430.634 177.431 430.634C177.07 430.634 176.811 430.724 176.656 430.903C176.503 431.082 176.427 431.34 176.427 431.678V440.001H174.941Z" fill="black"/>
<path d="M186.876 432.365V433.558H182.705V432.365H186.876ZM183.824 430.535H185.31V437.759C185.31 438.047 185.353 438.264 185.439 438.41C185.525 438.552 185.636 438.65 185.772 438.703C185.912 438.753 186.062 438.778 186.225 438.778C186.344 438.778 186.449 438.77 186.538 438.753C186.627 438.736 186.697 438.723 186.747 438.713L187.015 439.941C186.929 439.974 186.806 440.008 186.647 440.041C186.488 440.077 186.289 440.097 186.051 440.1C185.66 440.107 185.295 440.037 184.957 439.892C184.619 439.746 184.346 439.52 184.137 439.215C183.928 438.91 183.824 438.528 183.824 438.067V430.535Z" fill="black"/>
<path d="M190.171 435.467V440.001H188.684V429.819H190.151V433.607H190.246C190.425 433.196 190.698 432.87 191.066 432.628C191.434 432.386 191.914 432.265 192.508 432.265C193.031 432.265 193.489 432.373 193.88 432.588C194.274 432.804 194.579 433.125 194.795 433.553C195.013 433.977 195.123 434.507 195.123 435.144V440.001H193.636V435.323C193.636 434.762 193.492 434.328 193.204 434.02C192.915 433.709 192.514 433.553 192.001 433.553C191.649 433.553 191.334 433.627 191.056 433.776C190.781 433.926 190.564 434.144 190.405 434.433C190.249 434.718 190.171 435.062 190.171 435.467Z" fill="black"/>
<path d="M200.398 440.155C199.645 440.155 198.997 439.994 198.454 439.673C197.913 439.348 197.496 438.892 197.201 438.306C196.909 437.716 196.763 437.025 196.763 436.232C196.763 435.45 196.909 434.761 197.201 434.164C197.496 433.568 197.907 433.102 198.434 432.767C198.964 432.432 199.584 432.265 200.293 432.265C200.724 432.265 201.142 432.336 201.546 432.479C201.95 432.621 202.313 432.845 202.635 433.15C202.956 433.455 203.21 433.851 203.395 434.338C203.581 434.822 203.674 435.41 203.674 436.103V436.63H197.604V435.517H202.217C202.217 435.125 202.138 434.779 201.979 434.477C201.819 434.173 201.596 433.932 201.307 433.757C201.022 433.581 200.688 433.493 200.303 433.493C199.885 433.493 199.521 433.596 199.209 433.801C198.901 434.003 198.662 434.269 198.493 434.597C198.328 434.922 198.245 435.275 198.245 435.656V436.526C198.245 437.036 198.334 437.47 198.513 437.828C198.696 438.186 198.949 438.46 199.274 438.649C199.599 438.834 199.978 438.927 200.412 438.927C200.694 438.927 200.951 438.887 201.183 438.808C201.415 438.725 201.616 438.602 201.785 438.44C201.954 438.277 202.083 438.077 202.172 437.838L203.579 438.092C203.467 438.506 203.265 438.869 202.973 439.181C202.684 439.489 202.322 439.729 201.884 439.901C201.45 440.07 200.954 440.155 200.398 440.155Z" fill="black"/>
<path d="M209.148 440.001V429.819H212.777C213.566 429.819 214.22 429.955 214.741 430.227C215.264 430.499 215.655 430.875 215.914 431.355C216.172 431.833 216.302 432.384 216.302 433.011C216.302 433.634 216.171 434.182 215.909 434.656C215.65 435.127 215.259 435.493 214.736 435.755C214.215 436.017 213.561 436.148 212.772 436.148H210.023V434.825H212.633C213.13 434.825 213.534 434.754 213.846 434.612C214.161 434.469 214.391 434.262 214.537 433.99C214.683 433.718 214.756 433.392 214.756 433.011C214.756 432.626 214.681 432.293 214.532 432.012C214.386 431.73 214.156 431.514 213.841 431.365C213.529 431.213 213.12 431.137 212.613 431.137H210.684V440.001H209.148ZM214.174 435.407L216.689 440.001H214.939L212.474 435.407H214.174Z" fill="black"/>
<path d="M221.247 440.155C220.495 440.155 219.847 439.994 219.303 439.673C218.763 439.348 218.345 438.892 218.05 438.306C217.759 437.716 217.613 437.025 217.613 436.232C217.613 435.45 217.759 434.761 218.05 434.164C218.345 433.568 218.756 433.102 219.283 432.767C219.814 432.432 220.433 432.265 221.143 432.265C221.574 432.265 221.991 432.336 222.396 432.479C222.8 432.621 223.163 432.845 223.484 433.15C223.806 433.455 224.059 433.851 224.245 434.338C224.431 434.822 224.523 435.41 224.523 436.103V436.63H218.453V435.517H223.067C223.067 435.125 222.987 434.779 222.828 434.477C222.669 434.173 222.445 433.932 222.157 433.757C221.872 433.581 221.537 433.493 221.153 433.493C220.735 433.493 220.371 433.596 220.059 433.801C219.751 434.003 219.512 434.269 219.343 434.597C219.177 434.922 219.094 435.275 219.094 435.656V436.526C219.094 437.036 219.184 437.47 219.363 437.828C219.545 438.186 219.799 438.46 220.124 438.649C220.448 438.834 220.828 438.927 221.262 438.927C221.544 438.927 221.801 438.887 222.033 438.808C222.265 438.725 222.465 438.602 222.634 438.44C222.803 438.277 222.933 438.077 223.022 437.838L224.429 438.092C224.316 438.506 224.114 438.869 223.822 439.181C223.534 439.489 223.171 439.729 222.734 439.901C222.299 440.07 221.804 440.155 221.247 440.155Z" fill="black"/>
<path d="M232.487 432.365L229.718 440.001H228.127L225.352 432.365H226.948L228.882 438.241H228.962L230.891 432.365H232.487Z" fill="black"/>
<path d="M233.884 440.001V432.365H235.37V440.001H233.884ZM234.634 431.186C234.376 431.186 234.154 431.1 233.968 430.928C233.786 430.752 233.695 430.543 233.695 430.301C233.695 430.056 233.786 429.847 233.968 429.675C234.154 429.499 234.376 429.411 234.634 429.411C234.893 429.411 235.113 429.499 235.296 429.675C235.481 429.847 235.574 430.056 235.574 430.301C235.574 430.543 235.481 430.752 235.296 430.928C235.113 431.1 234.893 431.186 234.634 431.186Z" fill="black"/>
<path d="M240.661 440.155C239.909 440.155 239.261 439.994 238.717 439.673C238.177 439.348 237.759 438.892 237.464 438.306C237.173 437.716 237.027 437.025 237.027 436.232C237.027 435.45 237.173 434.761 237.464 434.164C237.759 433.568 238.17 433.102 238.697 432.767C239.228 432.432 239.848 432.265 240.557 432.265C240.988 432.265 241.405 432.336 241.81 432.479C242.214 432.621 242.577 432.845 242.898 433.15C243.22 433.455 243.473 433.851 243.659 434.338C243.845 434.822 243.938 435.41 243.938 436.103V436.63H237.867V435.517H242.481C242.481 435.125 242.401 434.779 242.242 434.477C242.083 434.173 241.859 433.932 241.571 433.757C241.286 433.581 240.951 433.493 240.567 433.493C240.149 433.493 239.785 433.596 239.473 433.801C239.165 434.003 238.926 434.269 238.757 434.597C238.591 434.922 238.509 435.275 238.509 435.656V436.526C238.509 437.036 238.598 437.47 238.777 437.828C238.959 438.186 239.213 438.46 239.538 438.649C239.862 438.834 240.242 438.927 240.676 438.927C240.958 438.927 241.215 438.887 241.447 438.808C241.679 438.725 241.879 438.602 242.048 438.44C242.217 438.277 242.347 438.077 242.436 437.838L243.843 438.092C243.73 438.506 243.528 438.869 243.237 439.181C242.948 439.489 242.585 439.729 242.148 439.901C241.714 440.07 241.218 440.155 240.661 440.155Z" fill="black"/>
<path d="M247.229 440.001L244.982 432.365H246.518L248.014 437.972H248.089L249.59 432.365H251.126L252.618 437.948H252.692L254.179 432.365H255.715L253.473 440.001H251.957L250.406 434.487H250.291L248.74 440.001H247.229Z" fill="black"/>
<path d="M260.831 442.865V432.365H262.283V433.602H262.407C262.493 433.443 262.617 433.259 262.78 433.051C262.942 432.842 263.168 432.66 263.456 432.504C263.744 432.345 264.125 432.265 264.599 432.265C265.216 432.265 265.766 432.421 266.25 432.732C266.734 433.044 267.113 433.493 267.389 434.08C267.667 434.666 267.806 435.372 267.806 436.198C267.806 437.023 267.669 437.731 267.393 438.32C267.118 438.907 266.741 439.36 266.26 439.678C265.779 439.993 265.231 440.15 264.614 440.15C264.15 440.15 263.771 440.072 263.476 439.916C263.184 439.761 262.955 439.578 262.79 439.369C262.624 439.161 262.496 438.975 262.407 438.813H262.317V442.865H260.831ZM262.288 436.183C262.288 436.72 262.366 437.19 262.521 437.595C262.677 437.999 262.902 438.316 263.197 438.544C263.492 438.77 263.854 438.882 264.281 438.882C264.725 438.882 265.097 438.765 265.395 438.529C265.693 438.291 265.919 437.968 266.071 437.56C266.227 437.152 266.305 436.693 266.305 436.183C266.305 435.679 266.228 435.227 266.076 434.825C265.927 434.424 265.701 434.108 265.4 433.876C265.102 433.644 264.729 433.528 264.281 433.528C263.85 433.528 263.486 433.639 263.188 433.861C262.893 434.083 262.669 434.393 262.516 434.791C262.364 435.188 262.288 435.652 262.288 436.183Z" fill="black"/>
<path d="M272.763 440.155C272.01 440.155 271.362 439.994 270.819 439.673C270.279 439.348 269.861 438.892 269.566 438.306C269.274 437.716 269.129 437.025 269.129 436.232C269.129 435.45 269.274 434.761 269.566 434.164C269.861 433.568 270.272 433.102 270.799 432.767C271.329 432.432 271.949 432.265 272.658 432.265C273.089 432.265 273.507 432.336 273.911 432.479C274.316 432.621 274.679 432.845 275 433.15C275.321 433.455 275.575 433.851 275.761 434.338C275.946 434.822 276.039 435.41 276.039 436.103V436.63H269.969V435.517H274.582C274.582 435.125 274.503 434.779 274.344 434.477C274.185 434.173 273.961 433.932 273.673 433.757C273.388 433.581 273.053 433.493 272.668 433.493C272.251 433.493 271.886 433.596 271.575 433.801C271.266 434.003 271.028 434.269 270.859 434.597C270.693 434.922 270.61 435.275 270.61 435.656V436.526C270.61 437.036 270.7 437.47 270.879 437.828C271.061 438.186 271.314 438.46 271.639 438.649C271.964 438.834 272.344 438.927 272.778 438.927C273.059 438.927 273.316 438.887 273.548 438.808C273.78 438.725 273.981 438.602 274.15 438.44C274.319 438.277 274.448 438.077 274.538 437.838L275.945 438.092C275.832 438.506 275.63 438.869 275.338 439.181C275.05 439.489 274.687 439.729 274.249 439.901C273.815 440.07 273.32 440.155 272.763 440.155Z" fill="black"/>
<path d="M277.688 440.001V432.365H279.125V433.578H279.205C279.344 433.167 279.589 432.843 279.941 432.608C280.295 432.369 280.696 432.25 281.144 432.25C281.236 432.25 281.346 432.253 281.472 432.26C281.601 432.267 281.702 432.275 281.775 432.285V433.707C281.715 433.69 281.609 433.672 281.457 433.652C281.304 433.629 281.152 433.617 280.999 433.617C280.648 433.617 280.335 433.692 280.06 433.841C279.788 433.987 279.573 434.191 279.414 434.453C279.254 434.711 279.175 435.006 279.175 435.338V440.001H277.688Z" fill="black"/>
<path d="M283.061 440.001V432.365H284.548V440.001H283.061ZM283.812 431.186C283.554 431.186 283.332 431.1 283.146 430.928C282.964 430.752 282.873 430.543 282.873 430.301C282.873 430.056 282.964 429.847 283.146 429.675C283.332 429.499 283.554 429.411 283.812 429.411C284.071 429.411 284.291 429.499 284.473 429.675C284.659 429.847 284.752 430.056 284.752 430.301C284.752 430.543 284.659 430.752 284.473 430.928C284.291 431.1 284.071 431.186 283.812 431.186Z" fill="black"/>
<path d="M289.764 440.155C289.048 440.155 288.424 439.991 287.89 439.663C287.356 439.335 286.942 438.876 286.647 438.286C286.352 437.696 286.205 437.006 286.205 436.218C286.205 435.425 286.352 434.733 286.647 434.139C286.942 433.546 287.356 433.085 287.89 432.757C288.424 432.429 289.048 432.265 289.764 432.265C290.48 432.265 291.105 432.429 291.639 432.757C292.172 433.085 292.587 433.546 292.882 434.139C293.177 434.733 293.324 435.425 293.324 436.218C293.324 437.006 293.177 437.696 292.882 438.286C292.587 438.876 292.172 439.335 291.639 439.663C291.105 439.991 290.48 440.155 289.764 440.155ZM289.769 438.907C290.233 438.907 290.618 438.785 290.923 438.539C291.228 438.294 291.453 437.968 291.599 437.56C291.748 437.152 291.823 436.703 291.823 436.213C291.823 435.725 291.748 435.278 291.599 434.87C291.453 434.459 291.228 434.129 290.923 433.881C290.618 433.632 290.233 433.508 289.769 433.508C289.302 433.508 288.914 433.632 288.606 433.881C288.301 434.129 288.074 434.459 287.925 434.87C287.779 435.278 287.706 435.725 287.706 436.213C287.706 436.703 287.779 437.152 287.925 437.56C288.074 437.968 288.301 438.294 288.606 438.539C288.914 438.785 289.302 438.907 289.769 438.907Z" fill="black"/>
<path d="M297.842 440.15C297.226 440.15 296.675 439.993 296.191 439.678C295.711 439.36 295.333 438.907 295.058 438.32C294.786 437.731 294.65 437.023 294.65 436.198C294.65 435.372 294.788 434.666 295.063 434.08C295.341 433.493 295.722 433.044 296.206 432.732C296.69 432.421 297.239 432.265 297.852 432.265C298.326 432.265 298.707 432.345 298.995 432.504C299.287 432.66 299.512 432.842 299.672 433.051C299.834 433.259 299.96 433.443 300.049 433.602H300.139V429.819H301.625V440.001H300.174V438.813H300.049C299.96 438.975 299.831 439.161 299.662 439.369C299.496 439.578 299.267 439.761 298.975 439.916C298.684 440.072 298.306 440.15 297.842 440.15ZM298.17 438.882C298.598 438.882 298.959 438.77 299.254 438.544C299.552 438.316 299.778 437.999 299.93 437.595C300.086 437.19 300.164 436.72 300.164 436.183C300.164 435.652 300.087 435.188 299.935 434.791C299.783 434.393 299.559 434.083 299.264 433.861C298.969 433.639 298.604 433.528 298.17 433.528C297.723 433.528 297.35 433.644 297.051 433.876C296.753 434.108 296.528 434.424 296.375 434.825C296.226 435.227 296.152 435.679 296.152 436.183C296.152 436.693 296.228 437.152 296.38 437.56C296.533 437.968 296.758 438.291 297.056 438.529C297.358 438.765 297.729 438.882 298.17 438.882Z" fill="black"/>
<path d="M305.681 438.609L305.606 439.151C305.557 439.548 305.472 439.963 305.353 440.394C305.237 440.828 305.116 441.231 304.99 441.602C304.867 441.973 304.766 442.268 304.687 442.487H303.633C303.676 442.281 303.735 442.003 303.812 441.651C303.888 441.303 303.962 440.914 304.035 440.483C304.108 440.052 304.163 439.613 304.199 439.166L304.249 438.609H305.681Z" fill="black"/>
<path d="M314.886 432.365V433.558H310.715V432.365H314.886ZM311.833 430.535H313.32V437.759C313.32 438.047 313.363 438.264 313.449 438.41C313.535 438.552 313.646 438.65 313.782 438.703C313.921 438.753 314.072 438.778 314.235 438.778C314.354 438.778 314.458 438.77 314.548 438.753C314.637 438.736 314.707 438.723 314.757 438.713L315.025 439.941C314.939 439.974 314.816 440.008 314.657 440.041C314.498 440.077 314.299 440.097 314.061 440.1C313.669 440.107 313.305 440.037 312.967 439.892C312.629 439.746 312.355 439.52 312.146 439.215C311.938 438.91 311.833 438.528 311.833 438.067V430.535Z" fill="black"/>
<path d="M318.181 435.467V440.001H316.694V429.819H318.161V433.607H318.255C318.434 433.196 318.708 432.87 319.076 432.628C319.444 432.386 319.924 432.265 320.517 432.265C321.041 432.265 321.498 432.373 321.89 432.588C322.284 432.804 322.589 433.125 322.804 433.553C323.023 433.977 323.132 434.507 323.132 435.144V440.001H321.646V435.323C321.646 434.762 321.502 434.328 321.213 434.02C320.925 433.709 320.524 433.553 320.01 433.553C319.659 433.553 319.344 433.627 319.066 433.776C318.791 433.926 318.574 434.144 318.414 434.433C318.259 434.718 318.181 435.062 318.181 435.467Z" fill="black"/>
<path d="M328.407 440.155C327.655 440.155 327.007 439.994 326.463 439.673C325.923 439.348 325.506 438.892 325.211 438.306C324.919 437.716 324.773 437.025 324.773 436.232C324.773 435.45 324.919 434.761 325.211 434.164C325.506 433.568 325.917 433.102 326.444 432.767C326.974 432.432 327.594 432.265 328.303 432.265C328.734 432.265 329.151 432.336 329.556 432.479C329.96 432.621 330.323 432.845 330.645 433.15C330.966 433.455 331.22 433.851 331.405 434.338C331.591 434.822 331.684 435.41 331.684 436.103V436.63H325.613V435.517H330.227C330.227 435.125 330.147 434.779 329.988 434.477C329.829 434.173 329.605 433.932 329.317 433.757C329.032 433.581 328.697 433.493 328.313 433.493C327.895 433.493 327.531 433.596 327.219 433.801C326.911 434.003 326.672 434.269 326.503 434.597C326.337 434.922 326.255 435.275 326.255 435.656V436.526C326.255 437.036 326.344 437.47 326.523 437.828C326.705 438.186 326.959 438.46 327.284 438.649C327.609 438.834 327.988 438.927 328.422 438.927C328.704 438.927 328.961 438.887 329.193 438.808C329.425 438.725 329.625 438.602 329.794 438.44C329.963 438.277 330.093 438.077 330.182 437.838L331.589 438.092C331.476 438.506 331.274 438.869 330.983 439.181C330.694 439.489 330.331 439.729 329.894 439.901C329.46 440.07 328.964 440.155 328.407 440.155Z" fill="black"/>
<path d="M345.614 433.13H344.063C344.003 432.799 343.892 432.507 343.73 432.255C343.567 432.003 343.368 431.789 343.133 431.614C342.898 431.438 342.634 431.306 342.343 431.216C342.054 431.127 341.748 431.082 341.423 431.082C340.836 431.082 340.311 431.229 339.847 431.524C339.386 431.819 339.022 432.252 338.753 432.822C338.488 433.392 338.355 434.088 338.355 434.91C338.355 435.739 338.488 436.438 338.753 437.008C339.022 437.578 339.388 438.009 339.852 438.301C340.316 438.592 340.838 438.738 341.418 438.738C341.739 438.738 342.044 438.695 342.333 438.609C342.624 438.519 342.888 438.388 343.123 438.216C343.359 438.044 343.557 437.833 343.72 437.585C343.886 437.333 344 437.044 344.063 436.72L345.614 436.725C345.531 437.225 345.37 437.686 345.132 438.107C344.896 438.524 344.593 438.886 344.222 439.191C343.854 439.492 343.433 439.726 342.959 439.892C342.485 440.057 341.968 440.14 341.408 440.14C340.526 440.14 339.741 439.931 339.051 439.514C338.362 439.093 337.819 438.491 337.421 437.709C337.026 436.927 336.829 435.994 336.829 434.91C336.829 433.823 337.028 432.89 337.426 432.111C337.824 431.329 338.367 430.729 339.056 430.311C339.746 429.89 340.53 429.68 341.408 429.68C341.948 429.68 342.452 429.758 342.919 429.914C343.39 430.066 343.813 430.291 344.187 430.59C344.562 430.885 344.872 431.246 345.117 431.673C345.362 432.098 345.528 432.583 345.614 433.13Z" fill="black"/>
<path d="M350.55 440.155C349.834 440.155 349.209 439.991 348.675 439.663C348.142 439.335 347.727 438.876 347.432 438.286C347.137 437.696 346.99 437.006 346.99 436.218C346.99 435.425 347.137 434.733 347.432 434.139C347.727 433.546 348.142 433.085 348.675 432.757C349.209 432.429 349.834 432.265 350.55 432.265C351.265 432.265 351.89 432.429 352.424 432.757C352.957 433.085 353.372 433.546 353.667 434.139C353.962 434.733 354.109 435.425 354.109 436.218C354.109 437.006 353.962 437.696 353.667 438.286C353.372 438.876 352.957 439.335 352.424 439.663C351.89 439.991 351.265 440.155 350.55 440.155ZM350.555 438.907C351.019 438.907 351.403 438.785 351.708 438.539C352.013 438.294 352.238 437.968 352.384 437.56C352.533 437.152 352.608 436.703 352.608 436.213C352.608 435.725 352.533 435.278 352.384 434.87C352.238 434.459 352.013 434.129 351.708 433.881C351.403 433.632 351.019 433.508 350.555 433.508C350.087 433.508 349.699 433.632 349.391 433.881C349.086 434.129 348.859 434.459 348.71 434.87C348.564 435.278 348.491 435.725 348.491 436.213C348.491 436.703 348.564 437.152 348.71 437.56C348.859 437.968 349.086 438.294 349.391 438.539C349.699 438.785 350.087 438.907 350.555 438.907Z" fill="black"/>
<path d="M360.606 436.834V432.365H362.097V440.001H360.636V438.678H360.556C360.38 439.086 360.099 439.426 359.711 439.698C359.326 439.966 358.848 440.1 358.274 440.1C357.784 440.1 357.349 439.993 356.972 439.777C356.597 439.558 356.302 439.235 356.087 438.808C355.875 438.38 355.768 437.852 355.768 437.222V432.365H357.255V437.043C357.255 437.563 357.399 437.977 357.688 438.286C357.976 438.594 358.35 438.748 358.811 438.748C359.089 438.748 359.366 438.678 359.641 438.539C359.92 438.4 360.15 438.19 360.332 437.908C360.518 437.626 360.609 437.268 360.606 436.834Z" fill="black"/>
<path d="M365.581 435.467V440.001H364.095V432.365H365.521V433.607H365.616C365.792 433.203 366.067 432.878 366.441 432.633C366.819 432.388 367.295 432.265 367.868 432.265C368.388 432.265 368.844 432.374 369.235 432.593C369.626 432.809 369.93 433.13 370.145 433.558C370.36 433.985 370.468 434.514 370.468 435.144V440.001H368.982V435.323C368.982 434.769 368.838 434.337 368.549 434.025C368.261 433.71 367.865 433.553 367.361 433.553C367.016 433.553 366.71 433.627 366.441 433.776C366.176 433.926 365.966 434.144 365.81 434.433C365.657 434.718 365.581 435.062 365.581 435.467Z" fill="black"/>
<path d="M375.678 440.155C374.939 440.155 374.303 439.988 373.769 439.653C373.239 439.315 372.831 438.849 372.546 438.256C372.261 437.663 372.119 436.983 372.119 436.218C372.119 435.442 372.265 434.758 372.556 434.164C372.848 433.568 373.259 433.102 373.789 432.767C374.32 432.432 374.944 432.265 375.664 432.265C376.244 432.265 376.761 432.373 377.215 432.588C377.669 432.8 378.035 433.099 378.313 433.483C378.595 433.868 378.762 434.317 378.816 434.83H377.369C377.289 434.472 377.107 434.164 376.822 433.906C376.54 433.647 376.162 433.518 375.688 433.518C375.274 433.518 374.911 433.627 374.6 433.846C374.291 434.061 374.051 434.37 373.879 434.771C373.706 435.169 373.62 435.639 373.62 436.183C373.62 436.74 373.705 437.22 373.874 437.624C374.043 438.029 374.281 438.342 374.59 438.564C374.901 438.786 375.267 438.897 375.688 438.897C375.97 438.897 376.225 438.846 376.454 438.743C376.686 438.637 376.88 438.486 377.036 438.291C377.195 438.095 377.306 437.86 377.369 437.585H378.816C378.762 438.079 378.602 438.519 378.333 438.907C378.065 439.295 377.705 439.6 377.254 439.822C376.807 440.044 376.282 440.155 375.678 440.155Z" fill="black"/>
<path d="M380.405 440.001V432.365H381.892V440.001H380.405ZM381.156 431.186C380.897 431.186 380.675 431.1 380.49 430.928C380.307 430.752 380.216 430.543 380.216 430.301C380.216 430.056 380.307 429.847 380.49 429.675C380.675 429.499 380.897 429.411 381.156 429.411C381.414 429.411 381.635 429.499 381.817 429.675C382.003 429.847 382.096 430.056 382.096 430.301C382.096 430.543 382.003 430.752 381.817 430.928C381.635 431.1 381.414 431.186 381.156 431.186Z" fill="black"/>
<path d="M385.378 429.819V440.001H383.892V429.819H385.378Z" fill="black"/>
<path d="M391.202 429.819H393.067L396.308 437.734H396.427L399.669 429.819H401.533V440.001H400.072V432.633H399.977L396.974 439.986H395.761L392.758 432.628H392.664V440.001H391.202V429.819Z" fill="black"/>
<path d="M406.939 440.155C406.186 440.155 405.538 439.994 404.995 439.673C404.454 439.348 404.037 438.892 403.742 438.306C403.45 437.716 403.304 437.025 403.304 436.232C403.304 435.45 403.45 434.761 403.742 434.164C404.037 433.568 404.448 433.102 404.975 432.767C405.505 432.432 406.125 432.265 406.834 432.265C407.265 432.265 407.683 432.336 408.087 432.479C408.491 432.621 408.854 432.845 409.176 433.15C409.497 433.455 409.751 433.851 409.936 434.338C410.122 434.822 410.215 435.41 410.215 436.103V436.63H404.145V435.517H408.758C408.758 435.125 408.679 434.779 408.52 434.477C408.36 434.173 408.137 433.932 407.848 433.757C407.563 433.581 407.229 433.493 406.844 433.493C406.426 433.493 406.062 433.596 405.75 433.801C405.442 434.003 405.203 434.269 405.034 434.597C404.869 434.922 404.786 435.275 404.786 435.656V436.526C404.786 437.036 404.875 437.47 405.054 437.828C405.237 438.186 405.49 438.46 405.815 438.649C406.14 438.834 406.519 438.927 406.953 438.927C407.235 438.927 407.492 438.887 407.724 438.808C407.956 438.725 408.157 438.602 408.326 438.44C408.495 438.277 408.624 438.077 408.713 437.838L410.12 438.092C410.008 438.506 409.805 438.869 409.514 439.181C409.225 439.489 408.863 439.729 408.425 439.901C407.991 440.07 407.495 440.155 406.939 440.155Z" fill="black"/>
<path d="M411.864 440.001V432.365H413.291V433.607H413.385C413.545 433.186 413.805 432.858 414.166 432.623C414.527 432.384 414.96 432.265 415.464 432.265C415.974 432.265 416.402 432.384 416.746 432.623C417.094 432.862 417.351 433.19 417.517 433.607H417.596C417.779 433.2 418.069 432.875 418.466 432.633C418.864 432.388 419.338 432.265 419.888 432.265C420.581 432.265 421.146 432.482 421.584 432.916C422.024 433.351 422.245 434.005 422.245 434.88V440.001H420.758V435.019C420.758 434.502 420.617 434.128 420.336 433.896C420.054 433.664 419.718 433.548 419.327 433.548C418.843 433.548 418.466 433.697 418.198 433.995C417.93 434.29 417.795 434.67 417.795 435.134V440.001H416.314V434.925C416.314 434.511 416.184 434.177 415.926 433.926C415.667 433.674 415.331 433.548 414.917 433.548C414.635 433.548 414.375 433.622 414.136 433.771C413.901 433.917 413.71 434.121 413.564 434.383C413.422 434.645 413.351 434.948 413.351 435.293V440.001H411.864Z" fill="black"/>
<path d="M424.357 440.001V429.819H425.843V433.602H425.933C426.019 433.443 426.143 433.259 426.305 433.051C426.468 432.842 426.693 432.66 426.982 432.504C427.27 432.345 427.651 432.265 428.125 432.265C428.741 432.265 429.292 432.421 429.776 432.732C430.259 433.044 430.639 433.493 430.914 434.08C431.192 434.666 431.332 435.372 431.332 436.198C431.332 437.023 431.194 437.731 430.919 438.32C430.644 438.907 430.266 439.36 429.785 439.678C429.305 439.993 428.756 440.15 428.14 440.15C427.676 440.15 427.296 440.072 427.001 439.916C426.71 439.761 426.481 439.578 426.315 439.369C426.15 439.161 426.022 438.975 425.933 438.813H425.808V440.001H424.357ZM425.813 436.183C425.813 436.72 425.891 437.19 426.047 437.595C426.203 437.999 426.428 438.316 426.723 438.544C427.018 438.77 427.379 438.882 427.807 438.882C428.251 438.882 428.622 438.765 428.92 438.529C429.219 438.291 429.444 437.968 429.597 437.56C429.752 437.152 429.83 436.693 429.83 436.183C429.83 435.679 429.754 435.227 429.602 434.825C429.452 434.424 429.227 434.108 428.925 433.876C428.627 433.644 428.254 433.528 427.807 433.528C427.376 433.528 427.011 433.639 426.713 433.861C426.418 434.083 426.194 434.393 426.042 434.791C425.889 435.188 425.813 435.652 425.813 436.183Z" fill="black"/>
<path d="M436.292 440.155C435.54 440.155 434.892 439.994 434.348 439.673C433.808 439.348 433.39 438.892 433.095 438.306C432.804 437.716 432.658 437.025 432.658 436.232C432.658 435.45 432.804 434.761 433.095 434.164C433.39 433.568 433.801 433.102 434.328 432.767C434.859 432.432 435.478 432.265 436.188 432.265C436.619 432.265 437.036 432.336 437.441 432.479C437.845 432.621 438.208 432.845 438.529 433.15C438.851 433.455 439.104 433.851 439.29 434.338C439.476 434.822 439.568 435.41 439.568 436.103V436.63H433.498V435.517H438.112C438.112 435.125 438.032 434.779 437.873 434.477C437.714 434.173 437.49 433.932 437.202 433.757C436.917 433.581 436.582 433.493 436.198 433.493C435.78 433.493 435.415 433.596 435.104 433.801C434.796 434.003 434.557 434.269 434.388 434.597C434.222 434.922 434.139 435.275 434.139 435.656V436.526C434.139 437.036 434.229 437.47 434.408 437.828C434.59 438.186 434.844 438.46 435.168 438.649C435.493 438.834 435.873 438.927 436.307 438.927C436.589 438.927 436.846 438.887 437.078 438.808C437.31 438.725 437.51 438.602 437.679 438.44C437.848 438.277 437.977 438.077 438.067 437.838L439.474 438.092C439.361 438.506 439.159 438.869 438.867 439.181C438.579 439.489 438.216 439.729 437.779 439.901C437.344 440.07 436.849 440.155 436.292 440.155Z" fill="black"/>
<path d="M441.218 440.001V432.365H442.654V433.578H442.734C442.873 433.167 443.118 432.843 443.47 432.608C443.824 432.369 444.226 432.25 444.673 432.25C444.766 432.25 444.875 432.253 445.001 432.26C445.13 432.267 445.231 432.275 445.304 432.285V433.707C445.245 433.69 445.139 433.672 444.986 433.652C444.834 433.629 444.681 433.617 444.529 433.617C444.177 433.617 443.864 433.692 443.589 433.841C443.317 433.987 443.102 434.191 442.943 434.453C442.784 434.711 442.704 435.006 442.704 435.338V440.001H441.218Z" fill="black"/>
<path d="M452.313 434.229L450.966 434.468C450.909 434.295 450.82 434.131 450.697 433.975C450.578 433.82 450.416 433.692 450.21 433.593C450.005 433.493 449.748 433.443 449.439 433.443C449.019 433.443 448.667 433.538 448.385 433.727C448.104 433.912 447.963 434.153 447.963 434.448C447.963 434.703 448.057 434.908 448.246 435.064C448.435 435.22 448.74 435.347 449.161 435.447L450.374 435.725C451.077 435.888 451.6 436.138 451.945 436.476C452.29 436.814 452.462 437.253 452.462 437.794C452.462 438.251 452.33 438.659 452.064 439.017C451.803 439.371 451.436 439.65 450.966 439.852C450.498 440.054 449.956 440.155 449.34 440.155C448.485 440.155 447.787 439.973 447.247 439.608C446.707 439.24 446.375 438.718 446.253 438.042L447.689 437.823C447.779 438.198 447.963 438.481 448.241 438.673C448.52 438.862 448.883 438.957 449.33 438.957C449.817 438.957 450.207 438.856 450.498 438.654C450.79 438.448 450.936 438.198 450.936 437.903C450.936 437.664 450.846 437.464 450.667 437.301C450.492 437.139 450.222 437.016 449.857 436.933L448.564 436.65C447.852 436.488 447.325 436.229 446.983 435.874C446.645 435.52 446.476 435.071 446.476 434.527C446.476 434.076 446.602 433.682 446.854 433.344C447.106 433.006 447.454 432.742 447.898 432.553C448.342 432.361 448.851 432.265 449.425 432.265C450.25 432.265 450.899 432.444 451.373 432.802C451.847 433.157 452.161 433.632 452.313 434.229Z" fill="black"/>
<path d="M461.018 440.155C460.279 440.155 459.643 439.988 459.109 439.653C458.579 439.315 458.171 438.849 457.886 438.256C457.601 437.663 457.459 436.983 457.459 436.218C457.459 435.442 457.604 434.758 457.896 434.164C458.188 433.568 458.599 433.102 459.129 432.767C459.659 432.432 460.284 432.265 461.003 432.265C461.583 432.265 462.1 432.373 462.555 432.588C463.009 432.8 463.375 433.099 463.653 433.483C463.935 433.868 464.102 434.317 464.155 434.83H462.709C462.629 434.472 462.447 434.164 462.162 433.906C461.88 433.647 461.502 433.518 461.028 433.518C460.614 433.518 460.251 433.627 459.939 433.846C459.631 434.061 459.391 434.37 459.219 434.771C459.046 435.169 458.96 435.639 458.96 436.183C458.96 436.74 459.045 437.22 459.214 437.624C459.383 438.029 459.621 438.342 459.93 438.564C460.241 438.786 460.607 438.897 461.028 438.897C461.31 438.897 461.565 438.846 461.794 438.743C462.026 438.637 462.22 438.486 462.376 438.291C462.535 438.095 462.646 437.86 462.709 437.585H464.155C464.102 438.079 463.942 438.519 463.673 438.907C463.405 439.295 463.045 439.6 462.594 439.822C462.147 440.044 461.621 440.155 461.018 440.155Z" fill="black"/>
<path d="M467.967 440.17C467.483 440.17 467.046 440.08 466.655 439.901C466.264 439.719 465.954 439.456 465.725 439.111C465.5 438.766 465.387 438.344 465.387 437.843C465.387 437.412 465.47 437.058 465.636 436.779C465.801 436.501 466.025 436.28 466.307 436.118C466.589 435.956 466.903 435.833 467.251 435.75C467.599 435.667 467.954 435.604 468.315 435.561C468.773 435.508 469.144 435.465 469.429 435.432C469.714 435.396 469.921 435.338 470.05 435.258C470.18 435.178 470.244 435.049 470.244 434.87V434.835C470.244 434.401 470.122 434.065 469.876 433.826C469.634 433.588 469.273 433.468 468.793 433.468C468.292 433.468 467.898 433.579 467.609 433.801C467.324 434.02 467.127 434.264 467.018 434.532L465.621 434.214C465.786 433.75 466.028 433.375 466.347 433.09C466.668 432.802 467.038 432.593 467.455 432.464C467.873 432.331 468.312 432.265 468.773 432.265C469.078 432.265 469.401 432.302 469.742 432.374C470.087 432.444 470.408 432.573 470.707 432.762C471.008 432.951 471.255 433.221 471.447 433.573C471.64 433.921 471.736 434.373 471.736 434.93V440.001H470.284V438.957H470.224C470.128 439.149 469.984 439.338 469.792 439.524C469.6 439.709 469.353 439.863 469.051 439.986C468.75 440.109 468.388 440.17 467.967 440.17ZM468.29 438.977C468.701 438.977 469.053 438.896 469.344 438.733C469.639 438.571 469.863 438.359 470.016 438.097C470.171 437.832 470.249 437.548 470.249 437.247V436.262C470.196 436.315 470.094 436.365 469.941 436.411C469.792 436.454 469.621 436.493 469.429 436.526C469.237 436.556 469.049 436.584 468.867 436.61C468.685 436.633 468.532 436.653 468.41 436.67C468.121 436.706 467.858 436.768 467.619 436.854C467.384 436.94 467.195 437.064 467.053 437.227C466.913 437.386 466.844 437.598 466.844 437.863C466.844 438.231 466.98 438.509 467.251 438.698C467.523 438.884 467.87 438.977 468.29 438.977Z" fill="black"/>
<path d="M475.202 435.467V440.001H473.716V432.365H475.143V433.607H475.237C475.413 433.203 475.688 432.878 476.062 432.633C476.44 432.388 476.916 432.265 477.489 432.265C478.01 432.265 478.465 432.374 478.856 432.593C479.247 432.809 479.551 433.13 479.766 433.558C479.982 433.985 480.089 434.514 480.089 435.144V440.001H478.603V435.323C478.603 434.769 478.459 434.337 478.17 434.025C477.882 433.71 477.486 433.553 476.982 433.553C476.637 433.553 476.331 433.627 476.062 433.776C475.797 433.926 475.587 434.144 475.431 434.433C475.278 434.718 475.202 435.062 475.202 435.467Z" fill="black"/>
<path d="M491.51 434.229L490.163 434.468C490.107 434.295 490.017 434.131 489.895 433.975C489.775 433.82 489.613 433.692 489.407 433.593C489.202 433.493 488.945 433.443 488.637 433.443C488.216 433.443 487.864 433.538 487.583 433.727C487.301 433.912 487.16 434.153 487.16 434.448C487.16 434.703 487.255 434.908 487.444 435.064C487.632 435.22 487.937 435.347 488.358 435.447L489.571 435.725C490.274 435.888 490.798 436.138 491.142 436.476C491.487 436.814 491.659 437.253 491.659 437.794C491.659 438.251 491.527 438.659 491.262 439.017C491 439.371 490.634 439.65 490.163 439.852C489.696 440.054 489.154 440.155 488.537 440.155C487.682 440.155 486.984 439.973 486.444 439.608C485.904 439.24 485.573 438.718 485.45 438.042L486.887 437.823C486.976 438.198 487.16 438.481 487.439 438.673C487.717 438.862 488.08 438.957 488.527 438.957C489.015 438.957 489.404 438.856 489.696 438.654C489.987 438.448 490.133 438.198 490.133 437.903C490.133 437.664 490.044 437.464 489.865 437.301C489.689 437.139 489.419 437.016 489.054 436.933L487.762 436.65C487.049 436.488 486.522 436.229 486.181 435.874C485.843 435.52 485.674 435.071 485.674 434.527C485.674 434.076 485.8 433.682 486.051 433.344C486.303 433.006 486.651 432.742 487.096 432.553C487.54 432.361 488.048 432.265 488.622 432.265C489.447 432.265 490.097 432.444 490.571 432.802C491.045 433.157 491.358 433.632 491.51 434.229Z" fill="black"/>
<path d="M496.858 432.365V433.558H492.687V432.365H496.858ZM493.806 430.535H495.292V437.759C495.292 438.047 495.336 438.264 495.422 438.41C495.508 438.552 495.619 438.65 495.755 438.703C495.894 438.753 496.045 438.778 496.207 438.778C496.327 438.778 496.431 438.77 496.52 438.753C496.61 438.736 496.68 438.723 496.729 438.713L496.998 439.941C496.912 439.974 496.789 440.008 496.63 440.041C496.471 440.077 496.272 440.097 496.033 440.1C495.642 440.107 495.278 440.037 494.939 439.892C494.601 439.746 494.328 439.52 494.119 439.215C493.91 438.91 493.806 438.528 493.806 438.067V430.535Z" fill="black"/>
<path d="M500.725 440.17C500.241 440.17 499.804 440.08 499.413 439.901C499.022 439.719 498.712 439.456 498.483 439.111C498.258 438.766 498.145 438.344 498.145 437.843C498.145 437.412 498.228 437.058 498.393 436.779C498.559 436.501 498.783 436.28 499.065 436.118C499.346 435.956 499.661 435.833 500.009 435.75C500.357 435.667 500.712 435.604 501.073 435.561C501.531 435.508 501.902 435.465 502.187 435.432C502.472 435.396 502.679 435.338 502.808 435.258C502.937 435.178 503.002 435.049 503.002 434.87V434.835C503.002 434.401 502.879 434.065 502.634 433.826C502.392 433.588 502.031 433.468 501.55 433.468C501.05 433.468 500.656 433.579 500.367 433.801C500.082 434.02 499.885 434.264 499.776 434.532L498.379 434.214C498.544 433.75 498.786 433.375 499.104 433.09C499.426 432.802 499.795 432.593 500.213 432.464C500.631 432.331 501.07 432.265 501.531 432.265C501.835 432.265 502.159 432.302 502.5 432.374C502.845 432.444 503.166 432.573 503.464 432.762C503.766 432.951 504.013 433.221 504.205 433.573C504.397 433.921 504.494 434.373 504.494 434.93V440.001H503.042V438.957H502.982C502.886 439.149 502.742 439.338 502.55 439.524C502.357 439.709 502.111 439.863 501.809 439.986C501.507 440.109 501.146 440.17 500.725 440.17ZM501.048 438.977C501.459 438.977 501.811 438.896 502.102 438.733C502.397 438.571 502.621 438.359 502.773 438.097C502.929 437.832 503.007 437.548 503.007 437.247V436.262C502.954 436.315 502.851 436.365 502.699 436.411C502.55 436.454 502.379 436.493 502.187 436.526C501.995 436.556 501.807 436.584 501.625 436.61C501.443 436.633 501.29 436.653 501.168 436.67C500.879 436.706 500.616 436.768 500.377 436.854C500.142 436.94 499.953 437.064 499.81 437.227C499.671 437.386 499.602 437.598 499.602 437.863C499.602 438.231 499.737 438.509 500.009 438.698C500.281 438.884 500.627 438.977 501.048 438.977Z" fill="black"/>
<path d="M506.474 440.001V432.365H507.91V433.578H507.99C508.129 433.167 508.374 432.843 508.726 432.608C509.08 432.369 509.481 432.25 509.929 432.25C510.022 432.25 510.131 432.253 510.257 432.26C510.386 432.267 510.487 432.275 510.56 432.285V433.707C510.501 433.69 510.394 433.672 510.242 433.652C510.09 433.629 509.937 433.617 509.785 433.617C509.433 433.617 509.12 433.692 508.845 433.841C508.573 433.987 508.358 434.191 508.199 434.453C508.04 434.711 507.96 435.006 507.96 435.338V440.001H506.474Z" fill="black"/>
<path d="M515.862 432.365V433.558H511.691V432.365H515.862ZM512.81 430.535H514.296V437.759C514.296 438.047 514.339 438.264 514.426 438.41C514.512 438.552 514.623 438.65 514.759 438.703C514.898 438.753 515.049 438.778 515.211 438.778C515.33 438.778 515.435 438.77 515.524 438.753C515.614 438.736 515.683 438.723 515.733 438.713L516.002 439.941C515.915 439.974 515.793 440.008 515.634 440.041C515.475 440.077 515.276 440.097 515.037 440.1C514.646 440.107 514.281 440.037 513.943 439.892C513.605 439.746 513.332 439.52 513.123 439.215C512.914 438.91 512.81 438.528 512.81 438.067V430.535Z" fill="black"/>
<path d="M524.776 432.365V433.558H520.605V432.365H524.776ZM521.724 430.535H523.21V437.759C523.21 438.047 523.253 438.264 523.34 438.41C523.426 438.552 523.537 438.65 523.673 438.703C523.812 438.753 523.963 438.778 524.125 438.778C524.244 438.778 524.349 438.77 524.438 438.753C524.528 438.736 524.597 438.723 524.647 438.713L524.916 439.941C524.829 439.974 524.707 440.008 524.548 440.041C524.389 440.077 524.19 440.097 523.951 440.1C523.56 440.107 523.195 440.037 522.857 439.892C522.519 439.746 522.246 439.52 522.037 439.215C521.828 438.91 521.724 438.528 521.724 438.067V430.535Z" fill="black"/>
<path d="M529.555 440.155C528.839 440.155 528.215 439.991 527.681 439.663C527.147 439.335 526.733 438.876 526.438 438.286C526.143 437.696 525.996 437.006 525.996 436.218C525.996 435.425 526.143 434.733 526.438 434.139C526.733 433.546 527.147 433.085 527.681 432.757C528.215 432.429 528.839 432.265 529.555 432.265C530.271 432.265 530.896 432.429 531.43 432.757C531.963 433.085 532.378 433.546 532.673 434.139C532.968 434.733 533.115 435.425 533.115 436.218C533.115 437.006 532.968 437.696 532.673 438.286C532.378 438.876 531.963 439.335 531.43 439.663C530.896 439.991 530.271 440.155 529.555 440.155ZM529.56 438.907C530.024 438.907 530.409 438.785 530.714 438.539C531.019 438.294 531.244 437.968 531.39 437.56C531.539 437.152 531.614 436.703 531.614 436.213C531.614 435.725 531.539 435.278 531.39 434.87C531.244 434.459 531.019 434.129 530.714 433.881C530.409 433.632 530.024 433.508 529.56 433.508C529.093 433.508 528.705 433.632 528.397 433.881C528.092 434.129 527.865 434.459 527.716 434.87C527.57 435.278 527.497 435.725 527.497 436.213C527.497 436.703 527.57 437.152 527.716 437.56C527.865 437.968 528.092 438.294 528.397 438.539C528.705 438.785 529.093 438.907 529.56 438.907Z" fill="black"/>
<path d="M539.489 429.819L542.322 438.112H542.437L545.271 429.819H546.931L543.267 440.001H541.492L537.828 429.819H539.489Z" fill="black"/>
<path d="M550.733 440.155C550.017 440.155 549.392 439.991 548.859 439.663C548.325 439.335 547.911 438.876 547.616 438.286C547.321 437.696 547.173 437.006 547.173 436.218C547.173 435.425 547.321 434.733 547.616 434.139C547.911 433.546 548.325 433.085 548.859 432.757C549.392 432.429 550.017 432.265 550.733 432.265C551.449 432.265 552.074 432.429 552.607 432.757C553.141 433.085 553.555 433.546 553.85 434.139C554.145 434.733 554.293 435.425 554.293 436.218C554.293 437.006 554.145 437.696 553.85 438.286C553.555 438.876 553.141 439.335 552.607 439.663C552.074 439.991 551.449 440.155 550.733 440.155ZM550.738 438.907C551.202 438.907 551.587 438.785 551.892 438.539C552.196 438.294 552.422 437.968 552.568 437.56C552.717 437.152 552.791 436.703 552.791 436.213C552.791 435.725 552.717 435.278 552.568 434.87C552.422 434.459 552.196 434.129 551.892 433.881C551.587 433.632 551.202 433.508 550.738 433.508C550.271 433.508 549.883 433.632 549.575 433.881C549.27 434.129 549.043 434.459 548.894 434.87C548.748 435.278 548.675 435.725 548.675 436.213C548.675 436.703 548.748 437.152 548.894 437.56C549.043 437.968 549.27 438.294 549.575 438.539C549.883 438.785 550.271 438.907 550.738 438.907Z" fill="black"/>
<path d="M559.517 432.365V433.558H555.346V432.365H559.517ZM556.464 430.535H557.951V437.759C557.951 438.047 557.994 438.264 558.08 438.41C558.166 438.552 558.277 438.65 558.413 438.703C558.552 438.753 558.703 438.778 558.865 438.778C558.985 438.778 559.089 438.77 559.179 438.753C559.268 438.736 559.338 438.723 559.387 438.713L559.656 439.941C559.57 439.974 559.447 440.008 559.288 440.041C559.129 440.077 558.93 440.097 558.691 440.1C558.3 440.107 557.936 440.037 557.598 439.892C557.26 439.746 556.986 439.52 556.777 439.215C556.569 438.91 556.464 438.528 556.464 438.067V430.535Z" fill="black"/>
<path d="M564.37 440.155C563.618 440.155 562.97 439.994 562.426 439.673C561.886 439.348 561.468 438.892 561.173 438.306C560.882 437.716 560.736 437.025 560.736 436.232C560.736 435.45 560.882 434.761 561.173 434.164C561.468 433.568 561.879 433.102 562.406 432.767C562.937 432.432 563.556 432.265 564.266 432.265C564.697 432.265 565.114 432.336 565.519 432.479C565.923 432.621 566.286 432.845 566.607 433.15C566.929 433.455 567.182 433.851 567.368 434.338C567.554 434.822 567.646 435.41 567.646 436.103V436.63H561.576V435.517H566.19C566.19 435.125 566.11 434.779 565.951 434.477C565.792 434.173 565.568 433.932 565.28 433.757C564.995 433.581 564.66 433.493 564.276 433.493C563.858 433.493 563.494 433.596 563.182 433.801C562.874 434.003 562.635 434.269 562.466 434.597C562.3 434.922 562.217 435.275 562.217 435.656V436.526C562.217 437.036 562.307 437.47 562.486 437.828C562.668 438.186 562.922 438.46 563.247 438.649C563.571 438.834 563.951 438.927 564.385 438.927C564.667 438.927 564.924 438.887 565.156 438.808C565.388 438.725 565.588 438.602 565.757 438.44C565.926 438.277 566.056 438.077 566.145 437.838L567.552 438.092C567.439 438.506 567.237 438.869 566.945 439.181C566.657 439.489 566.294 439.729 565.857 439.901C565.423 440.07 564.927 440.155 564.37 440.155Z" fill="black"/>
<path d="M576.635 432.365V433.558H572.32V432.365H576.635ZM573.503 440.001V431.48C573.503 431.002 573.607 430.606 573.816 430.291C574.025 429.973 574.302 429.736 574.646 429.58C574.991 429.421 575.366 429.342 575.77 429.342C576.068 429.342 576.324 429.367 576.536 429.416C576.748 429.463 576.905 429.506 577.008 429.546L576.66 430.749C576.59 430.729 576.501 430.706 576.391 430.679C576.282 430.649 576.15 430.634 575.994 430.634C575.633 430.634 575.374 430.724 575.218 430.903C575.066 431.082 574.99 431.34 574.99 431.678V440.001H573.503Z" fill="black"/>
<path d="M581.085 440.155C580.369 440.155 579.744 439.991 579.21 439.663C578.677 439.335 578.262 438.876 577.967 438.286C577.672 437.696 577.525 437.006 577.525 436.218C577.525 435.425 577.672 434.733 577.967 434.139C578.262 433.546 578.677 433.085 579.21 432.757C579.744 432.429 580.369 432.265 581.085 432.265C581.801 432.265 582.425 432.429 582.959 432.757C583.493 433.085 583.907 433.546 584.202 434.139C584.497 434.733 584.644 435.425 584.644 436.218C584.644 437.006 584.497 437.696 584.202 438.286C583.907 438.876 583.493 439.335 582.959 439.663C582.425 439.991 581.801 440.155 581.085 440.155ZM581.09 438.907C581.554 438.907 581.938 438.785 582.243 438.539C582.548 438.294 582.773 437.968 582.919 437.56C583.068 437.152 583.143 436.703 583.143 436.213C583.143 435.725 583.068 435.278 582.919 434.87C582.773 434.459 582.548 434.129 582.243 433.881C581.938 433.632 581.554 433.508 581.09 433.508C580.622 433.508 580.235 433.632 579.926 433.881C579.621 434.129 579.394 434.459 579.245 434.87C579.099 435.278 579.026 435.725 579.026 436.213C579.026 436.703 579.099 437.152 579.245 437.56C579.394 437.968 579.621 438.294 579.926 438.539C580.235 438.785 580.622 438.907 581.09 438.907Z" fill="black"/>
<path d="M586.304 440.001V432.365H587.74V433.578H587.82C587.959 433.167 588.204 432.843 588.556 432.608C588.91 432.369 589.311 432.25 589.759 432.25C589.852 432.25 589.961 432.253 590.087 432.26C590.216 432.267 590.317 432.275 590.39 432.285V433.707C590.331 433.69 590.225 433.672 590.072 433.652C589.92 433.629 589.767 433.617 589.615 433.617C589.263 433.617 588.95 433.692 588.675 433.841C588.403 433.987 588.188 434.191 588.029 434.453C587.87 434.711 587.79 435.006 587.79 435.338V440.001H586.304Z" fill="black"/>
<path d="M598.946 432.365V433.558H594.775V432.365H598.946ZM595.894 430.535H597.38V437.759C597.38 438.047 597.423 438.264 597.51 438.41C597.596 438.552 597.707 438.65 597.843 438.703C597.982 438.753 598.133 438.778 598.295 438.778C598.414 438.778 598.519 438.77 598.608 438.753C598.698 438.736 598.767 438.723 598.817 438.713L599.086 439.941C598.999 439.974 598.877 440.008 598.718 440.041C598.559 440.077 598.36 440.097 598.121 440.1C597.73 440.107 597.365 440.037 597.027 439.892C596.689 439.746 596.416 439.52 596.207 439.215C595.998 438.91 595.894 438.528 595.894 438.067V430.535Z" fill="black"/>
<path d="M602.241 435.467V440.001H600.755V429.819H602.221V433.607H602.316C602.495 433.196 602.768 432.87 603.136 432.628C603.504 432.386 603.985 432.265 604.578 432.265C605.102 432.265 605.559 432.373 605.95 432.588C606.344 432.804 606.649 433.125 606.865 433.553C607.084 433.977 607.193 434.507 607.193 435.144V440.001H605.706V435.323C605.706 434.762 605.562 434.328 605.274 434.02C604.986 433.709 604.585 433.553 604.071 433.553C603.72 433.553 603.405 433.627 603.126 433.776C602.851 433.926 602.634 434.144 602.475 434.433C602.319 434.718 602.241 435.062 602.241 435.467Z" fill="black"/>
<path d="M612.468 440.155C611.715 440.155 611.068 439.994 610.524 439.673C609.984 439.348 609.566 438.892 609.271 438.306C608.979 437.716 608.834 437.025 608.834 436.232C608.834 435.45 608.979 434.761 609.271 434.164C609.566 433.568 609.977 433.102 610.504 432.767C611.034 432.432 611.654 432.265 612.363 432.265C612.794 432.265 613.212 432.336 613.616 432.479C614.021 432.621 614.384 432.845 614.705 433.15C615.027 433.455 615.28 433.851 615.466 434.338C615.651 434.822 615.744 435.41 615.744 436.103V436.63H609.674V435.517H614.287C614.287 435.125 614.208 434.779 614.049 434.477C613.89 434.173 613.666 433.932 613.378 433.757C613.093 433.581 612.758 433.493 612.373 433.493C611.956 433.493 611.591 433.596 611.28 433.801C610.971 434.003 610.733 434.269 610.564 434.597C610.398 434.922 610.315 435.275 610.315 435.656V436.526C610.315 437.036 610.405 437.47 610.584 437.828C610.766 438.186 611.019 438.46 611.344 438.649C611.669 438.834 612.049 438.927 612.483 438.927C612.765 438.927 613.021 438.887 613.253 438.808C613.485 438.725 613.686 438.602 613.855 438.44C614.024 438.277 614.153 438.077 614.243 437.838L615.65 438.092C615.537 438.506 615.335 438.869 615.043 439.181C614.755 439.489 614.392 439.729 613.954 439.901C613.52 440.07 613.025 440.155 612.468 440.155Z" fill="black"/>
<path d="M617.393 440.001V432.365H618.88V440.001H617.393ZM618.144 431.186C617.886 431.186 617.664 431.1 617.478 430.928C617.296 430.752 617.205 430.543 617.205 430.301C617.205 430.056 617.296 429.847 617.478 429.675C617.664 429.499 617.886 429.411 618.144 429.411C618.403 429.411 618.623 429.499 618.805 429.675C618.991 429.847 619.084 430.056 619.084 430.301C619.084 430.543 618.991 430.752 618.805 430.928C618.623 431.1 618.403 431.186 618.144 431.186Z" fill="black"/>
<path d="M620.88 440.001V432.365H622.317V433.578H622.396C622.535 433.167 622.781 432.843 623.132 432.608C623.487 432.369 623.888 432.25 624.335 432.25C624.428 432.25 624.537 432.253 624.663 432.26C624.792 432.267 624.894 432.275 624.966 432.285V433.707C624.907 433.69 624.801 433.672 624.648 433.652C624.496 433.629 624.343 433.617 624.191 433.617C623.84 433.617 623.526 433.692 623.251 433.841C622.979 433.987 622.764 434.191 622.605 434.453C622.446 434.711 622.366 435.006 622.366 435.338V440.001H620.88Z" fill="black"/>
<path d="M632.817 440.15C632.2 440.15 631.65 439.993 631.166 439.678C630.685 439.36 630.308 438.907 630.032 438.32C629.761 437.731 629.625 437.023 629.625 436.198C629.625 435.372 629.762 434.666 630.037 434.08C630.316 433.493 630.697 433.044 631.181 432.732C631.665 432.421 632.213 432.265 632.827 432.265C633.3 432.265 633.682 432.345 633.97 432.504C634.262 432.66 634.487 432.842 634.646 433.051C634.809 433.259 634.934 433.443 635.024 433.602H635.113V429.819H636.6V440.001H635.148V438.813H635.024C634.934 438.975 634.805 439.161 634.636 439.369C634.47 439.578 634.242 439.761 633.95 439.916C633.658 440.072 633.281 440.15 632.817 440.15ZM633.145 438.882C633.572 438.882 633.934 438.77 634.229 438.544C634.527 438.316 634.752 437.999 634.905 437.595C635.06 437.19 635.138 436.72 635.138 436.183C635.138 435.652 635.062 435.188 634.91 434.791C634.757 434.393 634.533 434.083 634.238 433.861C633.943 433.639 633.579 433.528 633.145 433.528C632.697 433.528 632.324 433.644 632.026 433.876C631.728 434.108 631.502 434.424 631.35 434.825C631.201 435.227 631.126 435.679 631.126 436.183C631.126 436.693 631.202 437.152 631.355 437.56C631.507 437.968 631.733 438.291 632.031 438.529C632.333 438.765 632.704 438.882 633.145 438.882Z" fill="black"/>
<path d="M642.013 440.155C641.26 440.155 640.612 439.994 640.069 439.673C639.529 439.348 639.111 438.892 638.816 438.306C638.524 437.716 638.379 437.025 638.379 436.232C638.379 435.45 638.524 434.761 638.816 434.164C639.111 433.568 639.522 433.102 640.049 432.767C640.579 432.432 641.199 432.265 641.908 432.265C642.339 432.265 642.757 432.336 643.161 432.479C643.566 432.621 643.929 432.845 644.25 433.15C644.571 433.455 644.825 433.851 645.011 434.338C645.196 434.822 645.289 435.41 645.289 436.103V436.63H639.219V435.517H643.832C643.832 435.125 643.753 434.779 643.594 434.477C643.435 434.173 643.211 433.932 642.923 433.757C642.638 433.581 642.303 433.493 641.918 433.493C641.501 433.493 641.136 433.596 640.825 433.801C640.516 434.003 640.278 434.269 640.109 434.597C639.943 434.922 639.86 435.275 639.86 435.656V436.526C639.86 437.036 639.95 437.47 640.129 437.828C640.311 438.186 640.564 438.46 640.889 438.649C641.214 438.834 641.594 438.927 642.028 438.927C642.309 438.927 642.566 438.887 642.798 438.808C643.03 438.725 643.231 438.602 643.4 438.44C643.569 438.277 643.698 438.077 643.788 437.838L645.195 438.092C645.082 438.506 644.88 438.869 644.588 439.181C644.3 439.489 643.937 439.729 643.499 439.901C643.065 440.07 642.57 440.155 642.013 440.155Z" fill="black"/>
<path d="M652.661 434.229L651.313 434.468C651.257 434.295 651.168 434.131 651.045 433.975C650.926 433.82 650.763 433.692 650.558 433.593C650.352 433.493 650.095 433.443 649.787 433.443C649.366 433.443 649.015 433.538 648.733 433.727C648.451 433.912 648.311 434.153 648.311 434.448C648.311 434.703 648.405 434.908 648.594 435.064C648.783 435.22 649.088 435.347 649.509 435.447L650.722 435.725C651.424 435.888 651.948 436.138 652.293 436.476C652.637 436.814 652.81 437.253 652.81 437.794C652.81 438.251 652.677 438.659 652.412 439.017C652.15 439.371 651.784 439.65 651.313 439.852C650.846 440.054 650.304 440.155 649.688 440.155C648.833 440.155 648.135 439.973 647.595 439.608C647.054 439.24 646.723 438.718 646.6 438.042L648.037 437.823C648.127 438.198 648.311 438.481 648.589 438.673C648.867 438.862 649.23 438.957 649.678 438.957C650.165 438.957 650.554 438.856 650.846 438.654C651.138 438.448 651.284 438.198 651.284 437.903C651.284 437.664 651.194 437.464 651.015 437.301C650.839 437.139 650.569 437.016 650.205 436.933L648.912 436.65C648.2 436.488 647.672 436.229 647.331 435.874C646.993 435.52 646.824 435.071 646.824 434.527C646.824 434.076 646.95 433.682 647.202 433.344C647.454 433.006 647.802 432.742 648.246 432.553C648.69 432.361 649.199 432.265 649.772 432.265C650.597 432.265 651.247 432.444 651.721 432.802C652.195 433.157 652.508 433.632 652.661 434.229Z" fill="black"/>
<path d="M654.444 440.001V432.365H655.931V440.001H654.444ZM655.195 431.186C654.936 431.186 654.714 431.1 654.529 430.928C654.346 430.752 654.255 430.543 654.255 430.301C654.255 430.056 654.346 429.847 654.529 429.675C654.714 429.499 654.936 429.411 655.195 429.411C655.453 429.411 655.674 429.499 655.856 429.675C656.042 429.847 656.135 430.056 656.135 430.301C656.135 430.543 656.042 430.752 655.856 430.928C655.674 431.1 655.453 431.186 655.195 431.186Z" fill="black"/>
<path d="M657.931 440.001V432.365H659.367V433.578H659.447C659.586 433.167 659.831 432.843 660.183 432.608C660.537 432.369 660.938 432.25 661.386 432.25C661.479 432.25 661.588 432.253 661.714 432.26C661.843 432.267 661.944 432.275 662.017 432.285V433.707C661.958 433.69 661.851 433.672 661.699 433.652C661.547 433.629 661.394 433.617 661.242 433.617C660.89 433.617 660.577 433.692 660.302 433.841C660.03 433.987 659.815 434.191 659.656 434.453C659.497 434.711 659.417 435.006 659.417 435.338V440.001H657.931Z" fill="black"/>
<path d="M666.321 440.155C665.569 440.155 664.921 439.994 664.378 439.673C663.837 439.348 663.42 438.892 663.125 438.306C662.833 437.716 662.687 437.025 662.687 436.232C662.687 435.45 662.833 434.761 663.125 434.164C663.42 433.568 663.831 433.102 664.358 432.767C664.888 432.432 665.508 432.265 666.217 432.265C666.648 432.265 667.065 432.336 667.47 432.479C667.874 432.621 668.237 432.845 668.559 433.15C668.88 433.455 669.134 433.851 669.319 434.338C669.505 434.822 669.598 435.41 669.598 436.103V436.63H663.527V435.517H668.141C668.141 435.125 668.061 434.779 667.902 434.477C667.743 434.173 667.519 433.932 667.231 433.757C666.946 433.581 666.611 433.493 666.227 433.493C665.809 433.493 665.445 433.596 665.133 433.801C664.825 434.003 664.586 434.269 664.417 434.597C664.252 434.922 664.169 435.275 664.169 435.656V436.526C664.169 437.036 664.258 437.47 664.437 437.828C664.619 438.186 664.873 438.46 665.198 438.649C665.523 438.834 665.902 438.927 666.336 438.927C666.618 438.927 666.875 438.887 667.107 438.808C667.339 438.725 667.539 438.602 667.708 438.44C667.877 438.277 668.007 438.077 668.096 437.838L669.503 438.092C669.39 438.506 669.188 438.869 668.897 439.181C668.608 439.489 668.245 439.729 667.808 439.901C667.374 440.07 666.878 440.155 666.321 440.155Z" fill="black"/>
<path d="M674.106 440.15C673.489 440.15 672.939 439.993 672.455 439.678C671.974 439.36 671.597 438.907 671.322 438.32C671.05 437.731 670.914 437.023 670.914 436.198C670.914 435.372 671.051 434.666 671.327 434.08C671.605 433.493 671.986 433.044 672.47 432.732C672.954 432.421 673.502 432.265 674.116 432.265C674.59 432.265 674.971 432.345 675.259 432.504C675.551 432.66 675.776 432.842 675.935 433.051C676.098 433.259 676.224 433.443 676.313 433.602H676.403V429.819H677.889V440.001H676.437V438.813H676.313C676.224 438.975 676.094 439.161 675.925 439.369C675.76 439.578 675.531 439.761 675.239 439.916C674.947 440.072 674.57 440.15 674.106 440.15ZM674.434 438.882C674.861 438.882 675.223 438.77 675.518 438.544C675.816 438.316 676.041 437.999 676.194 437.595C676.35 437.19 676.427 436.72 676.427 436.183C676.427 435.652 676.351 435.188 676.199 434.791C676.046 434.393 675.823 434.083 675.528 433.861C675.233 433.639 674.868 433.528 674.434 433.528C673.986 433.528 673.613 433.644 673.315 433.876C673.017 434.108 672.792 434.424 672.639 434.825C672.49 435.227 672.415 435.679 672.415 436.183C672.415 436.693 672.492 437.152 672.644 437.56C672.796 437.968 673.022 438.291 673.32 438.529C673.622 438.765 673.993 438.882 674.434 438.882Z" fill="black"/>
<path d="M358.308 469.155C357.592 469.155 356.968 468.991 356.434 468.663C355.9 468.335 355.486 467.876 355.191 467.286C354.896 466.696 354.749 466.006 354.749 465.218C354.749 464.425 354.896 463.733 355.191 463.139C355.486 462.546 355.9 462.085 356.434 461.757C356.968 461.429 357.592 461.265 358.308 461.265C359.024 461.265 359.649 461.429 360.183 461.757C360.716 462.085 361.131 462.546 361.426 463.139C361.72 463.733 361.868 464.425 361.868 465.218C361.868 466.006 361.72 466.696 361.426 467.286C361.131 467.876 360.716 468.335 360.183 468.663C359.649 468.991 359.024 469.155 358.308 469.155ZM358.313 467.907C358.777 467.907 359.162 467.785 359.467 467.539C359.772 467.294 359.997 466.968 360.143 466.56C360.292 466.152 360.367 465.703 360.367 465.213C360.367 464.725 360.292 464.278 360.143 463.87C359.997 463.459 359.772 463.129 359.467 462.881C359.162 462.632 358.777 462.508 358.313 462.508C357.846 462.508 357.458 462.632 357.15 462.881C356.845 463.129 356.618 463.459 356.469 463.87C356.323 464.278 356.25 464.725 356.25 465.213C356.25 465.703 356.323 466.152 356.469 466.56C356.618 466.968 356.845 467.294 357.15 467.539C357.458 467.785 357.846 467.907 358.313 467.907Z" fill="black"/>
<path d="M368.365 465.834V461.365H369.856V469.001H368.394V467.678H368.315C368.139 468.086 367.858 468.426 367.47 468.698C367.085 468.966 366.606 469.1 366.033 469.1C365.542 469.1 365.108 468.993 364.73 468.777C364.356 468.558 364.061 468.235 363.845 467.808C363.633 467.38 363.527 466.852 363.527 466.222V461.365H365.014V466.043C365.014 466.563 365.158 466.977 365.446 467.286C365.735 467.594 366.109 467.748 366.57 467.748C366.848 467.748 367.125 467.678 367.4 467.539C367.679 467.4 367.909 467.19 368.091 466.908C368.277 466.626 368.368 466.268 368.365 465.834Z" fill="black"/>
<path d="M375.418 461.365V462.558H371.247V461.365H375.418ZM372.365 459.535H373.852V466.759C373.852 467.047 373.895 467.264 373.981 467.41C374.067 467.552 374.178 467.65 374.314 467.703C374.454 467.753 374.604 467.778 374.767 467.778C374.886 467.778 374.99 467.77 375.08 467.753C375.169 467.736 375.239 467.723 375.289 467.713L375.557 468.941C375.471 468.974 375.348 469.008 375.189 469.041C375.03 469.077 374.831 469.097 374.593 469.1C374.202 469.107 373.837 469.037 373.499 468.892C373.161 468.746 372.888 468.52 372.679 468.215C372.47 467.91 372.365 467.528 372.365 467.067V459.535Z" fill="black"/>
<path d="M380.197 469.155C379.458 469.155 378.822 468.988 378.288 468.653C377.758 468.315 377.35 467.849 377.065 467.256C376.78 466.663 376.637 465.983 376.637 465.218C376.637 464.442 376.783 463.758 377.075 463.164C377.366 462.568 377.777 462.102 378.308 461.767C378.838 461.432 379.463 461.265 380.182 461.265C380.762 461.265 381.279 461.373 381.733 461.588C382.187 461.8 382.554 462.099 382.832 462.483C383.114 462.868 383.281 463.317 383.334 463.83H381.887C381.808 463.472 381.625 463.164 381.34 462.906C381.059 462.647 380.681 462.518 380.207 462.518C379.793 462.518 379.43 462.627 379.118 462.846C378.81 463.061 378.57 463.37 378.397 463.771C378.225 464.169 378.139 464.639 378.139 465.183C378.139 465.74 378.223 466.22 378.392 466.624C378.561 467.029 378.8 467.342 379.108 467.564C379.42 467.786 379.786 467.897 380.207 467.897C380.489 467.897 380.744 467.846 380.973 467.743C381.205 467.637 381.398 467.486 381.554 467.291C381.713 467.095 381.824 466.86 381.887 466.585H383.334C383.281 467.079 383.12 467.519 382.852 467.907C382.583 468.295 382.224 468.6 381.773 468.822C381.326 469.044 380.8 469.155 380.197 469.155Z" fill="black"/>
<path d="M388.14 469.155C387.424 469.155 386.8 468.991 386.266 468.663C385.732 468.335 385.318 467.876 385.023 467.286C384.728 466.696 384.581 466.006 384.581 465.218C384.581 464.425 384.728 463.733 385.023 463.139C385.318 462.546 385.732 462.085 386.266 461.757C386.8 461.429 387.424 461.265 388.14 461.265C388.856 461.265 389.481 461.429 390.015 461.757C390.548 462.085 390.963 462.546 391.258 463.139C391.553 463.733 391.7 464.425 391.7 465.218C391.7 466.006 391.553 466.696 391.258 467.286C390.963 467.876 390.548 468.335 390.015 468.663C389.481 468.991 388.856 469.155 388.14 469.155ZM388.145 467.907C388.609 467.907 388.994 467.785 389.299 467.539C389.604 467.294 389.829 466.968 389.975 466.56C390.124 466.152 390.199 465.703 390.199 465.213C390.199 464.725 390.124 464.278 389.975 463.87C389.829 463.459 389.604 463.129 389.299 462.881C388.994 462.632 388.609 462.508 388.145 462.508C387.678 462.508 387.29 462.632 386.982 462.881C386.677 463.129 386.45 463.459 386.301 463.87C386.155 464.278 386.082 464.725 386.082 465.213C386.082 465.703 386.155 466.152 386.301 466.56C386.45 466.968 386.677 467.294 386.982 467.539C387.29 467.785 387.678 467.907 388.145 467.907Z" fill="black"/>
<path d="M393.359 469.001V461.365H394.786V462.607H394.881C395.04 462.186 395.3 461.858 395.661 461.623C396.022 461.384 396.455 461.265 396.959 461.265C397.469 461.265 397.897 461.384 398.241 461.623C398.589 461.862 398.846 462.19 399.012 462.607H399.092C399.274 462.2 399.564 461.875 399.962 461.633C400.359 461.388 400.833 461.265 401.383 461.265C402.076 461.265 402.641 461.482 403.079 461.916C403.52 462.351 403.74 463.005 403.74 463.88V469.001H402.253V464.019C402.253 463.502 402.113 463.128 401.831 462.896C401.549 462.664 401.213 462.548 400.822 462.548C400.338 462.548 399.962 462.697 399.693 462.995C399.425 463.29 399.29 463.67 399.29 464.134V469.001H397.809V463.925C397.809 463.511 397.68 463.177 397.421 462.926C397.163 462.674 396.826 462.548 396.412 462.548C396.13 462.548 395.87 462.622 395.631 462.771C395.396 462.917 395.205 463.121 395.06 463.383C394.917 463.645 394.846 463.948 394.846 464.293V469.001H393.359Z" fill="black"/>
<path d="M409.024 469.155C408.271 469.155 407.623 468.994 407.08 468.673C406.539 468.348 406.122 467.892 405.827 467.306C405.535 466.716 405.389 466.025 405.389 465.232C405.389 464.45 405.535 463.761 405.827 463.164C406.122 462.568 406.533 462.102 407.06 461.767C407.59 461.432 408.21 461.265 408.919 461.265C409.35 461.265 409.768 461.336 410.172 461.479C410.576 461.621 410.939 461.845 411.261 462.15C411.582 462.455 411.836 462.851 412.021 463.338C412.207 463.822 412.3 464.41 412.3 465.103V465.63H406.229V464.517H410.843C410.843 464.125 410.764 463.779 410.604 463.477C410.445 463.173 410.222 462.932 409.933 462.757C409.648 462.581 409.314 462.493 408.929 462.493C408.511 462.493 408.147 462.596 407.835 462.801C407.527 463.003 407.288 463.269 407.119 463.597C406.954 463.922 406.871 464.275 406.871 464.656V465.526C406.871 466.036 406.96 466.47 407.139 466.828C407.322 467.186 407.575 467.46 407.9 467.649C408.225 467.834 408.604 467.927 409.038 467.927C409.32 467.927 409.577 467.887 409.809 467.808C410.041 467.725 410.242 467.602 410.411 467.44C410.58 467.277 410.709 467.077 410.798 466.838L412.205 467.092C412.093 467.506 411.89 467.869 411.599 468.181C411.31 468.489 410.948 468.729 410.51 468.901C410.076 469.07 409.58 469.155 409.024 469.155Z" fill="black"/>
<path d="M414.929 469.095C414.657 469.095 414.423 468.999 414.228 468.807C414.032 468.611 413.934 468.376 413.934 468.101C413.934 467.829 414.032 467.597 414.228 467.405C414.423 467.209 414.657 467.112 414.929 467.112C415.2 467.112 415.434 467.209 415.63 467.405C415.825 467.597 415.923 467.829 415.923 468.101C415.923 468.283 415.876 468.451 415.784 468.603C415.694 468.752 415.575 468.872 415.426 468.961C415.277 469.051 415.111 469.095 414.929 469.095Z" fill="black"/>
</g>
<defs>
<linearGradient id="paint0_linear_6772_437" x1="750" y1="408.937" x2="687.559" y2="649.81" gradientUnits="userSpaceOnUse">
<stop stop-color="#FFF8F0"/>
<stop offset="1" stop-color="#FFF3F1"/>
</linearGradient>
</defs>
</svg>
