<svg width="283" height="284" viewBox="0 0 283 284" fill="none" xmlns="http://www.w3.org/2000/svg">
<path d="M72.0877 244.353L72.2023 244.891C72.7365 247.472 73.1822 249.952 73.5389 252.329C59.9654 243.327 48.1126 231.843 38.5928 218.508C40.9012 218.271 42.9965 217.932 44.8814 217.489C52.5788 227.772 61.7569 236.836 72.0877 244.353ZM145.308 4C218.222 4 277.338 64.4376 277.338 139C277.338 168.91 267.825 196.548 251.725 218.923L249.267 212.54C263.424 191.665 271.72 166.322 271.72 139C271.72 67.6352 215.127 9.77538 145.308 9.77538C129.94 9.77538 115.214 12.5784 101.59 17.7115L95.3784 13.987C110.781 7.54864 127.64 4 145.308 4V4Z" fill="#333333" stroke="#333333"/>
<path d="M32.6639 127.934L50.7702 177.444C55.9194 178.353 59.089 179.594 59.089 180.961V180.978C59.2209 181.578 59.2103 182.236 59.0577 182.95L59.089 182.951L58.9879 183.242C58.8484 183.776 58.6322 184.341 58.3405 184.936C53.5431 196.574 42.9336 204.785 29.8766 204.785C17.0116 204.785 6.02867 196.813 1.06961 185.448C0.644689 184.63 0.347081 183.873 0.175439 183.178C0.149639 183.104 0.123118 183.027 0.0968371 182.951L0.123214 182.95C-0.011318 182.312 -0.0356728 181.729 0.0501005 181.199L0.0968371 180.961L0.10218 180.864C0.254185 179.482 3.64257 178.237 9.02275 177.339L27.0893 127.934C27.9588 125.538 31.7884 125.538 32.6639 127.934V127.934ZM128.176 127.928L146.277 177.426C151.187 178.285 154.321 179.443 154.666 180.725L154.633 180.658L154.708 180.82C154.958 181.433 154.984 182.141 154.788 182.944L154.789 182.945C154.685 183.364 154.525 183.803 154.305 184.268C149.63 196.26 138.692 204.778 125.388 204.778C112.228 204.778 101.038 196.437 96.2493 184.654C95.9643 184.078 95.7371 183.524 95.6216 183.005L95.6106 182.951C95.6101 182.949 95.6091 182.947 95.6081 182.945L95.6091 182.944L95.586 182.811C95.5172 182.342 95.5465 181.755 95.6736 181.05L95.7116 180.854L95.7169 180.82L95.729 180.756C96.0389 179.426 99.3466 178.229 104.526 177.357L122.601 127.928C123.471 125.531 127.3 125.531 128.176 127.928V127.928ZM95.7309 180.756L95.7169 180.82H95.7184L95.7309 180.756ZM29.8766 137.723L15.6947 176.503C19.8359 176.123 24.5677 175.908 29.593 175.908L30.1601 175.909C35.213 175.925 39.9556 176.159 44.0806 176.558L29.8766 137.723ZM125.388 137.723L111.202 176.512C115.367 176.126 120.135 175.908 125.201 175.908L125.768 175.909C130.781 175.925 135.487 176.155 139.588 176.549L125.388 137.723ZM78.0511 70.5068C78.0511 70.5068 85.1151 93.2317 85.1151 97.2566C85.1151 100.028 83.5546 102.369 81.3328 103.598C83.1614 104.207 84.7695 105.276 86.0263 106.708C88.8315 104.2 92.9647 101.871 98.8971 101.871C105.681 101.871 111.512 104.913 116.658 107.599C118.296 108.453 119.886 109.27 121.357 109.909C122.453 108.717 123.984 107.955 125.699 107.955C129.022 107.955 131.714 110.733 131.714 114.162C131.714 117.591 129.022 120.368 125.699 120.368C123.001 120.368 120.803 118.506 120.041 115.981C118.069 115.206 116.05 114.162 113.971 113.08C109.421 110.708 104.257 108.017 98.8971 108.017C93.7449 108.017 90.5287 110.481 88.6943 112.564C88.766 113.093 88.8493 113.615 88.8493 114.162C88.8493 120.313 84.0129 125.303 78.0511 125.303C72.0893 125.303 67.2529 120.313 67.2529 114.162C67.2529 113.615 67.3362 113.086 67.4079 112.558C65.5673 110.469 62.351 108.017 57.2051 108.017C51.845 108.017 46.6812 110.714 42.1245 113.086C40.0519 114.168 38.0332 115.212 36.0616 115.987C35.2992 118.512 33.1014 120.375 30.4036 120.375C27.08 120.375 24.3878 117.591 24.3878 114.162C24.3878 110.733 27.08 107.955 30.4036 107.955C32.1185 107.955 33.6492 108.723 34.7452 109.909C36.2166 109.276 37.8007 108.459 39.4386 107.599C44.5846 104.913 50.4212 101.871 57.2051 101.871C63.1375 101.871 67.2707 104.2 70.0759 106.708C71.3327 105.276 72.9408 104.2 74.7694 103.598C72.548 102.369 70.9875 100.034 70.9875 97.2566C70.9875 93.2317 78.0511 70.5068 78.0511 70.5068V70.5068Z" fill="url(#paint0_linear_405_1475)"/>
<path d="M162.477 62.9343C162.477 62.9343 155.149 63.58 150.294 66.2699C150.294 66.2699 169.603 66.1626 178.59 73.9039C178.59 73.9039 156.735 67.0185 131.263 84.1169C131.263 84.1169 171.776 76.1581 190.982 93.0424C190.982 93.0424 184.784 81.2802 171.749 78.7491C171.749 78.7491 186.58 78.1429 191.66 80.6745C191.66 80.6745 187.272 70.9841 182.3 68.6745V61.7669C182.3 60.368 174.873 53.2547 162.477 52.0542V62.9343Z" fill="url(#paint1_linear_405_1475)"/>
<path d="M159.177 93.8265C159.177 93.8265 162.303 96.6217 163.625 99.2042C163.625 99.2042 160.769 102.099 158.038 103.525C158.038 103.525 166.31 106.196 168.488 109.355C164.078 107.933 156.547 108.466 154.733 112.306C159.768 111.75 162.851 113.083 163.499 115.061C163.499 115.061 162.302 116.83 158.637 117.616C154.733 118.453 153.736 120.117 153.736 122.441C153.736 124.765 156.7 126.89 162.084 126.718C167.46 126.541 182.124 124.267 183.232 95.8206C182.124 93.1456 168.729 87.6838 159.143 87.7441L159.177 93.8265Z" fill="white"/>
<path d="M185.046 125.308C191.629 114.804 195.23 105.652 195.851 97.8516C205.596 108.956 205.01 121.957 203.355 131.906C202.238 128.704 200.797 125.411 199.033 122.026C200.198 137.367 195.769 145.672 185.746 146.942C184.573 139.856 184.34 132.645 185.046 125.308V125.308Z" fill="white"/>
<path d="M66.2133 30.0342C64.3837 32.9193 61.7027 40.941 58.1692 54.0995C49.7349 63.9961 41.4954 77.8088 33.4514 95.5367C29.5525 96.8875 25.415 98.7536 21.0386 101.136C32.4854 78.9995 43.6706 62.443 54.5929 51.469C56.9775 43.3435 60.8507 36.1986 66.2133 30.0342V30.0342Z" fill="white"/>
<path d="M87.9584 52.7183L61.271 65.6286C68.8756 65.7596 74.9148 64.342 79.3888 61.3757C83.8628 58.4095 86.7195 55.5233 87.9584 52.7183Z" fill="white"/>
<path d="M78.1121 48.0093C77.961 42.367 77.2448 39.1956 75.963 38.4954C74.5383 37.8427 73.7099 36.4375 74.5383 33.8707C75.0489 32.2395 74.8949 30.4234 74.0762 28.4228L81.3154 23.4639L89.4624 28.7299C89.7474 30.588 89.1553 32.3018 87.6863 33.8707C89.4624 35.8412 89.4624 38.3842 87.4047 41.3213C87.462 42.0491 87.502 42.7626 87.5241 43.4618C87.5583 44.5214 87.5183 46.0374 87.4047 48.0093H78.1121Z" fill="white"/>
<path d="M178.628 134.939C177.352 158.793 182.304 172.348 193.486 175.606C210.26 180.492 240.082 181.141 238.173 218.142C239.689 223.04 241.074 227.696 242.329 232.108C237.413 237.449 232.079 242.379 226.383 246.845C220.806 233.024 212.336 224.334 202.537 218.142C163.918 193.474 155.949 165.74 178.628 134.939Z" fill="white"/>
<path d="M80.1357 210.843C100.358 262.898 132.73 229.545 157.738 241.739C169.172 247.314 175.409 257.549 176.45 272.443C166.7 274.771 156.542 276 146.105 276C125.867 276 106.678 271.38 89.4827 263.11C89.4192 247.438 86.3026 230.017 80.1357 210.843V210.843Z" fill="white"/>
<path d="M118.499 70.0883C123.745 68.6025 128.032 65.2471 131.361 60.0216C131.15 63.1328 130.39 65.8103 129.082 68.0551C144.243 65.2584 156.01 55.839 164.382 39.7958C148.945 31.1897 133.032 37.0604 124.503 47.7674C118.817 54.905 116.816 62.3456 118.499 70.0883V70.0883Z" fill="white"/>
<defs>
<linearGradient id="paint0_linear_405_1475" x1="-9.07781e-06" y1="185.443" x2="146.622" y2="70.2762" gradientUnits="userSpaceOnUse">
<stop stop-color="#FFC58F"/>
<stop offset="1" stop-color="#FF7C7C"/>
</linearGradient>
<linearGradient id="paint1_linear_405_1475" x1="131.263" y1="87.1385" x2="177.33" y2="40.9239" gradientUnits="userSpaceOnUse">
<stop stop-color="#FFC58F"/>
<stop offset="1" stop-color="#FF7C7C"/>
</linearGradient>
</defs>
</svg>
